<?xml version="1.0" encoding="utf-8"?>
<svg version="1.1" xmlns:xlink="http://www.w3.org/1999/xlink" width="300px" height="80px" xmlns="http://www.w3.org/2000/svg">
  <g transform="matrix(1 0 0 1 -829 -465 )">
    <path d="M 1097.172291236 465.5  C 1097.172291236 465.5  1100.75834635775 465.9781406829  1100.75834635775 465.9781406829  C 1100.75834635775 465.9781406829  1128.44277357597 505  1128.44277357597 505  C 1128.44277357597 505  1100.75834635775 544.0218593171  1100.75834635775 544.0218593171  C 1100.75834635775 544.0218593171  1097.172291236 544.5  1097.172291236 544.5  C 1097.172291236 544.5  829.5 544.5  829.5 544.5  C 829.5 544.5  829.5 465.5  829.5 465.5  C 829.5 465.5  1097.172291236 465.5  1097.172291236 465.5  Z " fill-rule="nonzero" fill="#ffffff" stroke="none" />
    <path d="M 1097.172291236 465.5  C 1097.172291236 465.5  1100.75834635775 465.9781406829  1100.75834635775 465.9781406829  C 1100.75834635775 465.9781406829  1128.44277357597 505  1128.44277357597 505  C 1128.44277357597 505  1100.75834635775 544.0218593171  1100.75834635775 544.0218593171  C 1100.75834635775 544.0218593171  1097.172291236 544.5  1097.172291236 544.5  C 1097.172291236 544.5  829.5 544.5  829.5 544.5  C 829.5 544.5  829.5 465.5  829.5 465.5  C 829.5 465.5  1097.172291236 465.5  1097.172291236 465.5  Z " stroke-width="1" stroke="#8c8c8c" fill="none" />
  </g>
</svg>