<?xml version="1.0" encoding="utf-8"?>
<svg version="1.1" xmlns:xlink="http://www.w3.org/1999/xlink" width="300px" height="80px" xmlns="http://www.w3.org/2000/svg">
  <g transform="matrix(1 0 0 1 -557 -465 )">
    <path d="M 825.172291236 465.5  C 825.172291236 465.5  828.758346357753 465.9781406829  828.758346357753 465.9781406829  C 828.758346357753 465.9781406829  856.442773575966 505  856.442773575966 505  C 856.442773575966 505  828.758346357753 544.0218593171  828.758346357753 544.0218593171  C 828.758346357753 544.0218593171  825.172291236 544.5  825.172291236 544.5  C 825.172291236 544.5  557.5 544.5  557.5 544.5  C 557.5 544.5  557.5 465.5  557.5 465.5  C 557.5 465.5  825.172291236 465.5  825.172291236 465.5  Z " fill-rule="nonzero" fill="#f59a23" stroke="none" />
    <path d="M 825.172291236 465.5  C 825.172291236 465.5  828.758346357753 465.9781406829  828.758346357753 465.9781406829  C 828.758346357753 465.9781406829  856.442773575966 505  856.442773575966 505  C 856.442773575966 505  828.758346357753 544.0218593171  828.758346357753 544.0218593171  C 828.758346357753 544.0218593171  825.172291236 544.5  825.172291236 544.5  C 825.172291236 544.5  557.5 544.5  557.5 544.5  C 557.5 544.5  557.5 465.5  557.5 465.5  C 557.5 465.5  825.172291236 465.5  825.172291236 465.5  Z " stroke-width="1" stroke="#8c8c8c" fill="none" />
  </g>
</svg>