<?xml version="1.0" encoding="utf-8"?>
<svg version="1.1" xmlns:xlink="http://www.w3.org/1999/xlink" width="35px" height="35px" xmlns="http://www.w3.org/2000/svg">
  <g transform="matrix(1 0 0 1 -3077 -556 )">
    <path d="M 27.1158854166667 14.5833333333333  C 27.1158854166667 14.9782986111111  26.9715711805556 15.3200954861111  26.6829427083333 15.6087239583333  L 17.0670572916667 25.224609375  C 16.7784288194444 25.5132378472222  16.4366319444444 25.6575520833333  16.0416666666667 25.6575520833333  C 15.6467013888889 25.6575520833333  15.3049045138889 25.5132378472222  15.0162760416667 25.224609375  L 8.31705729166667 18.525390625  C 8.02842881944444 18.2367621527778  7.88411458333333 17.8949652777778  7.88411458333333 17.5  C 7.88411458333333 17.1050347222222  8.02842881944444 16.7632378472222  8.31705729166667 16.474609375  L 10.6412760416667 14.150390625  C 10.9299045138889 13.8617621527778  11.2717013888889 13.7174479166667  11.6666666666667 13.7174479166667  C 12.0616319444444 13.7174479166667  12.4034288194444 13.8617621527778  12.6920572916667 14.150390625  L 16.0416666666667 17.5  L 22.3079427083333 11.2337239583333  C 22.5965711805556 10.9450954861111  22.9383680555556 10.80078125  23.3333333333333 10.80078125  C 23.7282986111111 10.80078125  24.0700954861111 10.9450954861111  24.3587239583333 11.2337239583333  L 26.6829427083333 13.5579427083333  C 26.9715711805556 13.8465711805556  27.1158854166667 14.1883680555556  27.1158854166667 14.5833333333333  Z M 28.232421875 23.720703125  C 29.3413628472222 21.8218315972222  29.8958333333333 19.7482638888889  29.8958333333333 17.5  C 29.8958333333333 15.2517361111111  29.3413628472222 13.1781684027778  28.232421875 11.279296875  C 27.1234809027778 9.38042534722222  25.6195746527778 7.87651909722222  23.720703125 6.767578125  C 21.8218315972222 5.65863715277778  19.7482638888889 5.10416666666667  17.5 5.10416666666667  C 15.2517361111111 5.10416666666667  13.1781684027778 5.65863715277778  11.279296875 6.767578125  C 9.38042534722222 7.87651909722222  7.87651909722222 9.38042534722222  6.767578125 11.279296875  C 5.65863715277778 13.1781684027778  5.10416666666667 15.2517361111111  5.10416666666667 17.5  C 5.10416666666667 19.7482638888889  5.65863715277778 21.8218315972222  6.767578125 23.720703125  C 7.87651909722222 25.6195746527778  9.38042534722222 27.1234809027778  11.279296875 28.232421875  C 13.1781684027778 29.3413628472222  15.2517361111111 29.8958333333333  17.5 29.8958333333333  C 19.7482638888889 29.8958333333333  21.8218315972222 29.3413628472222  23.720703125 28.232421875  C 25.6195746527778 27.1234809027778  27.1234809027778 25.6195746527778  28.232421875 23.720703125  Z M 32.6529947916667 8.7158203125  C 34.2176649305556 11.3970269097222  35 14.3250868055556  35 17.5  C 35 20.6749131944444  34.2176649305556 23.6029730902778  32.6529947916667 26.2841796875  C 31.0883246527778 28.9653862847222  28.9653862847222 31.0883246527778  26.2841796875 32.6529947916667  C 23.6029730902778 34.2176649305556  20.6749131944444 35  17.5 35  C 14.3250868055556 35  11.3970269097222 34.2176649305556  8.7158203125 32.6529947916667  C 6.03461371527778 31.0883246527778  3.91167534722222 28.9653862847222  2.34700520833333 26.2841796875  C 0.782335069444444 23.6029730902778  0 20.6749131944444  0 17.5  C 0 14.3250868055556  0.782335069444444 11.3970269097222  2.34700520833333 8.7158203125  C 3.91167534722222 6.03461371527778  6.03461371527778 3.91167534722222  8.7158203125 2.34700520833333  C 11.3970269097222 0.782335069444441  14.3250868055556 0  17.5 0  C 20.6749131944444 0  23.6029730902778 0.782335069444441  26.2841796875 2.34700520833333  C 28.9653862847222 3.91167534722222  31.0883246527778 6.03461371527778  32.6529947916667 8.7158203125  Z " fill-rule="nonzero" fill="#d7d7d7" stroke="none" transform="matrix(1 0 0 1 3077 556 )" />
  </g>
</svg>