<?xml version="1.0" encoding="utf-8"?>
<svg version="1.1" xmlns:xlink="http://www.w3.org/1999/xlink" width="42px" height="24px" xmlns="http://www.w3.org/2000/svg">
  <g transform="matrix(1 0 0 1 -335 -117 )">
    <path d="M 1.0458984375 16.659375  C 0.3486328125 15.178125  0 13.625  0 12  C 0 10.375  0.3486328125 8.821875  1.0458984375 7.340625  C 1.7431640625 5.859375  2.67626953125 4.584375  3.84521484375 3.515625  C 5.01416015625 2.446875  6.40869140625 1.59375  8.02880859375 0.956249999999999  C 9.64892578125 0.318750000000001  11.34765625 0  13.125 0  L 28.875 0  C 30.65234375 0  32.35107421875 0.318750000000001  33.97119140625 0.956249999999999  C 35.59130859375 1.59375  36.98583984375 2.446875  38.15478515625 3.515625  C 39.32373046875 4.584375  40.2568359375 5.859375  40.9541015625 7.340625  C 41.6513671875 8.821875  42 10.375  42 12  C 42 13.625  41.6513671875 15.178125  40.9541015625 16.659375  C 40.2568359375 18.140625  39.32373046875 19.415625  38.15478515625 20.484375  C 36.98583984375 21.553125  35.59130859375 22.40625  33.97119140625 23.04375  C 32.35107421875 23.68125  30.65234375 24  28.875 24  L 13.125 24  C 11.34765625 24  9.64892578125 23.68125  8.02880859375 23.04375  C 6.40869140625 22.40625  5.01416015625 21.553125  3.84521484375 20.484375  C 2.67626953125 19.415625  1.7431640625 18.140625  1.0458984375 16.659375  Z M 24.80419921875 20.840625  C 26.09619140625 21.346875  27.453125 21.6  28.875 21.6  C 30.296875 21.6  31.65380859375 21.346875  32.94580078125 20.840625  C 34.23779296875 20.334375  35.35546875 19.65  36.298828125 18.7875  C 37.2421875 17.925  37.99072265625 16.903125  38.54443359375 15.721875  C 39.09814453125 14.540625  39.375 13.3  39.375 12  C 39.375 10.7  39.09814453125 9.459375  38.54443359375 8.278125  C 37.99072265625 7.096875  37.2421875 6.075  36.298828125 5.2125  C 35.35546875 4.35  34.23779296875 3.665625  32.94580078125 3.159375  C 31.65380859375 2.653125  30.296875 2.4  28.875 2.4  C 27.453125 2.4  26.09619140625 2.653125  24.80419921875 3.159375  C 23.51220703125 3.665625  22.39453125 4.35  21.451171875 5.2125  C 20.5078125 6.075  19.75927734375 7.096875  19.20556640625 8.278125  C 18.65185546875 9.459375  18.375 10.7  18.375 12  C 18.375 13.3  18.65185546875 14.540625  19.20556640625 15.721875  C 19.75927734375 16.903125  20.5078125 17.925  21.451171875 18.7875  C 22.39453125 19.65  23.51220703125 20.334375  24.80419921875 20.840625  Z " fill-rule="nonzero" fill="#000000" stroke="none" transform="matrix(1 0 0 1 335 117 )" />
  </g>
</svg>