<?xml version="1.0" encoding="utf-8"?>
<svg version="1.1" xmlns:xlink="http://www.w3.org/1999/xlink" width="52px" height="87px" xmlns="http://www.w3.org/2000/svg">
  <defs>
    <filter x="220px" y="204px" width="52px" height="87px" filterUnits="userSpaceOnUse" id="filter43">
      <feOffset dx="0" dy="0" in="SourceAlpha" result="shadowOffsetInner" />
      <feGaussianBlur stdDeviation="2.5" in="shadowOffsetInner" result="shadowGaussian" />
      <feComposite in2="shadowGaussian" operator="atop" in="SourceAlpha" result="shadowComposite" />
      <feColorMatrix type="matrix" values="0 0 0 0 0  0 0 0 0 0  0 0 0 0 0  0 0 0 0.313725490196078 0  " in="shadowComposite" />
    </filter>
    <g id="widget44">
      <path d="M 39.8485523385301 19.5739182692308  C 40.4409799554566 19.5739182692308  40.9710467706013 19.8052884615385  41.4387527839644 20.2680288461538  C 42 20.885016025641  42.109131403118 21.5637019230769  41.7661469933185 22.3040865384615  L 16.5100222717149 75.8431490384615  C 16.1046770601336 76.6143830128205  15.4498886414254 77  14.5456570155902 77  C 14.4209354120267 77  14.2026726057906 76.9691506410256  13.890868596882 76.9074519230769  C 13.3608017817372 76.7532051282051  12.9632516703786 76.4601362179487  12.6982182628062 76.0282451923077  C 12.4331848552339 75.5963541666667  12.3630289532294 75.1336137820513  12.4877505567929 74.6400240384615  L 21.7015590200445 37.2506009615385  L 2.71269487750557 41.9242788461538  C 2.58797327394209 41.9551282051282  2.40089086859688 41.9705528846154  2.15144766146993 41.9705528846154  C 1.5902004454343 41.9705528846154  1.10690423162584 41.8008814102564  0.701559020044544 41.4615384615385  C 0.140311804008909 40.9987980769231  -0.0623608017817372 40.3972355769231  0.0935412026726058 39.6568509615385  L 9.49443207126949 1.48076923076923  C 9.61915367483296 1.0488782051282  9.86859688195991 0.694110576923081  10.2427616926503 0.416466346153847  C 10.6169265033408 0.138822115384613  11.0534521158129 0  11.5523385300668 0  L 26.8930957683742 0  C 27.4855233853007 0  27.9844097995546 0.192808493589733  28.3897550111359 0.578425480769234  C 28.7951002227172 0.964042467948718  28.9977728285078 1.41907051282051  28.9977728285078 1.94350961538461  C 28.9977728285078 2.19030448717948  28.9198218262806 2.46794871794872  28.7639198218263 2.77644230769231  L 20.7661469933185 24.2013221153846  L 39.2873051224944 19.6664663461538  C 39.5367483296214 19.6047676282051  39.7238307349666 19.5739182692308  39.8485523385301 19.5739182692308  Z " fill-rule="nonzero" fill="#f2f2f2" stroke="none" transform="matrix(1 0 0 1 225 209 )" />
    </g>
  </defs>
  <g transform="matrix(1 0 0 1 -220 -204 )">
    <use xlink:href="#widget44" filter="url(#filter43)" />
    <use xlink:href="#widget44" />
  </g>
</svg>