<?xml version="1.0" encoding="utf-8"?>
<svg version="1.1" xmlns:xlink="http://www.w3.org/1999/xlink" width="87px" height="73px" xmlns="http://www.w3.org/2000/svg">
  <defs>
    <filter x="198px" y="974px" width="87px" height="73px" filterUnits="userSpaceOnUse" id="filter101">
      <feOffset dx="0" dy="0" in="SourceAlpha" result="shadowOffsetInner" />
      <feGaussianBlur stdDeviation="2.5" in="shadowOffsetInner" result="shadowGaussian" />
      <feComposite in2="shadowGaussian" operator="atop" in="SourceAlpha" result="shadowComposite" />
      <feColorMatrix type="matrix" values="0 0 0 0 0  0 0 0 0 0  0 0 0 0 0  0 0 0 0.313725490196078 0  " in="shadowComposite" />
    </filter>
    <g id="widget102">
      <path d="M 20.1326829268293 25  L 8.00048780487805 25  L 31.4009756097561 49.4080528846154  L 20.1326829268293 25  Z M 25.3912195121951 25  L 38.5 53.4591346153846  L 51.6087804878049 25  L 25.3912195121951 25  Z M 7.24926829268293 20  L 20.2453658536585 20  L 27.9078048780488 4.84615384615384  L 18.0668292682927 4.84615384615384  L 7.24926829268293 20  Z M 56.8673170731707 25  L 45.5990243902439 49.4080528846154  L 68.999512195122 25  L 56.8673170731707 25  Z M 33.3541463414634 5  L 25.6917073170732 20  L 51.3082926829268 20  L 43.6458536585366 5  L 33.3541463414634 5  Z M 49.0921951219512 4.84615384615384  L 56.7546341463415 20  L 69.7507317073171 20  L 58.9331707317073 4.84615384615384  L 49.0921951219512 4.84615384615384  Z M 60.1351219512195 0  C 60.9614634146341 0  61.6 0.328124999999995  62.0507317073171 0.984375  L 76.4741463414634 20.3689903846154  C 76.8247154471545 20.8233173076923  76.9874796747968 21.3470552884615  76.9624390243903 21.9402043269231  C 76.9373983739837 22.5333533653846  76.7245528455285 23.0444711538461  76.3239024390244 23.4735576923077  L 40.2653658536585 62.2427884615385  C 39.8146341463415 62.7475961538461  39.2261788617886 63  38.5 63  C 37.7738211382114 63  37.1853658536585 62.7475961538461  36.7346341463415 62.2427884615385  L 0.67609756097561 23.4735576923077  C 0.275447154471545 23.0444711538461  0.0626016260162602 22.5333533653846  0.0375609756097561 21.9402043269231  C 0.012520325203252 21.3470552884615  0.175284552845528 20.8233173076923  0.525853658536585 20.3689903846154  L 14.9492682926829 0.984375  C 15.4 0.328124999999995  16.0385365853659 0  16.8648780487805 0  L 60.1351219512195 0  Z " fill-rule="nonzero" fill="#555555" stroke="none" transform="matrix(1 0 0 1 203 979 )" />
    </g>
  </defs>
  <g transform="matrix(1 0 0 1 -198 -974 )">
    <use xlink:href="#widget102" filter="url(#filter101)" />
    <use xlink:href="#widget102" />
  </g>
</svg>