<?xml version="1.0" encoding="utf-8"?>
<svg version="1.1" xmlns:xlink="http://www.w3.org/1999/xlink" width="75px" height="71px" xmlns="http://www.w3.org/2000/svg">
  <defs>
    <filter x="203px" y="1731px" width="75px" height="71px" filterUnits="userSpaceOnUse" id="filter103">
      <feOffset dx="0" dy="0" in="SourceAlpha" result="shadowOffsetInner" />
      <feGaussianBlur stdDeviation="2.5" in="shadowOffsetInner" result="shadowGaussian" />
      <feComposite in2="shadowGaussian" operator="atop" in="SourceAlpha" result="shadowComposite" />
      <feColorMatrix type="matrix" values="0 0 0 0 0  0 0 0 0 0  0 0 0 0 0  0 0 0 0.313725490196078 0  " in="shadowComposite" />
    </filter>
    <g id="widget104">
      <path d="M 29.9702911467617 19.9246231155779  C 31.4121608239255 18.4941373534338  32.1330956625074 16.7571189279732  32.1330956625074 14.713567839196  C 32.1330956625074 12.6700167504188  31.4121608239255 10.9329983249581  29.9702911467617 9.50251256281407  C 28.5284214695979 8.07202680067001  26.7775797187562 7.35678391959799  24.7177658942365 7.35678391959799  C 22.6579520697168 7.35678391959799  20.907110318875 8.07202680067001  19.4652406417112 9.50251256281407  C 18.0233709645474 10.9329983249581  17.3024361259655 12.6700167504188  17.3024361259655 14.713567839196  C 17.3024361259655 15.786432160804  17.5470390176273 16.8465242881072  18.0362448009507 17.8938442211055  C 16.9805902158843 17.4085008375209  15.9120617944147 17.1658291457286  14.8306595365419 17.1658291457286  C 12.7708457120222 17.1658291457286  11.0200039611804 17.8810720268007  9.57813428401664 19.3115577889447  C 8.13626460685284 20.7420435510888  7.41532976827094 22.4790619765494  7.41532976827094 24.5226130653266  C 7.41532976827094 26.5661641541039  8.13626460685284 28.3031825795645  9.57813428401664 29.7336683417085  C 11.0200039611804 31.1641541038526  12.7708457120222 31.8793969849246  14.8306595365419 31.8793969849246  C 16.8904733610616 31.8793969849246  18.6413151119033 31.1641541038526  20.0831847890671 29.7336683417085  C 21.5250544662309 28.3031825795645  22.2459893048128 26.5661641541039  22.2459893048128 24.5226130653266  C 22.2459893048128 23.4497487437186  22.0013864131511 22.3896566164154  21.5121806298277 21.3423366834171  C 22.567835214894 21.8276800670017  23.6363636363636 22.070351758794  24.7177658942365 22.070351758794  C 26.7775797187562 22.070351758794  28.5284214695979 21.3551088777219  29.9702911467617 19.9246231155779  Z M 63.8992869875223 40.1174623115578  C 64.6330956625074 40.9604271356784  65 41.4840871021776  65 41.6884422110553  C 65 42.1226968174204  64.3691820162408 42.965661641541  63.1075460487225 44.2173366834171  C 61.8459100812042 45.4690117252931  60.9962368785898 46.0948492462312  60.5585264408794 46.0948492462312  C 60.3267973856209 46.0948492462312  59.9598930481283 45.8904941373534  59.4578134284017 45.481783919598  C 58.955733808675 45.0730737018425  58.4858387799564 44.6515912897822  58.048128342246 44.2173366834171  C 57.6104179045356 43.7830820770519  57.1147752030105 43.2721943048576  56.5612002376708 42.6846733668342  C 56.0076252723312 42.0971524288107  55.6922162804516 41.7650753768844  55.6149732620321 41.6884422110553  L 51.9073083778966 45.3668341708543  L 60.4040404040404 53.7964824120603  C 61.1249752426223 54.5117252931323  61.4854426619133 55.3802345058626  61.4854426619133 56.4020100502513  C 61.4854426619133 57.4748743718593  60.9833630421866 58.5094221105528  59.9792038027332 59.5056532663317  C 58.9750445632799 60.5018844221106  57.9322638146168 61  56.8508615567439 61  C 55.8209546444841 61  54.9455337690632 60.642378559464  54.2245989304813 59.927135678392  L 28.3095662507427 34.2167085427136  C 23.7779758367994 37.5630234505863  19.0790255496138 39.2361809045226  14.212715389186 39.2361809045226  C 10.0158447217271 39.2361809045226  6.59784115666469 37.9270309882747  3.95870469399881 35.3087311557789  C 1.31956823133294 32.6904313232831  0 29.2994137353434  0 25.1356783919598  C 0 21.0485762144054  1.22301445830858 17.0508793969849  3.66904337492573 13.1425879396985  C 6.11507229154288 9.23429648241206  9.30778371954843 6.06679229480737  13.2471776589424 3.64007537688443  C 17.1865715983363 1.21335845896147  21.216082392553 0  25.3357100415924 0  C 29.5325807090513 0  32.9505842741137 1.3091499162479  35.5897207367796 3.92744974874372  C 38.2288571994454 6.54574958123953  39.5484254307784 9.93676716917923  39.5484254307784 14.1005025125628  C 39.5484254307784 18.928391959799  37.8619528619529 23.590242881072  34.4890077243018 28.0860552763819  L 48.1996434937611 41.6884422110553  L 51.9073083778966 38.0100502512563  C 51.8300653594771 37.9334170854271  51.4953456129927 37.6204983249581  50.9031491384433 37.0712939698492  C 50.3109526638938 36.5220896147404  49.7959992077639 36.0303601340033  49.3582887700535 35.5961055276382  C 48.920578332343 35.161850921273  48.4957417310359 34.6956658291457  48.0837789661319 34.1975502512563  C 47.671816201228 33.6994346733668  47.465834818776 33.3354271356784  47.465834818776 33.105527638191  C 47.465834818776 32.6712730318258  48.0966528025352 31.8283082077052  49.3582887700535 30.5766331658291  C 50.6199247375718 29.3249581239531  51.4695979401862 28.6991206030151  51.9073083778966 28.6991206030151  C 52.2420281243811 28.6991206030151  52.5381263616558 28.8268425460636  52.7956030897207 29.0822864321608  C 52.9500891265597 29.2355527638191  53.5422856011091 29.8039154103853  54.572192513369 30.7873743718593  C 55.6020994256288 31.7708333333333  56.6577540106952 32.7862227805695  57.739156268568 33.8335427135678  C 58.8205585264409 34.8808626465662  59.9341453753218 35.9792713567839  61.0799168152109 37.1287688442211  C 62.2256882551 38.2782663316583  63.1654783125371 39.2744974874372  63.8992869875223 40.1174623115578  Z " fill-rule="nonzero" fill="#f2f2f2" stroke="none" transform="matrix(1 0 0 1 208 1736 )" />
    </g>
  </defs>
  <g transform="matrix(1 0 0 1 -203 -1731 )">
    <use xlink:href="#widget104" filter="url(#filter103)" />
    <use xlink:href="#widget104" />
  </g>
</svg>