<?xml version="1.0" encoding="utf-8"?>
<svg version="1.1" xmlns:xlink="http://www.w3.org/1999/xlink" width="87px" height="61px" xmlns="http://www.w3.org/2000/svg">
  <defs>
    <filter x="203px" y="2497px" width="87px" height="61px" filterUnits="userSpaceOnUse" id="filter51">
      <feOffset dx="0" dy="0" in="SourceAlpha" result="shadowOffsetInner" />
      <feGaussianBlur stdDeviation="2.5" in="shadowOffsetInner" result="shadowGaussian" />
      <feComposite in2="shadowGaussian" operator="atop" in="SourceAlpha" result="shadowComposite" />
      <feColorMatrix type="matrix" values="0 0 0 0 0  0 0 0 0 0  0 0 0 0 0  0 0 0 0.313725490196078 0  " in="shadowComposite" />
    </filter>
    <g id="widget52">
      <path d="M 30.8 31.875  L 30.8 35  L 46.2 35  L 46.2 31.875  L 41 31.875  L 41 14.025  L 36.4947916666667 14.025  L 30.559375 19.48359375  L 33.6473958333333 22.67109375  C 34.7703125 21.68828125  35.5055555555556 20.93125  35.853125 20.4  L 36 20.4  L 36 31.875  L 30.8 31.875  Z M 50.4911458333333 19.8421875  C 51.0526041666667 21.7546875  51.3333333333333 23.640625  51.3333333333333 25.5  C 51.3333333333333 27.359375  51.0526041666667 29.2453125  50.4911458333333 31.1578125  C 49.9296875 33.0703125  49.1342881944444 34.85  48.1049479166667 36.496875  C 47.0756076388889 38.14375  45.71875 39.48515625  44.034375 40.52109375  C 42.35 41.55703125  40.5052083333333 42.075  38.5 42.075  C 36.4947916666667 42.075  34.65 41.55703125  32.965625 40.52109375  C 31.28125 39.48515625  29.9243923611111 38.14375  28.8950520833333 36.496875  C 27.8657118055556 34.85  27.0703125 33.0703125  26.5088541666667 31.1578125  C 25.9473958333333 29.2453125  25.6666666666667 27.359375  25.6666666666667 25.5  C 25.6666666666667 23.640625  25.9473958333333 21.7546875  26.5088541666667 19.8421875  C 27.0703125 17.9296875  27.8657118055556 16.15  28.8950520833333 14.503125  C 29.9243923611111 12.85625  31.28125 11.51484375  32.965625 10.47890625  C 34.65 9.44296875  36.4947916666667 8.925  38.5 8.925  C 40.5052083333333 8.925  42.35 9.44296875  44.034375 10.47890625  C 45.71875 11.51484375  47.0756076388889 12.85625  48.1049479166667 14.503125  C 49.1342881944444 16.15  49.9296875 17.9296875  50.4911458333333 19.8421875  Z M 64.6078125 38.68828125  C 66.6130208333333 36.69609375  69.0326388888889 35.7  71 35.7  L 71 15.3  C 69.0326388888889 15.3  66.6130208333333 14.30390625  64.6078125 12.31171875  C 62.6026041666667 10.31953125  61.6 7.91562499999999  61.6 5  L 15.4 5  C 15.4 7.91562499999999  14.3973958333333 10.31953125  12.3921875 12.31171875  C 10.3869791666667 14.30390625  7.96736111111111 15.3  6 15.3  L 6 35.7  C 7.96736111111111 35.7  10.3869791666667 36.69609375  12.3921875 38.68828125  C 14.3973958333333 40.68046875  15.4 43.084375  15.4 45  L 61.6 45  C 61.6 43.084375  62.6026041666667 40.68046875  64.6078125 38.68828125  Z M 76.2380208333333 0.757031250000002  C 76.7460069444445 1.26171875  77 1.859375  77 2.55  L 77 48.45  C 77 49.140625  76.7460069444445 49.73828125  76.2380208333333 50.24296875  C 75.7300347222222 50.74765625  75.1284722222222 51  74.4333333333333 51  L 2.56666666666667 51  C 1.87152777777778 51  1.26996527777778 50.74765625  0.761979166666667 50.24296875  C 0.253993055555556 49.73828125  0 49.140625  0 48.45  L 0 2.55  C 0 1.859375  0.253993055555556 1.26171875  0.761979166666667 0.757031250000002  C 1.26996527777778 0.252343749999997  1.87152777777778 0  2.56666666666667 0  L 74.4333333333333 0  C 75.1284722222222 0  75.7300347222222 0.252343749999997  76.2380208333333 0.757031250000002  Z " fill-rule="nonzero" fill="#f2f2f2" stroke="none" transform="matrix(1 0 0 1 208 2502 )" />
    </g>
  </defs>
  <g transform="matrix(1 0 0 1 -203 -2497 )">
    <use xlink:href="#widget52" filter="url(#filter51)" />
    <use xlink:href="#widget52" />
  </g>
</svg>