<?xml version="1.0" encoding="utf-8"?>
<svg version="1.1" xmlns:xlink="http://www.w3.org/1999/xlink" width="65px" height="86px" xmlns="http://www.w3.org/2000/svg">
  <defs>
    <filter x="216px" y="3982px" width="65px" height="86px" filterUnits="userSpaceOnUse" id="filter107">
      <feOffset dx="0" dy="0" in="SourceAlpha" result="shadowOffsetInner" />
      <feGaussianBlur stdDeviation="2.5" in="shadowOffsetInner" result="shadowGaussian" />
      <feComposite in2="shadowGaussian" operator="atop" in="SourceAlpha" result="shadowComposite" />
      <feColorMatrix type="matrix" values="0 0 0 0 0  0 0 0 0 0  0 0 0 0 0  0 0 0 0.313725490196078 0  " in="shadowComposite" />
    </filter>
    <g id="widget108">
      <path d="M 54.3125 41.9295454545455  C 54.7708333333333 42.6204545454545  55 43.3833333333333  55 44.2181818181818  C 55 45.369696969697  54.5989583333333 46.3484848484849  53.796875 47.1545454545455  C 52.9947916666667 47.9606060606061  52.0208333333333 48.3636363636364  50.875 48.3636363636364  C 49.4140625 48.3636363636364  48.2682291666667 47.744696969697  47.4375 46.5068181818182  L 37.68359375 31.7818181818182  L 35.75 31.7818181818182  L 35.75 37.4818181818182  L 46.36328125 55.2295454545455  C 46.62109375 55.6613636363636  46.75 56.1363636363636  46.75 56.6545454545455  C 46.75 57.4030303030303  46.4778645833333 58.0507575757576  45.93359375 58.5977272727273  C 45.3893229166667 59.144696969697  44.7447916666667 59.4181818181818  44 59.4181818181818  L 35 59.4181818181818  L 35 71.1636363636364  C 35.75 72.4878787878788  35.27734375 73.625  34.33203125 74.575  C 33.38671875 75.525  32.2552083333333 76  30.9375 76  L 24.0625 76  C 22.7447916666667 76  21.61328125 75.525  20.66796875 74.575  C 19.72265625 73.625  19.25 72.4878787878788  20 71.1636363636364  L 20 59.4181818181818  L 11 59.4181818181818  C 10.2552083333333 59.4181818181818  9.61067708333333 59.144696969697  9.06640625 58.5977272727273  C 8.52213541666667 58.0507575757576  8.25 57.4030303030303  8.25 56.6545454545455  C 8.25 56.1363636363636  8.37890625 55.6613636363636  8.63671875 55.2295454545455  L 19.25 37.4818181818182  L 19.25 31.7818181818182  L 17.31640625 31.7818181818182  L 7.5625 46.5068181818182  C 6.73177083333333 47.744696969697  5.5859375 48.3636363636364  4.125 48.3636363636364  C 2.97916666666667 48.3636363636364  2.00520833333333 47.9606060606061  1.203125 47.1545454545455  C 0.401041666666667 46.3484848484849  0 45.369696969697  0 44.2181818181818  C 0 43.3833333333333  0.229166666666667 42.6204545454545  0.6875 41.9295454545455  L 11.6875 25.3477272727273  C 13.7786458333333 22.2674242424242  16.2994791666667 20.7272727272727  19.25 21  L 35.75 21  C 38.7005208333333 20.7272727272727  41.2213541666667 22.2674242424242  43.3125 25.3477272727273  L 54.3125 41.9295454545455  Z M 34.310546875 2.82840909090909  C 36.1868489583333 4.71401515151514  37.125 6.99545454545455  37.125 9.67272727272728  C 37.125 12.35  36.1868489583333 14.6314393939394  34.310546875 16.5170454545455  C 32.4342447916667 18.4026515151515  30.1640625 19.3454545454545  27.5 19.3454545454545  C 24.8359375 19.3454545454545  22.5657552083333 18.4026515151515  20.689453125 16.5170454545455  C 18.8131510416667 14.6314393939394  17.875 12.35  17.875 9.67272727272728  C 17.875 6.99545454545455  18.8131510416667 4.71401515151514  20.689453125 2.82840909090909  C 22.5657552083333 0.942803030303025  24.8359375 0  27.5 0  C 30.1640625 0  32.4342447916667 0.942803030303025  34.310546875 2.82840909090909  Z " fill-rule="nonzero" fill="#555555" stroke="none" transform="matrix(1 0 0 1 221 3987 )" />
    </g>
  </defs>
  <g transform="matrix(1 0 0 1 -216 -3982 )">
    <use xlink:href="#widget108" filter="url(#filter107)" />
    <use xlink:href="#widget108" />
  </g>
</svg>