<?xml version="1.0" encoding="utf-8"?>
<svg version="1.1" xmlns:xlink="http://www.w3.org/1999/xlink" width="12px" height="5px" xmlns="http://www.w3.org/2000/svg">
  <g transform="matrix(1 0 0 1 -364 -456 )">
    <path d="M 11.9305555555556 2.33420026007802  C 11.9768518518519 2.37754659731253  12 2.42739488513221  12 2.48374512353706  C 12 2.54442999566537  11.9768518518519 2.59644560034677  11.9305555555556 2.63979193758127  L 9.26388888888889 4.94148244473342  C 9.18981481481481 5.00216731686172  9.1087962962963 5.01517121803208  9.02083333333333 4.98049414824447  C 8.93287037037037 4.94148244473342  8.88888888888889 4.87863025574339  8.88888888888889 4.79193758127438  L 8.88888888888889 3.33550065019506  L 0.222222222222222 3.33550065019506  C 0.157407407407407 3.33550065019506  0.104166666666667 3.31599479843953  0.0625 3.27698309492848  C 0.0208333333333333 3.23797139141743  0 3.18812310359775  0 3.12743823146944  L 0 1.87906371911573  C 0 1.81837884698743  0.0208333333333333 1.76853055916775  0.0625 1.7295188556567  C 0.104166666666667 1.69050715214564  0.157407407407407 1.67100130039012  0.222222222222222 1.67100130039012  L 8.88888888888889 1.67100130039012  L 8.88888888888889 0.214564369310793  C 8.88888888888889 0.123537061118336  8.93287037037037 0.0606848721283049  9.02083333333333 0.0260078023407023  C 9.1087962962963 -0.00866926744690133  9.18981481481481 0.00216731686172478  9.26388888888889 0.0585175552665801  L 11.9305555555556 2.33420026007802  Z " fill-rule="nonzero" fill="#000000" stroke="none" transform="matrix(1 0 0 1 364 456 )" />
  </g>
</svg>