<?xml version="1.0" encoding="utf-8"?>
<svg version="1.1" xmlns:xlink="http://www.w3.org/1999/xlink" width="102px" height="72px" xmlns="http://www.w3.org/2000/svg">
  <g transform="matrix(1 0 0 1 -11 -461 )">
    <path d="M 11 461  L 113 461  L 113 533  L 11 533  L 11 461  " fill-rule="nonzero" fill="#cccccc" stroke="none" />
    <path d="M 16 466  L 108 466  L 108 528  L 16 528  L 16 466  " fill-rule="nonzero" fill="#ffffff" stroke="none" />
    <path d="M 69.44 482.6  C 66.416 482.6  64.04 480.224  64.04 477.2  C 64.04 474.176  66.416 471.8  69.44 471.8  C 72.464 471.8  74.84 474.176  74.84 477.2  C 74.84 480.224  72.464 482.6  69.44 482.6  " fill-rule="nonzero" fill="#cccccc" stroke="none" />
    <path d="M 18 526  L 18 494.1  L 40 479.6  L 70.8 501.435294117647  L 88.4 488.3  L 106 501.435294117647  L 106 526  L 18 526  " fill-rule="nonzero" fill="#169bd5" stroke="none" />
  </g>
</svg>