<?xml version="1.0" encoding="utf-8"?>
<svg version="1.1" xmlns:xlink="http://www.w3.org/1999/xlink" width="140px" height="71px" xmlns="http://www.w3.org/2000/svg">
  <g transform="matrix(1 0 0 1 -24 -244 )">
    <path d="M 24 244  L 164 244  L 164 315  L 24 315  L 24 244  " fill-rule="nonzero" fill="#cccccc" stroke="none" />
    <path d="M 29 249  L 159 249  L 159 310  L 29 310  L 29 249  " fill-rule="nonzero" fill="#ffffff" stroke="none" />
    <path d="M 102.125 265.3  C 99.143 265.3  96.8 262.957  96.8 259.975  C 96.8 256.993  99.143 254.65  102.125 254.65  C 105.107 254.65  107.45 256.993  107.45 259.975  C 107.45 262.957  105.107 265.3  102.125 265.3  " fill-rule="nonzero" fill="#cccccc" stroke="none" />
    <path d="M 31 308  L 31 276.65  L 62.5 262.4  L 106.6 290.655714285714  L 131.8 270.95  L 157 290.655714285714  L 157 308  L 31 308  " fill-rule="nonzero" fill="#169bd5" stroke="none" />
  </g>
</svg>