<?xml version="1.0" encoding="utf-8"?>
<svg version="1.1" xmlns:xlink="http://www.w3.org/1999/xlink" width="22px" height="18px" xmlns="http://www.w3.org/2000/svg">
  <g transform="matrix(1 0 0 1 -737 -134 )">
    <path d="M 21.4814814814815 13.4545454545455  C 21.8271604938272 13.7373737373737  22 14.0808080808081  22 14.4848484848485  C 22 14.8888888888889  21.8271604938272 15.2323232323232  21.4814814814815 15.5151515151515  L 18.962962962963 17.5757575757576  C 18.6172839506173 17.8585858585859  18.1975308641975 18  17.7037037037037 18  C 17.2098765432099 18  16.7901234567901 17.8585858585859  16.4444444444444 17.5757575757576  L 11 13.1212121212121  L 5.55555555555556 17.5757575757576  C 5.20987654320988 17.8585858585859  4.79012345679012 18  4.2962962962963 18  C 3.80246913580247 18  3.38271604938272 17.8585858585859  3.03703703703704 17.5757575757576  L 0.518518518518518 15.5151515151515  C 0.17283950617284 15.2323232323232  0 14.8888888888889  0 14.4848484848485  C 0 14.0808080808081  0.17283950617284 13.7373737373737  0.518518518518518 13.4545454545455  L 5.96296296296296 9  L 0.518518518518518 4.54545454545455  C 0.17283950617284 4.26262626262626  0 3.91919191919192  0 3.51515151515152  C 0 3.11111111111111  0.17283950617284 2.76767676767677  0.518518518518518 2.48484848484849  L 3.03703703703704 0.424242424242424  C 3.38271604938272 0.141414141414141  3.80246913580247 0  4.2962962962963 0  C 4.79012345679012 0  5.20987654320988 0.141414141414141  5.55555555555556 0.424242424242424  L 11 4.87878787878788  L 16.4444444444444 0.424242424242424  C 16.7901234567901 0.141414141414141  17.2098765432099 0  17.7037037037037 0  C 18.1975308641975 0  18.6172839506173 0.141414141414141  18.962962962963 0.424242424242424  L 21.4814814814815 2.48484848484849  C 21.8271604938272 2.76767676767677  22 3.11111111111111  22 3.51515151515152  C 22 3.91919191919192  21.8271604938272 4.26262626262626  21.4814814814815 4.54545454545455  L 16.037037037037 9  L 21.4814814814815 13.4545454545455  Z " fill-rule="nonzero" fill="#000000" stroke="none" transform="matrix(1 0 0 1 737 134 )" />
  </g>
</svg>