<?xml version="1.0" encoding="utf-8"?>
<svg version="1.1" xmlns:xlink="http://www.w3.org/1999/xlink" width="21px" height="20px" xmlns="http://www.w3.org/2000/svg">
  <g transform="matrix(1 0 0 1 -749 -85 )">
    <path d="M 13.5 15.6640625  C 13.6015625 15.6640625  13.69140625 15.6206597222222  13.76953125 15.5338541666667  L 15.48046875 13.6328125  C 15.55859375 13.5460069444444  15.59765625 13.4461805555556  15.59765625 13.3333333333333  C 15.59765625 13.2204861111111  15.55859375 13.1206597222222  15.48046875 13.0338541666667  L 12.75 10  L 15.48046875 6.96614583333333  C 15.55859375 6.87934027777778  15.59765625 6.77951388888889  15.59765625 6.66666666666667  C 15.59765625 6.55381944444444  15.55859375 6.45399305555555  15.48046875 6.3671875  L 13.76953125 4.46614583333333  C 13.69140625 4.37934027777778  13.6015625 4.3359375  13.5 4.3359375  C 13.3984375 4.3359375  13.30859375 4.37934027777778  13.23046875 4.46614583333333  L 10.5 7.5  L 7.76953125 4.46614583333333  C 7.69140625 4.37934027777778  7.6015625 4.3359375  7.5 4.3359375  C 7.3984375 4.3359375  7.30859375 4.37934027777778  7.23046875 4.46614583333333  L 5.51953125 6.3671875  C 5.44140625 6.45399305555555  5.40234375 6.55381944444444  5.40234375 6.66666666666667  C 5.40234375 6.77951388888889  5.44140625 6.87934027777778  5.51953125 6.96614583333333  L 8.25 10  L 5.51953125 13.0338541666667  C 5.44140625 13.1206597222222  5.40234375 13.2204861111111  5.40234375 13.3333333333333  C 5.40234375 13.4461805555556  5.44140625 13.5460069444444  5.51953125 13.6328125  L 7.23046875 15.5338541666667  C 7.30859375 15.6206597222222  7.3984375 15.6640625  7.5 15.6640625  C 7.6015625 15.6640625  7.69140625 15.6206597222222  7.76953125 15.5338541666667  L 10.5 12.5  L 13.23046875 15.5338541666667  C 13.30859375 15.6206597222222  13.3984375 15.6640625  13.5 15.6640625  Z M 20.44921875 0.611979166666667  C 20.81640625 1.01996527777778  21 1.51041666666667  21 2.08333333333333  L 21 17.9166666666667  C 21 18.4895833333333  20.81640625 18.9800347222222  20.44921875 19.3880208333333  C 20.08203125 19.7960069444444  19.640625 20  19.125 20  L 1.875 20  C 1.359375 20  0.91796875 19.7960069444444  0.55078125 19.3880208333333  C 0.18359375 18.9800347222222  0 18.4895833333333  0 17.9166666666667  L 0 2.08333333333333  C 0 1.51041666666667  0.18359375 1.01996527777778  0.55078125 0.611979166666667  C 0.91796875 0.203993055555554  1.359375 0  1.875 0  L 19.125 0  C 19.640625 0  20.08203125 0.203993055555554  20.44921875 0.611979166666667  Z " fill-rule="nonzero" fill="#000000" stroke="none" transform="matrix(1 0 0 1 749 85 )" />
  </g>
</svg>