<?xml version="1.0" encoding="utf-8"?>
<svg version="1.1" xmlns:xlink="http://www.w3.org/1999/xlink" width="12px" height="12px" viewBox="226 348.5  12 12" xmlns="http://www.w3.org/2000/svg">
  <path d="M 232 348.5  C 235.36 348.5  238 351.14  238 354.5  C 238 357.86  235.36 360.5  232 360.5  C 228.64 360.5  226 357.86  226 354.5  C 226 351.14  228.64 348.5  232 348.5  Z " fill-rule="nonzero" fill="#f0f0f0" stroke="none" />
  <path d="M 232 349  C 235.08 349  237.5 351.42  237.5 354.5  C 237.5 357.58  235.08 360  232 360  C 228.92 360  226.5 357.58  226.5 354.5  C 226.5 351.42  228.92 349  232 349  Z " stroke-width="1" stroke="#797979" fill="none" />
  <path d="M 232 357.5  C 230.32 357.5  229 356.18  229 354.5  C 229 352.82  230.32 351.5  232 351.5  C 233.68 351.5  235 352.82  235 354.5  C 235 356.18  233.68 357.5  232 357.5  " fill-rule="nonzero" fill="#797979" stroke="none" />
</svg>