<?xml version="1.0" encoding="utf-8"?>
<svg version="1.1" xmlns:xlink="http://www.w3.org/1999/xlink" width="341px" height="154px" xmlns="http://www.w3.org/2000/svg">
  <g transform="matrix(1 0 0 1 -224 -283 )">
    <path d="M 224 283  L 565 283  L 565 437  L 224 437  L 224 283  " fill-rule="nonzero" fill="#cccccc" stroke="none" />
    <path d="M 235 294  L 554 294  L 554 426  L 235 426  L 235 294  " fill-rule="nonzero" fill="#ffffff" stroke="none" />
    <path d="M 412.87 329.2  C 406.402 329.2  401.32 324.118  401.32 317.65  C 401.32 311.182  406.402 306.1  412.87 306.1  C 419.338 306.1  424.42 311.182  424.42 317.65  C 424.42 324.118  419.338 329.2  412.87 329.2  " fill-rule="nonzero" fill="#cccccc" stroke="none" />
    <path d="M 239 422  L 239 353.8  L 316.75 322.8  L 425.6 388.4  L 487.8 341.4  L 550 388.4  L 550 422  L 239 422  " fill-rule="nonzero" fill="#169bd5" stroke="none" />
  </g>
</svg>