<?xml version="1.0" encoding="utf-8"?>
<svg version="1.1" xmlns:xlink="http://www.w3.org/1999/xlink" width="12px" height="12px" viewBox="226 378.5  12 12" xmlns="http://www.w3.org/2000/svg">
  <path d="M 232 378.5  C 235.36 378.5  238 381.14  238 384.5  C 238 387.86  235.36 390.5  232 390.5  C 228.64 390.5  226 387.86  226 384.5  C 226 381.14  228.64 378.5  232 378.5  Z " fill-rule="nonzero" fill="#f0f0f0" stroke="none" />
  <path d="M 232 379  C 235.08 379  237.5 381.42  237.5 384.5  C 237.5 387.58  235.08 390  232 390  C 228.92 390  226.5 387.58  226.5 384.5  C 226.5 381.42  228.92 379  232 379  Z " stroke-width="1" stroke="#797979" fill="none" />
  <path d="M 232 387.5  C 230.32 387.5  229 386.18  229 384.5  C 229 382.82  230.32 381.5  232 381.5  C 233.68 381.5  235 382.82  235 384.5  C 235 386.18  233.68 387.5  232 387.5  " fill-rule="nonzero" fill="#797979" stroke="none" />
</svg>