<?xml version="1.0" encoding="utf-8"?>
<svg version="1.1" xmlns:xlink="http://www.w3.org/1999/xlink" width="12px" height="12px" viewBox="339 310.5  12 12" xmlns="http://www.w3.org/2000/svg">
  <path d="M 345 310.5  C 348.36 310.5  351 313.14  351 316.5  C 351 319.86  348.36 322.5  345 322.5  C 341.64 322.5  339 319.86  339 316.5  C 339 313.14  341.64 310.5  345 310.5  Z " fill-rule="nonzero" fill="#ffffff" stroke="none" />
  <path d="M 345 311  C 348.08 311  350.5 313.42  350.5 316.5  C 350.5 319.58  348.08 322  345 322  C 341.92 322  339.5 319.58  339.5 316.5  C 339.5 313.42  341.92 311  345 311  Z " stroke-width="1" stroke="#797979" fill="none" />
  <path d="M 345 319.5  C 343.32 319.5  342 318.18  342 316.5  C 342 314.82  343.32 313.5  345 313.5  C 346.68 313.5  348 314.82  348 316.5  C 348 318.18  346.68 319.5  345 319.5  " fill-rule="nonzero" fill="#797979" stroke="none" />
</svg>