<?xml version="1.0" encoding="utf-8"?>
<svg version="1.1" xmlns:xlink="http://www.w3.org/1999/xlink" width="12px" height="12px" viewBox="441 310.5  12 12" xmlns="http://www.w3.org/2000/svg">
  <path d="M 447 310.5  C 450.36 310.5  453 313.14  453 316.5  C 453 319.86  450.36 322.5  447 322.5  C 443.64 322.5  441 319.86  441 316.5  C 441 313.14  443.64 310.5  447 310.5  Z " fill-rule="nonzero" fill="#f0f0f0" stroke="none" />
  <path d="M 447 311  C 450.08 311  452.5 313.42  452.5 316.5  C 452.5 319.58  450.08 322  447 322  C 443.92 322  441.5 319.58  441.5 316.5  C 441.5 313.42  443.92 311  447 311  Z " stroke-width="1" stroke="#797979" fill="none" />
  <path d="M 447 319.5  C 445.32 319.5  444 318.18  444 316.5  C 444 314.82  445.32 313.5  447 313.5  C 448.68 313.5  450 314.82  450 316.5  C 450 318.18  448.68 319.5  447 319.5  " fill-rule="nonzero" fill="#797979" stroke="none" />
</svg>