<?xml version="1.0" encoding="utf-8"?>
<svg version="1.1" xmlns:xlink="http://www.w3.org/1999/xlink" width="12px" height="12px" viewBox="338 441.5  12 12" xmlns="http://www.w3.org/2000/svg">
  <path d="M 344 441.5  C 347.36 441.5  350 444.14  350 447.5  C 350 450.86  347.36 453.5  344 453.5  C 340.64 453.5  338 450.86  338 447.5  C 338 444.14  340.64 441.5  344 441.5  Z " fill-rule="nonzero" fill="#f0f0f0" stroke="none" />
  <path d="M 344 442  C 347.08 442  349.5 444.42  349.5 447.5  C 349.5 450.58  347.08 453  344 453  C 340.92 453  338.5 450.58  338.5 447.5  C 338.5 444.42  340.92 442  344 442  Z " stroke-width="1" stroke="#797979" fill="none" />
  <path d="M 344 450.5  C 342.32 450.5  341 449.18  341 447.5  C 341 445.82  342.32 444.5  344 444.5  C 345.68 444.5  347 445.82  347 447.5  C 347 449.18  345.68 450.5  344 450.5  " fill-rule="nonzero" fill="#797979" stroke="none" />
</svg>