<?xml version="1.0" encoding="utf-8"?>
<svg version="1.1" xmlns:xlink="http://www.w3.org/1999/xlink" width="12px" height="12px" viewBox="236 441.5  12 12" xmlns="http://www.w3.org/2000/svg">
  <path d="M 242 441.5  C 245.36 441.5  248 444.14  248 447.5  C 248 450.86  245.36 453.5  242 453.5  C 238.64 453.5  236 450.86  236 447.5  C 236 444.14  238.64 441.5  242 441.5  Z " fill-rule="nonzero" fill="#f0f0f0" stroke="none" />
  <path d="M 242 442  C 245.08 442  247.5 444.42  247.5 447.5  C 247.5 450.58  245.08 453  242 453  C 238.92 453  236.5 450.58  236.5 447.5  C 236.5 444.42  238.92 442  242 442  Z " stroke-width="1" stroke="#797979" fill="none" />
  <path d="M 242 450.5  C 240.32 450.5  239 449.18  239 447.5  C 239 445.82  240.32 444.5  242 444.5  C 243.68 444.5  245 445.82  245 447.5  C 245 449.18  243.68 450.5  242 450.5  " fill-rule="nonzero" fill="#797979" stroke="none" />
</svg>