<?xml version="1.0" encoding="utf-8"?>
<svg version="1.1" xmlns:xlink="http://www.w3.org/1999/xlink" width="12px" height="12px" viewBox="338 289.5  12 12" xmlns="http://www.w3.org/2000/svg">
  <path d="M 344 289.5  C 347.36 289.5  350 292.14  350 295.5  C 350 298.86  347.36 301.5  344 301.5  C 340.64 301.5  338 298.86  338 295.5  C 338 292.14  340.64 289.5  344 289.5  Z " fill-rule="nonzero" fill="#ffffff" stroke="none" />
  <path d="M 344 290  C 347.08 290  349.5 292.42  349.5 295.5  C 349.5 298.58  347.08 301  344 301  C 340.92 301  338.5 298.58  338.5 295.5  C 338.5 292.42  340.92 290  344 290  Z " stroke-width="1" stroke="#797979" fill="none" />
  <path d="M 344 298.5  C 342.32 298.5  341 297.18  341 295.5  C 341 293.82  342.32 292.5  344 292.5  C 345.68 292.5  347 293.82  347 295.5  C 347 297.18  345.68 298.5  344 298.5  " fill-rule="nonzero" fill="#797979" stroke="none" />
</svg>