<?xml version="1.0" encoding="utf-8"?>
<svg version="1.1" xmlns:xlink="http://www.w3.org/1999/xlink" width="12px" height="12px" viewBox="328 279.5  12 12" xmlns="http://www.w3.org/2000/svg">
  <path d="M 334 279.5  C 337.36 279.5  340 282.14  340 285.5  C 340 288.86  337.36 291.5  334 291.5  C 330.64 291.5  328 288.86  328 285.5  C 328 282.14  330.64 279.5  334 279.5  Z " fill-rule="nonzero" fill="#ffffff" stroke="none" />
  <path d="M 334 280  C 337.08 280  339.5 282.42  339.5 285.5  C 339.5 288.58  337.08 291  334 291  C 330.92 291  328.5 288.58  328.5 285.5  C 328.5 282.42  330.92 280  334 280  Z " stroke-width="1" stroke="#797979" fill="none" />
  <path d="M 334 288.5  C 332.32 288.5  331 287.18  331 285.5  C 331 283.82  332.32 282.5  334 282.5  C 335.68 282.5  337 283.82  337 285.5  C 337 287.18  335.68 288.5  334 288.5  " fill-rule="nonzero" fill="#797979" stroke="none" />
</svg>