<?xml version="1.0" encoding="utf-8"?>
<svg version="1.1" xmlns:xlink="http://www.w3.org/1999/xlink" width="12px" height="12px" viewBox="226 279.5  12 12" xmlns="http://www.w3.org/2000/svg">
  <path d="M 232 279.5  C 235.36 279.5  238 282.14  238 285.5  C 238 288.86  235.36 291.5  232 291.5  C 228.64 291.5  226 288.86  226 285.5  C 226 282.14  228.64 279.5  232 279.5  Z " fill-rule="nonzero" fill="#f0f0f0" stroke="none" />
  <path d="M 232 280  C 235.08 280  237.5 282.42  237.5 285.5  C 237.5 288.58  235.08 291  232 291  C 228.92 291  226.5 288.58  226.5 285.5  C 226.5 282.42  228.92 280  232 280  Z " stroke-width="1" stroke="#797979" fill="none" />
  <path d="M 232 288.5  C 230.32 288.5  229 287.18  229 285.5  C 229 283.82  230.32 282.5  232 282.5  C 233.68 282.5  235 283.82  235 285.5  C 235 287.18  233.68 288.5  232 288.5  " fill-rule="nonzero" fill="#797979" stroke="none" />
</svg>