<?xml version="1.0" encoding="utf-8"?>
<svg version="1.1" xmlns:xlink="http://www.w3.org/1999/xlink" width="12px" height="12px" viewBox="328 431.5  12 12" xmlns="http://www.w3.org/2000/svg">
  <path d="M 334 431.5  C 337.36 431.5  340 434.14  340 437.5  C 340 440.86  337.36 443.5  334 443.5  C 330.64 443.5  328 440.86  328 437.5  C 328 434.14  330.64 431.5  334 431.5  Z " fill-rule="nonzero" fill="#ffffff" stroke="none" />
  <path d="M 334 432  C 337.08 432  339.5 434.42  339.5 437.5  C 339.5 440.58  337.08 443  334 443  C 330.92 443  328.5 440.58  328.5 437.5  C 328.5 434.42  330.92 432  334 432  Z " stroke-width="1" stroke="#797979" fill="none" />
  <path d="M 334 440.5  C 332.32 440.5  331 439.18  331 437.5  C 331 435.82  332.32 434.5  334 434.5  C 335.68 434.5  337 435.82  337 437.5  C 337 439.18  335.68 440.5  334 440.5  " fill-rule="nonzero" fill="#797979" stroke="none" />
</svg>