<?xml version="1.0" encoding="utf-8"?>
<svg version="1.1" xmlns:xlink="http://www.w3.org/1999/xlink" width="26px" height="32px" xmlns="http://www.w3.org/2000/svg">
  <g transform="matrix(1 0 0 1 -396 -329 )">
    <path d="M 26 4.56575682382134  C 26 4.90984284532671  25.8410553410553 5.20760959470637  25.523166023166 5.4590570719603  L 12.1969111969112 16  L 25.523166023166 26.5409429280397  C 25.8410553410553 26.7923904052936  26 27.0901571546733  26 27.4342431761787  C 26 27.778329197684  25.8410553410553 28.0760959470637  25.523166023166 28.3275434243176  L 21.3571428571429 31.6228287841191  C 21.0392535392535 31.874276261373  20.6628056628057 32  20.2277992277992 32  C 19.7927927927928 32  19.4163449163449 31.874276261373  19.0984555984556 31.6228287841191  L 0.476833976833977 16.893300248139  C 0.158944658944659 16.641852770885  0 16.3440860215054  0 16  C 0 15.6559139784946  0.158944658944659 15.358147229115  0.476833976833977 15.106699751861  L 19.0984555984556 0.377171215880892  C 19.4163449163449 0.125723738626963  19.7927927927928 0  20.2277992277992 0  C 20.6628056628057 0  21.0392535392535 0.125723738626963  21.3571428571429 0.377171215880892  L 25.523166023166 3.67245657568238  C 25.8410553410553 3.92390405293631  26 4.22167080231596  26 4.56575682382134  Z " fill-rule="nonzero" fill="#000000" stroke="none" transform="matrix(1 0 0 1 396 329 )" />
  </g>
</svg>