<?xml version="1.0" encoding="utf-8"?>
<svg version="1.1" xmlns:xlink="http://www.w3.org/1999/xlink" width="26px" height="31px" xmlns="http://www.w3.org/2000/svg">
  <g transform="matrix(1 0 0 1 -396 -277 )">
    <path d="M 26 15.5  C 26 15.8333333333333  25.8410553410553 16.1217948717949  25.523166023166 16.3653846153846  L 6.9015444015444 30.6346153846154  C 6.58365508365508 30.8782051282051  6.20720720720721 31  5.77220077220077 31  C 5.33719433719434 31  4.96074646074646 30.8782051282051  4.64285714285714 30.6346153846154  L 0.476833976833977 27.4423076923077  C 0.158944658944659 27.1987179487179  0 26.9102564102564  0 26.5769230769231  C 0 26.2435897435897  0.158944658944659 25.9551282051282  0.476833976833977 25.7115384615385  L 13.8030888030888 15.5  L 0.476833976833977 5.28846153846154  C 0.158944658944659 5.04487179487179  0 4.75641025641025  0 4.42307692307692  C 0 4.08974358974359  0.158944658944659 3.80128205128205  0.476833976833977 3.55769230769231  L 4.64285714285714 0.365384615384615  C 4.96074646074646 0.12179487179487  5.33719433719434 0  5.77220077220077 0  C 6.20720720720721 0  6.58365508365508 0.12179487179487  6.9015444015444 0.365384615384615  L 25.523166023166 14.6346153846154  C 25.8410553410553 14.8782051282051  26 15.1666666666667  26 15.5  Z " fill-rule="nonzero" fill="#000000" stroke="none" transform="matrix(1 0 0 1 396 277 )" />
  </g>
</svg>