<?xml version="1.0" encoding="utf-8"?>
<svg version="1.1" xmlns:xlink="http://www.w3.org/1999/xlink" width="12px" height="16px" xmlns="http://www.w3.org/2000/svg">
  <g transform="matrix(1 0 0 1 -492 -293 )">
    <path d="M 9.3515625 9.13541666666667  C 9.45052083333333 9.00347222222222  9.5 8.84722222222222  9.5 8.66666666666667  L 9.5 7.33333333333333  C 9.5 7.15277777777778  9.45052083333333 6.99652777777778  9.3515625 6.86458333333333  C 9.25260416666667 6.73263888888889  9.13541666666667 6.66666666666667  9 6.66666666666667  L 7 6.66666666666667  L 7 4  C 7 3.81944444444444  6.95052083333333 3.66319444444444  6.8515625 3.53125  C 6.75260416666667 3.39930555555556  6.63541666666667 3.33333333333333  6.5 3.33333333333333  L 5.5 3.33333333333333  C 5.36458333333333 3.33333333333333  5.24739583333333 3.39930555555556  5.1484375 3.53125  C 5.04947916666667 3.66319444444444  5 3.81944444444444  5 4  L 5 6.66666666666667  L 3 6.66666666666667  C 2.86458333333333 6.66666666666667  2.74739583333333 6.73263888888889  2.6484375 6.86458333333333  C 2.54947916666667 6.99652777777778  2.5 7.15277777777778  2.5 7.33333333333333  L 2.5 8.66666666666667  C 2.5 8.84722222222222  2.54947916666667 9.00347222222222  2.6484375 9.13541666666667  C 2.74739583333333 9.26736111111111  2.86458333333333 9.33333333333333  3 9.33333333333333  L 5 9.33333333333333  L 5 12  C 5 12.1805555555556  5.04947916666667 12.3368055555556  5.1484375 12.46875  C 5.24739583333333 12.6006944444444  5.36458333333333 12.6666666666667  5.5 12.6666666666667  L 6.5 12.6666666666667  C 6.63541666666667 12.6666666666667  6.75260416666667 12.6006944444444  6.8515625 12.46875  C 6.95052083333333 12.3368055555556  7 12.1805555555556  7 12  L 7 9.33333333333333  L 9 9.33333333333333  C 9.13541666666667 9.33333333333333  9.25260416666667 9.26736111111111  9.3515625 9.13541666666667  Z M 11.1953125 3.984375  C 11.7317708333333 5.21006944444444  12 6.54861111111111  12 8  C 12 9.45138888888889  11.7317708333333 10.7899305555556  11.1953125 12.015625  C 10.6588541666667 13.2413194444444  9.93098958333333 14.2118055555556  9.01171875 14.9270833333333  C 8.09244791666667 15.6423611111111  7.08854166666667 16  6 16  C 4.91145833333333 16  3.90755208333333 15.6423611111111  2.98828125 14.9270833333333  C 2.06901041666667 14.2118055555556  1.34114583333333 13.2413194444444  0.8046875 12.015625  C 0.268229166666667 10.7899305555556  0 9.45138888888889  0 8  C 0 6.54861111111111  0.268229166666667 5.21006944444444  0.8046875 3.984375  C 1.34114583333333 2.75868055555556  2.06901041666667 1.78819444444444  2.98828125 1.07291666666667  C 3.90755208333333 0.357638888888888  4.91145833333333 0  6 0  C 7.08854166666667 0  8.09244791666667 0.357638888888888  9.01171875 1.07291666666667  C 9.93098958333333 1.78819444444444  10.6588541666667 2.75868055555556  11.1953125 3.984375  Z " fill-rule="nonzero" fill="#000000" stroke="none" transform="matrix(1 0 0 1 492 293 )" />
  </g>
</svg>