<?xml version="1.0" encoding="utf-8"?>
<svg version="1.1" xmlns:xlink="http://www.w3.org/1999/xlink" width="12px" height="12px" viewBox="222 308.5  12 12" xmlns="http://www.w3.org/2000/svg">
  <path d="M 228 308.5  C 231.36 308.5  234 311.14  234 314.5  C 234 317.86  231.36 320.5  228 320.5  C 224.64 320.5  222 317.86  222 314.5  C 222 311.14  224.64 308.5  228 308.5  Z " fill-rule="nonzero" fill="#f0f0f0" stroke="none" />
  <path d="M 228 309  C 231.08 309  233.5 311.42  233.5 314.5  C 233.5 317.58  231.08 320  228 320  C 224.92 320  222.5 317.58  222.5 314.5  C 222.5 311.42  224.92 309  228 309  Z " stroke-width="1" stroke="#797979" fill="none" />
  <path d="M 228 317.5  C 226.32 317.5  225 316.18  225 314.5  C 225 312.82  226.32 311.5  228 311.5  C 229.68 311.5  231 312.82  231 314.5  C 231 316.18  229.68 317.5  228 317.5  " fill-rule="nonzero" fill="#797979" stroke="none" />
</svg>