<?xml version="1.0" encoding="utf-8"?>
<svg version="1.1" xmlns:xlink="http://www.w3.org/1999/xlink" width="24px" height="16px" xmlns="http://www.w3.org/2000/svg">
  <g transform="matrix(1 0 0 1 -202 -348 )">
    <path d="M 24 3.54782608695652  C 24 3.82093397745572  23.9057071960298 4.05539452495974  23.7171215880893 4.2512077294686  L 12.6699751861042 15.7062801932367  C 12.4813895781638 15.9020933977456  12.258064516129 16  12 16  C 11.741935483871 16  11.5186104218362 15.9020933977456  11.3300248138958 15.7062801932367  L 0.28287841191067 4.2512077294686  C 0.0942928039702235 4.05539452495974  0 3.82093397745572  0 3.54782608695652  C 0 3.27471819645733  0.0942928039702235 3.0402576489533  0.28287841191067 2.84444444444445  L 2.75434243176179 0.293719806763285  C 2.94292803970223 0.0979066022544277  3.16625310173697 0  3.424317617866 0  C 3.68238213399504 0  3.90570719602978 0.0979066022544277  4.09429280397022 0.293719806763285  L 12 8.5024154589372  L 19.9057071960298 0.293719806763285  C 20.0942928039702 0.0979066022544277  20.317617866005 0  20.575682382134 0  C 20.833746898263 0  21.0570719602978 0.0979066022544277  21.2456575682382 0.293719806763285  L 23.7171215880893 2.84444444444445  C 23.9057071960298 3.0402576489533  24 3.27471819645733  24 3.54782608695652  Z " fill-rule="nonzero" fill="#000000" stroke="none" transform="matrix(1 0 0 1 202 348 )" />
  </g>
</svg>