<?xml version="1.0" encoding="utf-8"?>
<svg version="1.1" xmlns:xlink="http://www.w3.org/1999/xlink" width="259px" height="121px" xmlns="http://www.w3.org/2000/svg">
  <g transform="matrix(1 0 0 1 -220 -517 )">
    <path d="M 220 517  L 479 517  L 479 638  L 220 638  L 220 517  " fill-rule="nonzero" fill="#cccccc" stroke="none" />
    <path d="M 228 525  L 471 525  L 471 630  L 228 630  L 228 525  " fill-rule="nonzero" fill="#ffffff" stroke="none" />
    <path d="M 363.755 553.3  C 358.673 553.3  354.68 549.307  354.68 544.225  C 354.68 539.143  358.673 535.15  363.755 535.15  C 368.837 535.15  372.83 539.143  372.83 544.225  C 372.83 549.307  368.837 553.3  363.755 553.3  " fill-rule="nonzero" fill="#cccccc" stroke="none" />
    <path d="M 231 627  L 231 572.55  L 290.25 547.8  L 373.2 599.249420849421  L 420.6 562.65  L 468 599.249420849421  L 468 627  L 231 627  " fill-rule="nonzero" fill="#169bd5" stroke="none" />
  </g>
</svg>