<?xml version="1.0" encoding="utf-8"?>
<svg version="1.1" xmlns:xlink="http://www.w3.org/1999/xlink" width="7px" height="28px" xmlns="http://www.w3.org/2000/svg">
  <g transform="matrix(1 0 0 1 -579 -274 )">
    <path d="M 6.7 20.7407407407407  C 6.82727272727273 20.7407407407407  6.91515151515152 20.8433641975309  6.96363636363636 21.0486111111111  C 7.01212121212121 21.2538580246914  6.9969696969697 21.4429012345679  6.91818181818182 21.6157407407407  L 3.73636363636364 27.837962962963  C 3.67575757575758 27.945987654321  3.60606060606061 28  3.52727272727273 28  C 3.44242424242424 28  3.36969696969697 27.945987654321  3.30909090909091 27.837962962963  L 0.0818181818181818 21.6157407407407  C 0.00303030303030302 21.4429012345679  -0.0121212121212121 21.2538580246914  0.0363636363636364 21.0486111111111  C 0.0909090909090909 20.8433641975309  0.178787878787879 20.7407407407407  0.3 20.7407407407407  L 2.33636363636364 20.7407407407407  L 2.33636363636364 0.518518518518518  C 2.33636363636364 0.367283950617281  2.36363636363636 0.243055555555556  2.41818181818182 0.145833333333334  C 2.47272727272727 0.0486111111111125  2.54242424242424 0  2.62727272727273 0  L 4.37272727272727 0  C 4.45757575757576 0  4.52727272727273 0.0486111111111125  4.58181818181818 0.145833333333334  C 4.63636363636364 0.243055555555556  4.66363636363636 0.367283950617281  4.66363636363636 0.518518518518518  L 4.66363636363636 20.7407407407407  L 6.7 20.7407407407407  Z " fill-rule="nonzero" fill="#000000" stroke="none" transform="matrix(1 0 0 1 579 274 )" />
  </g>
</svg>