<?xml version="1.0" encoding="utf-8"?>
<svg version="1.1" xmlns:xlink="http://www.w3.org/1999/xlink" width="7px" height="25px" xmlns="http://www.w3.org/2000/svg">
  <g transform="matrix(1 0 0 1 -579 -228 )">
    <path d="M 6.7 18.5185185185185  C 6.82727272727273 18.5185185185185  6.91515151515152 18.6101466049383  6.96363636363636 18.7934027777778  C 7.01212121212121 18.9766589506173  6.9969696969697 19.1454475308642  6.91818181818182 19.2997685185185  L 3.73636363636364 24.8553240740741  C 3.67575757575758 24.951774691358  3.60606060606061 25  3.52727272727273 25  C 3.44242424242424 25  3.36969696969697 24.951774691358  3.30909090909091 24.8553240740741  L 0.0818181818181818 19.2997685185185  C 0.00303030303030302 19.1454475308642  -0.0121212121212121 18.9766589506173  0.0363636363636364 18.7934027777778  C 0.0909090909090909 18.6101466049383  0.178787878787879 18.5185185185185  0.3 18.5185185185185  L 2.33636363636364 18.5185185185185  L 2.33636363636364 0.462962962962962  C 2.33636363636364 0.327932098765429  2.36363636363636 0.21701388888889  2.41818181818182 0.130208333333334  C 2.47272727272727 0.043402777777779  2.54242424242424 0  2.62727272727273 0  L 4.37272727272727 0  C 4.45757575757576 0  4.52727272727273 0.043402777777779  4.58181818181818 0.130208333333334  C 4.63636363636364 0.21701388888889  4.66363636363636 0.327932098765429  4.66363636363636 0.462962962962962  L 4.66363636363636 18.5185185185185  L 6.7 18.5185185185185  Z " fill-rule="nonzero" fill="#000000" stroke="none" transform="matrix(1 0 0 1 579 228 )" />
  </g>
</svg>