<?xml version="1.0" encoding="utf-8"?>
<svg version="1.1" xmlns:xlink="http://www.w3.org/1999/xlink" width="9px" height="28px" xmlns="http://www.w3.org/2000/svg">
  <g transform="matrix(1 0 0 1 -560 -274 )">
    <path d="M 8.8948051948052 6.38425925925926  C 8.9961038961039 6.5570987654321  9.01558441558442 6.74614197530864  8.95324675324675 6.95138888888889  C 8.88311688311688 7.15663580246913  8.77012987012987 7.25925925925926  8.61428571428571 7.25925925925926  L 6 7.25925925925926  L 6 27.4814814814815  C 5.9961038961039 27.6327160493827  5.96103896103896 27.7569444444444  5.89090909090909 27.8541666666667  C 5.82077922077922 27.9513888888889  5.73116883116883 28  5.62207792207792 28  L 3.37792207792208 28  C 3.26883116883117 28  3.17922077922078 27.9513888888889  3.10909090909091 27.8541666666667  C 3.03896103896104 27.7569444444444  3.0038961038961 27.6327160493827  3 27.4814814814815  L 3 7.25925925925926  L 0.385714285714286 7.25925925925926  C 0.222077922077922 7.25925925925926  0.109090909090909 7.15663580246913  0.0467532467532468 6.95138888888889  C -0.0155844155844156 6.74614197530864  0.00389610389610389 6.5570987654321  0.105194805194805 6.38425925925926  L 4.1961038961039 0.162037037037039  C 4.27402597402597 0.0540123456790118  4.36363636363636 0  4.46493506493507 0  C 4.57402597402597 0  4.66753246753247 0.0540123456790118  4.74545454545455 0.162037037037039  L 8.8948051948052 6.38425925925926  Z " fill-rule="nonzero" fill="#000000" stroke="none" transform="matrix(1 0 0 1 560 274 )" />
  </g>
</svg>