<?xml version="1.0" encoding="utf-8"?>
<svg version="1.1" xmlns:xlink="http://www.w3.org/1999/xlink" width="10px" height="15px" xmlns="http://www.w3.org/2000/svg">
  <g transform="matrix(1 0 0 1 -618 -265 )">
    <path d="M 2.77777777777778 7.5  L 9.16666666666667 7.5  C 9.39814814814815 7.5  9.59490740740741 7.59114583333333  9.75694444444444 7.7734375  C 9.91898148148148 7.95572916666667  10 8.17708333333333  10 8.4375  L 10 14.0625  C 10 14.3229166666667  9.91898148148148 14.5442708333333  9.75694444444444 14.7265625  C 9.59490740740741 14.9088541666667  9.39814814814815 15  9.16666666666667 15  L 0.833333333333333 15  C 0.601851851851852 15  0.405092592592593 14.9088541666667  0.243055555555556 14.7265625  C 0.0810185185185185 14.5442708333333  0 14.3229166666667  0 14.0625  L 0 8.4375  C 0 8.17708333333333  0.0810185185185185 7.95572916666667  0.243055555555556 7.7734375  C 0.405092592592593 7.59114583333333  0.601851851851852 7.5  0.833333333333333 7.5  L 1.11111111111111 7.5  L 1.11111111111111 4.375  C 1.11111111111111 3.17057291666667  1.4916087962963 2.14029947916666  2.25260416666667 1.2841796875  C 3.01359953703704 0.428059895833334  3.92939814814815 0  5 0  C 6.07060185185185 0  6.98640046296296 0.428059895833334  7.74739583333333 1.2841796875  C 8.5083912037037 2.14029947916666  8.88888888888889 3.17057291666667  8.88888888888889 4.375  C 8.88888888888889 4.54427083333333  8.83391203703704 4.69075520833333  8.72395833333333 4.814453125  C 8.61400462962963 4.93815104166666  8.4837962962963 5  8.33333333333333 5  L 7.77777777777778 5  C 7.62731481481481 5  7.49710648148148 4.93815104166666  7.38715277777778 4.814453125  C 7.27719907407407 4.69075520833333  7.22222222222222 4.54427083333333  7.22222222222222 4.375  C 7.22222222222222 3.68489583333333  7.00520833333333 3.095703125  6.57118055555556 2.607421875  C 6.13715277777778 2.119140625  5.61342592592593 1.875  5 1.875  C 4.38657407407407 1.875  3.86284722222222 2.119140625  3.42881944444444 2.607421875  C 2.99479166666667 3.095703125  2.77777777777778 3.68489583333333  2.77777777777778 4.375  L 2.77777777777778 7.5  Z " fill-rule="nonzero" fill="#000000" stroke="none" transform="matrix(1 0 0 1 618 265 )" />
  </g>
</svg>