<?xml version="1.0" encoding="utf-8"?>
<svg version="1.1" xmlns:xlink="http://www.w3.org/1999/xlink" width="14px" height="7px" xmlns="http://www.w3.org/2000/svg">
  <g transform="matrix(1 0 0 1 -158 -198 )">
    <path d="M 13.8597194388778 0.721649484536082  C 13.9532398129593 0.801832760595645  14 0.894043528064146  14 0.998281786941581  C 14 1.10252004581901  13.9532398129593 1.19473081328751  13.8597194388778 1.27491408934708  L 7.32264529058116 6.87972508591065  C 7.22912491649967 6.95990836197022  7.12157648630595 7  7 7  C 6.87842351369406 7  6.77087508350033 6.95990836197022  6.67735470941884 6.87972508591065  L 0.140280561122244 1.27491408934708  C 0.0467601870407483 1.19473081328751  0 1.10252004581901  0 0.998281786941581  C 0 0.894043528064146  0.0467601870407483 0.801832760595645  0.140280561122244 0.721649484536082  L 0.841683366733467 0.120274914089347  C 0.935203740814964 0.0400916380297814  1.04275217100868 0  1.16432865731463 0  C 1.28590514362057 0  1.3934535738143 0.0400916380297814  1.48697394789579 0.120274914089347  L 7 4.84707903780069  L 12.5130260521042 0.120274914089347  C 12.6065464261857 0.0400916380297814  12.7140948563794 0  12.8356713426854 0  C 12.9572478289913 0  13.064796259185 0.0400916380297814  13.1583166332665 0.120274914089347  L 13.8597194388778 0.721649484536082  Z " fill-rule="nonzero" fill="#aaaaaa" stroke="none" transform="matrix(1 0 0 1 158 198 )" />
  </g>
</svg>