<?xml version="1.0" encoding="utf-8"?>
<svg version="1.1" xmlns:xlink="http://www.w3.org/1999/xlink" width="12px" height="12px" viewBox="50 818.5  12 12" xmlns="http://www.w3.org/2000/svg">
  <path d="M 56 818.5  C 59.36 818.5  62 821.14  62 824.5  C 62 827.86  59.36 830.5  56 830.5  C 52.64 830.5  50 827.86  50 824.5  C 50 821.14  52.64 818.5  56 818.5  Z " fill-rule="nonzero" fill="#f0f0f0" stroke="none" />
  <path d="M 56 819  C 59.08 819  61.5 821.42  61.5 824.5  C 61.5 827.58  59.08 830  56 830  C 52.92 830  50.5 827.58  50.5 824.5  C 50.5 821.42  52.92 819  56 819  Z " stroke-width="1" stroke="#797979" fill="none" />
  <path d="M 56 827.5  C 54.32 827.5  53 826.18  53 824.5  C 53 822.82  54.32 821.5  56 821.5  C 57.68 821.5  59 822.82  59 824.5  C 59 826.18  57.68 827.5  56 827.5  " fill-rule="nonzero" fill="#797979" stroke="none" />
</svg>