<?xml version="1.0" encoding="utf-8"?>
<svg version="1.1" xmlns:xlink="http://www.w3.org/1999/xlink" width="56px" height="57px" xmlns="http://www.w3.org/2000/svg">
  <g transform="matrix(1 0 0 1 -16 -171 )">
    <path d="M 16 171  L 72 171  L 72 228  L 16 228  L 16 171  " fill-rule="nonzero" fill="#cccccc" stroke="none" />
    <path d="M 20 175  L 68 175  L 68 224  L 20 224  L 20 175  " fill-rule="nonzero" fill="#ffffff" stroke="none" />
    <path d="M 49.32 187.95  C 46.968 187.95  45.12 186.102  45.12 183.75  C 45.12 181.398  46.968 179.55  49.32 179.55  C 51.672 179.55  53.52 181.398  53.52 183.75  C 53.52 186.102  51.672 187.95  49.32 187.95  " fill-rule="nonzero" fill="#cccccc" stroke="none" />
    <path d="M 22 223  L 22 197.7  L 33.25 186.2  L 49 195.4  L 58 193.1  L 67 195.4  L 67 223  L 22 223  " fill-rule="nonzero" fill="#169bd5" stroke="none" />
  </g>
</svg>