<?xml version="1.0" encoding="utf-8"?>
<svg version="1.1" xmlns:xlink="http://www.w3.org/1999/xlink" width="113px" height="68px" xmlns="http://www.w3.org/2000/svg">
  <g transform="matrix(1 0 0 1 -16 -320 )">
    <path d="M 16 320  L 129 320  L 129 388  L 16 388  L 16 320  " fill-rule="nonzero" fill="#cccccc" stroke="none" />
    <path d="M 21 325  L 124 325  L 124 383  L 21 383  L 21 325  " fill-rule="nonzero" fill="#ffffff" stroke="none" />
    <path d="M 79.86 340.4  C 77.004 340.4  74.76 338.156  74.76 335.3  C 74.76 332.444  77.004 330.2  79.86 330.2  C 82.716 330.2  84.96 332.444  84.96 335.3  C 84.96 338.156  82.716 340.4  79.86 340.4  " fill-rule="nonzero" fill="#cccccc" stroke="none" />
    <path d="M 23 382  L 23 351.75  L 48 338  L 83 362.141592920354  L 103 346.25  L 123 362.141592920354  L 123 382  L 23 382  " fill-rule="nonzero" fill="#169bd5" stroke="none" />
  </g>
</svg>