<?xml version="1.0" encoding="utf-8"?>
<svg version="1.1" xmlns:xlink="http://www.w3.org/1999/xlink" width="26px" height="36px" xmlns="http://www.w3.org/2000/svg">
  <g transform="matrix(1 0 0 1 -579 -536 )">
    <path d="M 579 536  L 605 536  L 605 572  L 579 572  L 579 536  " fill-rule="nonzero" fill="#cccccc" stroke="none" />
    <path d="M 581 538  L 603 538  L 603 570  L 581 570  L 581 538  " fill-rule="nonzero" fill="#ffffff" stroke="none" />
    <path d="M 594.47 545.3  C 593.378 545.3  592.52 544.442  592.52 543.35  C 592.52 542.258  593.378 541.4  594.47 541.4  C 595.562 541.4  596.42 542.258  596.42 543.35  C 596.42 544.442  595.562 545.3  594.47 545.3  " fill-rule="nonzero" fill="#cccccc" stroke="none" />
    <path d="M 582 570  L 582 552.95  L 587.25 545.2  L 594.6 551.4  L 598.8 549.85  L 603 551.4  L 603 570  L 582 570  " fill-rule="nonzero" fill="#169bd5" stroke="none" />
  </g>
</svg>