<?xml version="1.0" encoding="utf-8"?>
<svg version="1.1" xmlns:xlink="http://www.w3.org/1999/xlink" width="33px" height="33px" xmlns="http://www.w3.org/2000/svg">
  <g transform="matrix(1 0 0 1 -534 -1171 )">
    <path d="M 25.56640625 13.75  C 25.56640625 14.1223958333333  25.4303385416667 14.4446614583333  25.158203125 14.716796875  L 16.091796875 23.783203125  C 15.8196614583333 24.0553385416667  15.4973958333333 24.19140625  15.125 24.19140625  C 14.7526041666667 24.19140625  14.4303385416667 24.0553385416667  14.158203125 23.783203125  L 7.841796875 17.466796875  C 7.56966145833333 17.1946614583333  7.43359375 16.8723958333333  7.43359375 16.5  C 7.43359375 16.1276041666667  7.56966145833333 15.8053385416667  7.841796875 15.533203125  L 10.033203125 13.341796875  C 10.3053385416667 13.0696614583333  10.6276041666667 12.93359375  11 12.93359375  C 11.3723958333333 12.93359375  11.6946614583333 13.0696614583333  11.966796875 13.341796875  L 15.125 16.5  L 21.033203125 10.591796875  C 21.3053385416667 10.3196614583333  21.6276041666667 10.18359375  22 10.18359375  C 22.3723958333333 10.18359375  22.6946614583333 10.3196614583333  22.966796875 10.591796875  L 25.158203125 12.783203125  C 25.4303385416667 13.0553385416667  25.56640625 13.3776041666667  25.56640625 13.75  Z M 26.619140625 22.365234375  C 27.6647135416667 20.5748697916667  28.1875 18.6197916666667  28.1875 16.5  C 28.1875 14.3802083333333  27.6647135416667 12.4251302083333  26.619140625 10.634765625  C 25.5735677083333 8.84440104166666  24.1555989583333 7.42643229166666  22.365234375 6.380859375  C 20.5748697916667 5.33528645833333  18.6197916666667 4.8125  16.5 4.8125  C 14.3802083333333 4.8125  12.4251302083333 5.33528645833333  10.634765625 6.380859375  C 8.84440104166667 7.42643229166666  7.42643229166667 8.84440104166666  6.380859375 10.634765625  C 5.33528645833333 12.4251302083333  4.8125 14.3802083333333  4.8125 16.5  C 4.8125 18.6197916666667  5.33528645833333 20.5748697916667  6.380859375 22.365234375  C 7.42643229166667 24.1555989583333  8.84440104166667 25.5735677083333  10.634765625 26.619140625  C 12.4251302083333 27.6647135416667  14.3802083333333 28.1875  16.5 28.1875  C 18.6197916666667 28.1875  20.5748697916667 27.6647135416667  22.365234375 26.619140625  C 24.1555989583333 25.5735677083333  25.5735677083333 24.1555989583333  26.619140625 22.365234375  Z M 30.787109375 8.2177734375  C 32.2623697916667 10.7457682291667  33 13.5065104166667  33 16.5  C 33 19.4934895833333  32.2623697916667 22.2542317708333  30.787109375 24.7822265625  C 29.3118489583333 27.3102213541667  27.3102213541667 29.3118489583333  24.7822265625 30.787109375  C 22.2542317708333 32.2623697916667  19.4934895833333 33  16.5 33  C 13.5065104166667 33  10.7457682291667 32.2623697916667  8.2177734375 30.787109375  C 5.68977864583333 29.3118489583333  3.68815104166667 27.3102213541667  2.212890625 24.7822265625  C 0.737630208333333 22.2542317708333  0 19.4934895833333  0 16.5  C 0 13.5065104166667  0.737630208333333 10.7457682291667  2.212890625 8.2177734375  C 3.68815104166667 5.68977864583333  5.68977864583333 3.68815104166666  8.2177734375 2.212890625  C 10.7457682291667 0.73763020833333  13.5065104166667 0  16.5 0  C 19.4934895833333 0  22.2542317708333 0.73763020833333  24.7822265625 2.212890625  C 27.3102213541667 3.68815104166666  29.3118489583333 5.68977864583333  30.787109375 8.2177734375  Z " fill-rule="nonzero" fill="#aaaaaa" stroke="none" transform="matrix(1 0 0 1 534 1171 )" />
  </g>
</svg>