<svg t="1587008498673" class="icon" viewBox="0 0 1024 1024" version="1.1" xmlns="http://www.w3.org/2000/svg" p-id="5121" width="200" height="200"><path d="M317.259446 484.916877h110.911839v56.745592h-110.911839v167.65743h180.554156v-56.745592h-123.808564v-54.166247h110.911839v-170.236775h-110.911839v-56.745592h123.808564v-56.745592h-180.554156z" fill="#C6000B" p-id="5122"></path><path d="M510.710327 147.02267c-201.188917 0-363.687657 162.498741-363.687657 363.687657s165.078086 363.687657 363.687657 366.267003c201.188917 0 366.267003-165.078086 366.267003-366.267003 0-201.188917-162.498741-363.687657-366.267003-363.687657z m2.579346 673.209068c-170.236776 0-309.521411-139.284635-309.521411-309.521411s139.284635-309.521411 309.521411-309.52141 309.521411 139.284635 309.52141 309.52141-139.284635 309.521411-309.52141 309.521411z" fill="#C6000B" p-id="5123"></path><path d="M526.186398 371.425693h126.387909v56.745592H541.662469v170.236775h110.911838v56.745592h-126.387909v54.166247h183.133501v-170.236776h-110.911839v-56.745592h110.911839v-167.65743h-183.133501z" fill="#C6000B" p-id="5124"></path></svg>