<?xml version="1.0" encoding="utf-8"?>
<svg version="1.1" xmlns:xlink="http://www.w3.org/1999/xlink" width="60px" height="51px" xmlns="http://www.w3.org/2000/svg">
  <defs>
    <filter x="215px" y="324px" width="60px" height="51px" filterUnits="userSpaceOnUse" id="filter29">
      <feOffset dx="0" dy="0" in="SourceAlpha" result="shadowOffsetInner" />
      <feGaussianBlur stdDeviation="2.5" in="shadowOffsetInner" result="shadowGaussian" />
      <feComposite in2="shadowGaussian" operator="atop" in="SourceAlpha" result="shadowComposite" />
      <feColorMatrix type="matrix" values="0 0 0 0 0  0 0 0 0 0  0 0 0 0 0  0 0 0 0.313725490196078 0  " in="shadowComposite" />
    </filter>
    <g id="widget30">
      <path d="M 13.0731707317073 15.7692307692308  L 5.19512195121951 15.7692307692308  L 20.390243902439 32.1544471153846  L 13.0731707317073 15.7692307692308  Z M 16.4878048780488 16  L 25 34.7908653846154  L 33.5121951219512 16  L 16.4878048780488 16  Z M 4.70731707317073 12.6153846153846  L 13.1463414634146 12.6153846153846  L 18.1219512195122 3.15384615384615  L 11.7317073170732 3.15384615384615  L 4.70731707317073 12.6153846153846  Z M 36.9268292682927 15.7692307692308  L 29.609756097561 32.1544471153846  L 44.8048780487805 15.7692307692308  L 36.9268292682927 15.7692307692308  Z M 21.6585365853659 3.15384615384615  L 16.6829268292683 13  L 33.3170731707317 13  L 28.3414634146341 3.15384615384615  L 21.6585365853659 3.15384615384615  Z M 31.8780487804878 3.15384615384615  L 36.8536585365854 12.6153846153846  L 45.2926829268293 12.6153846153846  L 38.2682926829268 3.15384615384615  L 31.8780487804878 3.15384615384615  Z M 39.0487804878049 0  C 39.5853658536585 0  40 0.213541666666664  40.2926829268293 0.640625  L 49.6585365853659 13.2560096153846  C 49.8861788617886 13.5516826923077  49.9918699186992 13.8925280448718  49.9756097560976 14.2785456730769  C 49.9593495934959 14.664563301282  49.8211382113821 14.9971955128205  49.5609756097561 15.2764423076923  L 26.1463414634146 40.5072115384615  C 25.8536585365854 40.8357371794872  25.4715447154472 41  25 41  C 24.5284552845528 41  24.1463414634146 40.8357371794872  23.8536585365854 40.5072115384615  L 0.439024390243903 15.2764423076923  C 0.178861788617886 14.9971955128205  0.040650406504065 14.664563301282  0.024390243902439 14.2785456730769  C 0.00813008130081301 13.8925280448718  0.113821138211382 13.5516826923077  0.341463414634146 13.2560096153846  L 9.70731707317073 0.640625  C 10 0.213541666666664  10.4146341463415 0  10.9512195121951 0  L 39.0487804878049 0  Z " fill-rule="nonzero" fill="#555555" stroke="none" transform="matrix(1 0 0 1 220 329 )" />
    </g>
  </defs>
  <g transform="matrix(1 0 0 1 -215 -324 )">
    <use xlink:href="#widget30" filter="url(#filter29)" />
    <use xlink:href="#widget30" />
  </g>
</svg>