<?xml version="1.0" encoding="utf-8"?>
<svg version="1.1" xmlns:xlink="http://www.w3.org/1999/xlink" width="60px" height="43px" xmlns="http://www.w3.org/2000/svg">
  <defs>
    <filter x="220px" y="474px" width="60px" height="43px" filterUnits="userSpaceOnUse" id="filter35">
      <feOffset dx="0" dy="0" in="SourceAlpha" result="shadowOffsetInner" />
      <feGaussianBlur stdDeviation="2.5" in="shadowOffsetInner" result="shadowGaussian" />
      <feComposite in2="shadowGaussian" operator="atop" in="SourceAlpha" result="shadowComposite" />
      <feColorMatrix type="matrix" values="0 0 0 0 0  0 0 0 0 0  0 0 0 0 0  0 0 0 0.313725490196078 0  " in="shadowComposite" />
    </filter>
    <g id="widget36">
      <path d="M 26.0416666666667 19.099609375  L 38.4982638888889 15.2109375  L 38.8888888888889 22  C 38.9467592592593 22.98828125  38.353587962963 23.9049479166667  37.109375 24.75  C 35.865162037037 25.5950520833333  34.1652199074074 26.2646484375  32.0095486111111 26.7587890625  C 29.8538773148148 27.2529296875  27.5173611111111 27.5  25 27.5  C 22.4826388888889 27.5  20.1461226851852 27.2529296875  17.9904513888889 26.7587890625  C 15.8347800925926 26.2646484375  14.134837962963 25.5950520833333  12.890625 24.75  C 11.646412037037 23.9049479166667  11.0532407407407 22.98828125  11.1111111111111 22  L 11.5017361111111 15.2109375  L 23.9583333333333 19.099609375  C 24.2766203703704 19.1998697916667  24.6238425925926 19.25  25 19.25  C 25.3761574074074 19.25  25.7233796296296 19.1998697916667  26.0416666666667 19.099609375  Z M 49.5225694444444 7.583984375  C 49.8408564814815 7.69856770833333  50 7.92057291666666  50 8.25  C 50 8.57942708333333  49.8408564814815 8.80143229166666  49.5225694444444 8.916015625  L 25.2170138888889 16.478515625  C 25.1591435185185 16.4928385416667  25.0868055555556 16.5  25 16.5  C 24.9131944444444 16.5  24.8408564814815 16.4928385416667  24.7829861111111 16.478515625  L 10.6336805555556 12.052734375  C 10.0115740740741 12.5397135416667  9.49797453703704 13.3382161458333  9.09288194444444 14.4482421875  C 8.68778935185185 15.5582682291667  8.44184027777778 16.8365885416667  8.35503472222222 18.283203125  C 9.26649305555556 18.798828125  9.72222222222222 19.5794270833333  9.72222222222222 20.625  C 9.72222222222222 21.61328125  9.30266203703704 22.3795572916667  8.46354166666667 22.923828125  L 9.72222222222222 32.2265625  C 9.75115740740741 32.4270833333333  9.69328703703704 32.6061197916667  9.54861111111111 32.763671875  C 9.41840277777778 32.9212239583333  9.24479166666667 33  9.02777777777778 33  L 4.86111111111111 33  C 4.64409722222222 33  4.47048611111111 32.9212239583333  4.34027777777778 32.763671875  C 4.19560185185185 32.6061197916667  4.13773148148148 32.4270833333333  4.16666666666667 32.2265625  L 5.42534722222222 22.923828125  C 4.58622685185185 22.3795572916667  4.16666666666667 21.61328125  4.16666666666667 20.625  C 4.16666666666667 19.5794270833333  4.63686342592593 18.7845052083333  5.57725694444444 18.240234375  C 5.73640046296296 15.275390625  6.4453125 12.912109375  7.70399305555556 11.150390625  L 0.477430555555556 8.916015625  C 0.159143518518519 8.80143229166666  0 8.57942708333333  0 8.25  C 0 7.92057291666666  0.159143518518519 7.69856770833333  0.477430555555556 7.583984375  L 24.7829861111111 0.0214843749999988  C 24.8408564814815 0.00716145833333171  24.9131944444444 0  25 0  C 25.0868055555556 0  25.1591435185185 0.00716145833333171  25.2170138888889 0.0214843749999988  L 49.5225694444444 7.583984375  Z " fill-rule="nonzero" fill="#f2f2f2" stroke="none" transform="matrix(1 0 0 1 225 479 )" />
    </g>
  </defs>
  <g transform="matrix(1 0 0 1 -220 -474 )">
    <use xlink:href="#widget36" filter="url(#filter35)" />
    <use xlink:href="#widget36" />
  </g>
</svg>