<?xml version="1.0" encoding="utf-8"?>
<svg version="1.1" xmlns:xlink="http://www.w3.org/1999/xlink" width="84px" height="59px" xmlns="http://www.w3.org/2000/svg">
  <defs>
    <filter x="1174px" y="356px" width="84px" height="59px" filterUnits="userSpaceOnUse" id="filter41">
      <feOffset dx="0" dy="0" in="SourceAlpha" result="shadowOffsetInner" />
      <feGaussianBlur stdDeviation="2.5" in="shadowOffsetInner" result="shadowGaussian" />
      <feComposite in2="shadowGaussian" operator="atop" in="SourceAlpha" result="shadowComposite" />
      <feColorMatrix type="matrix" values="0 0 0 0 0  0 0 0 0 0  0 0 0 0 0  0 0 0 0.313725490196078 0  " in="shadowComposite" />
    </filter>
    <g id="widget42">
      <path d="M 38.5416666666667 28.3600260416667  L 56.9774305555556 22.5859375  L 57.5555555555556 32.6666666666667  C 57.6412037037037 34.1341145833333  56.7633101851852 35.4952256944444  54.921875 36.75  C 53.0804398148148 38.0047743055556  50.564525462963 38.9990234375  47.3741319444444 39.7327473958333  C 44.1837384259259 40.4664713541667  40.7256944444444 40.8333333333333  37 40.8333333333333  C 33.2743055555556 40.8333333333333  29.8162615740741 40.4664713541667  26.6258680555556 39.7327473958333  C 23.435474537037 38.9990234375  20.9195601851852 38.0047743055556  19.078125 36.75  C 17.2366898148148 35.4952256944444  16.3587962962963 34.1341145833333  16.4444444444444 32.6666666666667  L 17.0225694444444 22.5859375  L 35.4583333333333 28.3600260416667  C 35.9293981481482 28.5088975694444  36.443287037037 28.5833333333333  37 28.5833333333333  C 37.556712962963 28.5833333333333  38.0706018518519 28.5088975694444  38.5416666666667 28.3600260416667  Z M 73.2934027777778 11.2610677083333  C 73.7644675925926 11.4312065972222  74 11.7608506944444  74 12.25  C 74 12.7391493055556  73.7644675925926 13.0687934027778  73.2934027777778 13.2389322916667  L 37.3211805555556 24.4680989583333  C 37.2355324074074 24.4893663194444  37.1284722222222 24.5  37 24.5  C 36.8715277777778 24.5  36.7644675925926 24.4893663194444  36.6788194444444 24.4680989583333  L 15.7378472222222 17.896484375  C 14.8171296296296 18.6195746527778  14.0570023148148 19.8052300347222  13.4574652777778 21.4534505208333  C 12.8579282407407 23.1016710069444  12.4939236111111 24.9997829861111  12.3654513888889 27.1477864583333  C 13.7144097222222 27.9134114583333  14.3888888888889 29.0724826388889  14.3888888888889 30.625  C 14.3888888888889 32.0924479166667  13.7679398148148 33.2302517361111  12.5260416666667 34.0384114583333  L 14.3888888888889 47.8515625  C 14.431712962963 48.1493055555556  14.3460648148148 48.4151475694445  14.1319444444444 48.6490885416667  C 13.9392361111111 48.8830295138889  13.6822916666667 49  13.3611111111111 49  L 7.19444444444444 49  C 6.87326388888889 49  6.61631944444444 48.8830295138889  6.42361111111111 48.6490885416667  C 6.20949074074074 48.4151475694445  6.12384259259259 48.1493055555556  6.16666666666667 47.8515625  L 8.02951388888889 34.0384114583333  C 6.78761574074074 33.2302517361111  6.16666666666667 32.0924479166667  6.16666666666667 30.625  C 6.16666666666667 29.0724826388889  6.86255787037037 27.8921440972222  8.25434027777778 27.083984375  C 8.48987268518519 22.681640625  9.5390625 19.1725260416667  11.4019097222222 16.556640625  L 0.706597222222222 13.2389322916667  C 0.235532407407407 13.0687934027778  0 12.7391493055556  0 12.25  C 0 11.7608506944444  0.235532407407407 11.4312065972222  0.706597222222222 11.2610677083333  L 36.6788194444444 0.0319010416666649  C 36.7644675925926 0.0106336805555531  36.8715277777778 0  37 0  C 37.1284722222222 0  37.2355324074074 0.0106336805555531  37.3211805555556 0.0319010416666649  L 73.2934027777778 11.2610677083333  Z " fill-rule="nonzero" fill="#f2f2f2" stroke="none" transform="matrix(1 0 0 1 1179 361 )" />
    </g>
  </defs>
  <g transform="matrix(1 0 0 1 -1174 -356 )">
    <use xlink:href="#widget42" filter="url(#filter41)" />
    <use xlink:href="#widget42" />
  </g>
</svg>