<?xml version="1.0" encoding="utf-8"?>
<svg version="1.1" xmlns:xlink="http://www.w3.org/1999/xlink" width="7px" height="6px" xmlns="http://www.w3.org/2000/svg">
  <g transform="matrix(1 0 0 1 -242 -38 )">
    <path d="M 245.5 38  C 247.46 38  249 39.32  249 41  C 249 42.68  247.46 44  245.5 44  C 243.54 44  242 42.68  242 41  C 242 39.32  243.54 38  245.5 38  Z " fill-rule="nonzero" fill="#333333" stroke="none" />
    <path d="M 245.5 38.5  C 247.18 38.5  248.5 39.6  248.5 41  C 248.5 42.4  247.18 43.5  245.5 43.5  C 243.82 43.5  242.5 42.4  242.5 41  C 242.5 39.6  243.82 38.5  245.5 38.5  Z " stroke-width="1" stroke="#797979" fill="none" />
  </g>
</svg>