<?xml version="1.0" encoding="utf-8"?>
<svg version="1.1" xmlns:xlink="http://www.w3.org/1999/xlink" width="17px" height="6px" xmlns="http://www.w3.org/2000/svg">
  <g transform="matrix(1 0 0 1 -351 -42 )">
    <path d="M 1.88888888888889 1.2  L 14.1666666666667 1.2  L 14.1666666666667 4.8  L 1.88888888888889 4.8  L 1.88888888888889 1.2  Z M 15.1111111111111 5.25  L 15.1111111111111 3.9  L 16.0555555555556 3.9  L 16.0555555555556 2.1  L 15.1111111111111 2.1  L 15.1111111111111 0.75  C 15.1111111111111 0.706249999999999  15.0889756944444 0.6703125  15.0447048611111 0.6421875  C 15.0004340277778 0.6140625  14.9438657407407 0.6  14.875 0.6  L 1.18055555555556 0.6  C 1.11168981481482 0.6  1.05512152777778 0.6140625  1.01085069444444 0.6421875  C 0.966579861111111 0.6703125  0.944444444444444 0.706249999999999  0.944444444444444 0.75  L 0.944444444444444 5.25  C 0.944444444444444 5.29375  0.966579861111111 5.3296875  1.01085069444444 5.3578125  C 1.05512152777778 5.3859375  1.11168981481482 5.4  1.18055555555556 5.4  L 14.875 5.4  C 14.9438657407407 5.4  15.0004340277778 5.3859375  15.0447048611111 5.3578125  C 15.0889756944444 5.3296875  15.1111111111111 5.29375  15.1111111111111 5.25  Z M 16.7233072916667 1.67578125  C 16.9077690972222 1.79296875  17 1.934375  17 2.1  L 17 3.9  C 17 4.065625  16.9077690972222 4.20703125  16.7233072916667 4.32421875  C 16.5388454861111 4.44140625  16.3162615740741 4.5  16.0555555555556 4.5  L 16.0555555555556 5.25  C 16.0555555555556 5.45625  15.9399594907407 5.6328125  15.7087673611111 5.7796875  C 15.4775752314815 5.9265625  15.1996527777778 6  14.875 6  L 1.18055555555556 6  C 0.855902777777778 6  0.577980324074074 5.9265625  0.346788194444444 5.7796875  C 0.115596064814815 5.6328125  0 5.45625  0 5.25  L 0 0.75  C 0 0.54375  0.115596064814815 0.3671875  0.346788194444444 0.2203125  C 0.577980324074074 0.0734374999999992  0.855902777777778 0  1.18055555555556 0  L 14.875 0  C 15.1996527777778 0  15.4775752314815 0.0734374999999992  15.7087673611111 0.2203125  C 15.9399594907407 0.3671875  16.0555555555556 0.54375  16.0555555555556 0.75  L 16.0555555555556 1.5  C 16.3162615740741 1.5  16.5388454861111 1.55859375  16.7233072916667 1.67578125  Z " fill-rule="nonzero" fill="#333333" stroke="none" transform="matrix(1 0 0 1 351 42 )" />
  </g>
</svg>