<?xml version="1.0" encoding="utf-8"?>
<svg version="1.1" xmlns:xlink="http://www.w3.org/1999/xlink" width="14px" height="14px" xmlns="http://www.w3.org/2000/svg">
  <g transform="matrix(1 0 0 1 -328 -37 )">
    <path d="M 3.33638877509348 10.5985011405404  C 3.70733743844807 10.9637259694749  3.8928117701254 11.4072132617525  3.89281177012539 11.9289630173732  C 3.8928117701254 12.4507127729939  3.70733743844807 12.8942000652716  3.33638877509336 13.259424894206  C 2.96544011173874 13.6246497231405  2.51500244909382 13.8072621376077  1.98507578715864 13.8072621376077  C 1.45514912522345 13.8072621376077  1.16521425581549 13.7328472941995  0.794265592460832 13.3676224652649  C 0.423316929106208 13.0023976363305  0.077339804192015 12.4507127729938  0.0773398041919972 11.9289630173731  C 0.0773398041919793 11.4072132617524  0.262814135869301 10.9637259694748  0.633762799223978 10.5985011405403  C 1.00471146257864 10.2332763116058  1.45514912522358 10.0506638971386  1.98507578715871 10.0506638971386  C 2.51500244909393 10.0506638971386  2.96544011173882 10.2332763116059  3.33638877509348 10.5985011405404  Z M 8.18024966934484 10.1387091683998  C 8.62737529035265 11.0909024724076  8.89399464213878 12.0887488800322  8.98010772470326 13.1322483912737  C 8.99335589125162 13.3148608057409  8.93705118342103 13.4713857324271  8.81119360121142 13.6018231713323  C 8.69196010227598 13.7387824821827  8.53629414533252 13.807262137608  8.34419573038098 13.807262137608  L 7.0028188673575 13.8072621376078  C 6.83721678550274 13.8072621376079  6.69479899510768 13.7534566940595  6.57556549617225 13.6458458069627  C 6.45633199723685 13.5382349198659  6.39009116449496 13.4029060770018  6.37684299794659 13.2398592783703  C 6.23111316591438 11.746350602906  5.62004148387037 10.4696941696215  4.54362795181457 9.40988997851693  C 3.46721441975876 8.35008578741232  2.17055011883608 7.7484431004622  0.653635049046629 7.60496191766651  C 0.488032967191898 7.59191817377596  0.350583239252461 7.52669945432339  0.241285865228423 7.40930575930877  C 0.131988491204205 7.2919120642941  0.0773398041921953 7.15169181747105  0.0773398041921339 6.98864501883952  L 0.0773398041922482 5.66796594992466  C 0.0773398041922482 5.47883166351215  0.146892678571128 5.32556767279846  0.285998427329116 5.2081739777838  C 0.398607842990336 5.0973021547144  0.541025633385427 5.04186624317969  0.713251798514355 5.0418662431797  L 0.762932423070781 5.04186624317969  C 1.82278574694125 5.12665057846819  2.83627048789227 5.38915592426486  3.80338664592397 5.82938228056982  C 4.77050280395567 6.26960863687481  5.62832158796321 6.86146851590705  6.37684299794669 7.60496191766661  C 7.13198849120428 8.34193344748089  7.73312404833702 9.18651586439195  8.18024966934484 10.1387091683998  Z M 12.8750686899268 8.24573583628835  C 13.5838456002651 9.80772416717787  13.9812905967165 11.4430835574516  14.067403679281 13.1518140071095  C 14.0806518458294 13.3279045496315  14.0210350963616 13.481168540345  13.8885534308779 13.6116059792502  C 13.7693199319425 13.7420434181554  13.6169660166361 13.807262137608  13.4314916849588 13.807262137608  L 12.0106258226451 13.807262137608  C 11.8383996575161 13.807262137608  11.6910138046654 13.750195758087  11.5684682640929 13.6360629990449  C 11.4459227235204 13.5219302400029  11.3813379115971 13.3833404611662  11.3747138283229 13.2202936625347  C 11.2952248290326 11.818091194304  10.960708623686 10.4859988494848  10.3711652122831 9.22401662807718  C 9.78162180088022 7.96203440666957  9.01488416189277 6.86635991986602  8.07095229532072 5.93699316766664  C 7.12702042874869 5.00762641546723  6.01417443868481 4.25271973780347  4.7324143251291 3.67227313467543  C 3.45065421157339 3.09182653154737  2.09768520282012 2.75921106233915  0.673507298869342 2.67442672705081  C 0.507905217014594 2.66790485510555  0.367143447438067 2.60431660363927  0.251221990139745 2.48366197265198  C 0.135300532841431 2.36300734166468  0.0773398041922787 2.22115662685529  0.0773398041922612 2.05810982822383  L 0.0773398041922611 0.659168295965751  C 0.0773398041922787 0.47655588149849  0.143580636934175 0.326552826757544  0.276062302417949 0.209159131742895  C 0.395295801353374 0.091765436728218  0.541025633385568 0.0330685892208753  0.713251798514487 0.0330685892208937  L 0.74306017324835 0.0330685892208756  C 2.47856999108605 0.117852924509244  4.13955887208912 0.509165241224806  5.72602681625757 1.20700553936751  C 7.312494760426 1.90484583751025  9.17669508031328 3.17422987338589  10.4087745693126 4.39381992714935  C 11.6474781415861 5.60688810896753  12.1662917795885 6.6837475053988  12.8750686899268 8.24573583628835  Z " fill-rule="nonzero" fill="#333333" stroke="none" transform="matrix(1 0 0 1 328 37 )" />
  </g>
</svg>