<?xml version="1.0" encoding="utf-8"?>
<svg version="1.1" xmlns:xlink="http://www.w3.org/1999/xlink" width="170px" height="170px" xmlns="http://www.w3.org/2000/svg">
  <g transform="matrix(1 0 0 1 -123 -182 )">
    <path d="M 118.772321428571 149.556361607143  C 129.207589285714 144.022507440476  137.777157738095 136.512276785714  144.481026785714 127.025669642857  C 143.089657738095 117.222842261905  140.322730654762 109.080171130952  136.180245535714 102.59765625  C 132.037760416667 96.1151413690476  126.20349702381 92.367931547619  118.677455357143 91.3560267857143  C 114.440104166667 96.0360863095238  109.396391369048 99.6884300595238  103.546316964286 102.313058035714  C 97.6962425595238 104.937686011905  91.5141369047619 106.25  85 106.25  C 78.4858630952381 106.25  72.3037574404762 104.937686011905  66.4536830357143 102.313058035714  C 60.6036086309524 99.6884300595238  55.5598958333333 96.0360863095238  51.3225446428571 91.3560267857143  C 43.7965029761905 92.367931547619  37.9622395833333 96.1151413690476  33.8197544642857 102.59765625  C 29.6772693452381 109.080171130952  26.9103422619048 117.222842261905  25.5189732142857 127.025669642857  C 32.2228422619048 136.512276785714  40.7924107142857 144.022507440476  51.2276785714286 149.556361607143  C 61.6629464285714 155.09021577381  72.9203869047619 157.857142857143  85 157.857142857143  C 97.0796130952381 157.857142857143  108.337053571429 155.09021577381  118.772321428571 149.556361607143  Z M 110.756138392857 86.4704241071429  C 117.87109375 79.35546875  121.428571428571 70.7700892857143  121.428571428571 60.7142857142857  C 121.428571428571 50.6584821428571  117.87109375 42.0731026785714  110.756138392857 34.9581473214286  C 103.641183035714 27.8431919642857  95.0558035714286 24.2857142857143  85 24.2857142857143  C 74.9441964285714 24.2857142857143  66.3588169642857 27.8431919642857  59.2438616071429 34.9581473214286  C 52.12890625 42.0731026785714  48.5714285714286 50.6584821428571  48.5714285714286 60.7142857142857  C 48.5714285714286 70.7700892857143  52.12890625 79.35546875  59.2438616071429 86.4704241071429  C 66.3588169642857 93.5853794642857  74.9441964285714 97.1428571428571  85 97.1428571428571  C 95.0558035714286 97.1428571428571  103.641183035714 93.5853794642857  110.756138392857 86.4704241071429  Z M 163.264508928571 51.9866071428571  C 167.754836309524 62.485119047619  170 73.4895833333333  170 85  C 170 96.5104166666667  167.754836309524 107.499069940476  163.264508928571 117.965959821429  C 158.774181547619 128.432849702381  152.750186011905 137.476748511905  145.192522321429 145.09765625  C 137.634858630952 152.718563988095  128.606770833333 158.774181547619  118.108258928571 163.264508928571  C 107.60974702381 167.754836309524  96.5736607142857 170  85 170  C 73.4895833333333 170  62.4851190476191 167.754836309524  51.9866071428571 163.264508928571  C 41.4880952380952 158.774181547619  32.4441964285714 152.734375  24.8549107142857 145.145089285714  C 17.265625 137.555803571429  11.225818452381 128.511904761905  6.73549107142857 118.013392857143  C 2.24516369047619 107.514880952381  0 96.5104166666667  0 85  C 0 73.4895833333333  2.24516369047619 62.485119047619  6.73549107142857 51.9866071428571  C 11.225818452381 41.4880952380952  17.265625 32.4441964285714  24.8549107142857 24.8549107142857  C 32.4441964285714 17.265625  41.4880952380952 11.2258184523809  51.9866071428571 6.73549107142857  C 62.4851190476191 2.24516369047619  73.4895833333333 0  85 0  C 96.5104166666667 0  107.514880952381 2.24516369047619  118.013392857143 6.73549107142857  C 128.511904761905 11.2258184523809  137.555803571429 17.265625  145.145089285714 24.8549107142857  C 152.734375 32.4441964285714  158.774181547619 41.4880952380952  163.264508928571 51.9866071428571  Z " fill-rule="nonzero" fill="#aaaaaa" stroke="none" transform="matrix(1 0 0 1 123 182 )" />
  </g>
</svg>