<?xml version="1.0" encoding="utf-8"?>
<svg version="1.1" xmlns:xlink="http://www.w3.org/1999/xlink" width="12px" height="13px" xmlns="http://www.w3.org/2000/svg">
  <g transform="matrix(1 0 0 1 -575 -624 )">
    <path d="M 1.8515625 10.8515625  C 1.95052083333333 10.7526041666667  2 10.6354166666667  2 10.5  C 2 10.3645833333333  1.95052083333333 10.2473958333333  1.8515625 10.1484375  C 1.75260416666667 10.0494791666667  1.63541666666667 10  1.5 10  C 1.36458333333333 10  1.24739583333333 10.0494791666667  1.1484375 10.1484375  C 1.04947916666667 10.2473958333333  1 10.3645833333333  1 10.5  C 1 10.6354166666667  1.04947916666667 10.7526041666667  1.1484375 10.8515625  C 1.24739583333333 10.9505208333333  1.36458333333333 11  1.5 11  C 1.63541666666667 11  1.75260416666667 10.9505208333333  1.8515625 10.8515625  Z M 10.83203125 6.6328125  C 10.9440104166667 6.39322916666667  11 6.18229166666667  11 6  C 11 5.734375  10.8984375 5.50130208333333  10.6953125 5.30078125  C 10.4921875 5.10026041666667  10.2604166666667 5  10 5  L 7.25 5  C 7.25 4.69791666666667  7.375 4.28255208333333  7.625 3.75390625  C 7.875 3.22526041666667  8 2.80729166666667  8 2.5  C 8 1.98958333333333  7.91666666666667 1.61197916666667  7.75 1.3671875  C 7.58333333333333 1.12239583333333  7.25 0.999999999999999  6.75 0.999999999999999  C 6.61458333333333 1.13541666666667  6.515625 1.35677083333333  6.453125 1.6640625  C 6.390625 1.97135416666667  6.31119791666667 2.29817708333333  6.21484375 2.64453125  C 6.11848958333333 2.99088541666667  5.96354166666667 3.27604166666667  5.75 3.5  C 5.63541666666667 3.61979166666667  5.43489583333333 3.85677083333333  5.1484375 4.2109375  C 5.12760416666667 4.23697916666667  5.06770833333333 4.31510416666667  4.96875 4.4453125  C 4.86979166666667 4.57552083333333  4.78776041666667 4.68229166666667  4.72265625 4.765625  C 4.65755208333333 4.84895833333333  4.56770833333333 4.95963541666667  4.453125 5.09765625  C 4.33854166666667 5.23567708333333  4.234375 5.35026041666667  4.140625 5.44140625  C 4.046875 5.53255208333333  3.94661458333333 5.625  3.83984375 5.71875  C 3.73307291666667 5.8125  3.62890625 5.8828125  3.52734375 5.9296875  C 3.42578125 5.9765625  3.33333333333333 6  3.25 6  L 3 6  L 3 11  L 3.25 11  C 3.31770833333333 11  3.39973958333333 11.0078125  3.49609375 11.0234375  C 3.59244791666667 11.0390625  3.67838541666667 11.0559895833333  3.75390625 11.07421875  C 3.82942708333333 11.0924479166667  3.92838541666667 11.12109375  4.05078125 11.16015625  C 4.17317708333333 11.19921875  4.26432291666667 11.2291666666667  4.32421875 11.25  C 4.38411458333333 11.2708333333333  4.4765625 11.3033854166667  4.6015625 11.34765625  C 4.7265625 11.3919270833333  4.80208333333333 11.4192708333333  4.828125 11.4296875  C 5.92708333333333 11.8098958333333  6.81770833333333 12  7.5 12  L 8.4453125 12  C 9.4453125 12  9.9453125 11.5651041666667  9.9453125 10.6953125  C 9.9453125 10.5598958333333  9.93229166666667 10.4140625  9.90625 10.2578125  C 10.0625 10.1744791666667  10.1861979166667 10.0377604166667  10.27734375 9.84765625  C 10.3684895833333 9.65755208333333  10.4140625 9.46614583333333  10.4140625 9.2734375  C 10.4140625 9.08072916666667  10.3671875 8.90104166666667  10.2734375 8.734375  C 10.5494791666667 8.47395833333333  10.6875 8.1640625  10.6875 7.8046875  C 10.6875 7.67447916666667  10.6614583333333 7.52994791666667  10.609375 7.37109375  C 10.5572916666667 7.21223958333333  10.4921875 7.08854166666667  10.4140625 7  C 10.5807291666667 6.99479166666667  10.7200520833333 6.87239583333333  10.83203125 6.6328125  Z M 11.40625 4.59375  C 11.8020833333333 4.98958333333333  12 5.45572916666667  12 5.9921875  C 12 6.45572916666667  11.8723958333333 6.88020833333333  11.6171875 7.265625  C 11.6640625 7.4375  11.6875 7.6171875  11.6875 7.8046875  C 11.6875 8.20572916666667  11.5885416666667 8.58072916666667  11.390625 8.9296875  C 11.40625 9.0390625  11.4140625 9.15104166666666  11.4140625 9.265625  C 11.4140625 9.79166666666667  11.2578125 10.2552083333333  10.9453125 10.65625  C 10.9505208333333 11.3802083333333  10.7291666666667 11.9518229166667  10.28125 12.37109375  C 9.83333333333333 12.7903645833333  9.2421875 13  8.5078125 13  L 8.2265625 13  L 7.5 13  C 7 13  6.50651041666667 12.94140625  6.01953125 12.82421875  C 5.53255208333333 12.70703125  4.96875 12.5364583333333  4.328125 12.3125  C 3.72395833333333 12.1041666666667  3.36458333333333 12  3.25 12  L 1 12  C 0.723958333333333 12  0.48828125 11.90234375  0.29296875 11.70703125  C 0.09765625 11.51171875  0 11.2760416666667  0 11  L 0 6  C 0 5.72395833333333  0.09765625 5.48828125  0.29296875 5.29296875  C 0.48828125 5.09765625  0.723958333333333 5  1 5  L 3.140625 5  C 3.328125 4.875  3.68489583333333 4.47135416666667  4.2109375 3.7890625  C 4.51302083333333 3.3984375  4.79166666666667 3.06510416666667  5.046875 2.7890625  C 5.171875 2.65885416666667  5.26432291666667 2.43619791666667  5.32421875 2.12109375  C 5.38411458333333 1.80598958333333  5.46354166666667 1.4765625  5.5625 1.1328125  C 5.66145833333333 0.7890625  5.82291666666667 0.5078125  6.046875 0.289062499999999  C 6.25 0.0963541666666674  6.484375 0  6.75 0  C 7.1875 0  7.58072916666667 0.0846354166666676  7.9296875 0.25390625  C 8.27864583333333 0.423177083333332  8.54427083333333 0.6875  8.7265625 1.046875  C 8.90885416666667 1.40625  9 1.890625  9 2.5  C 9 2.984375  8.875 3.484375  8.625 4  L 10 4  C 10.5416666666667 4  11.0104166666667 4.19791666666667  11.40625 4.59375  Z " fill-rule="nonzero" fill="#000000" stroke="none" transform="matrix(1 0 0 1 575 624 )" />
  </g>
</svg>