<?xml version="1.0" encoding="utf-8"?>
<svg version="1.1" xmlns:xlink="http://www.w3.org/1999/xlink" width="22px" height="18px" xmlns="http://www.w3.org/2000/svg">
  <g transform="matrix(1 0 0 1 -472 -756 )">
    <path d="M 15.68359375 2.314453125  C 14.2308407738095 1.771484375  12.6696428571429 1.5  11 1.5  C 9.33035714285714 1.5  7.76915922619048 1.771484375  6.31640625 2.314453125  C 4.86365327380952 2.857421875  3.70963541666667 3.58984375  2.85435267857143 4.51171875  C 1.99906994047619 5.43359375  1.57142857142857 6.4296875  1.57142857142857 7.5  C 1.57142857142857 8.375  1.86402529761905 9.208984375  2.44921875 10.001953125  C 3.03441220238095 10.794921875  3.85900297619048 11.48046875  4.92299107142857 12.05859375  L 5.99107142857143 12.64453125  L 5.65959821428571 13.76953125  C 5.46316964285714 14.48046875  5.17671130952381 15.15234375  4.80022321428571 15.78515625  C 6.04427083333333 15.29296875  7.16964285714286 14.625  8.17633928571428 13.78125  L 8.70424107142857 13.3359375  L 9.40401785714286 13.40625  C 9.96875 13.46875  10.500744047619 13.5  11 13.5  C 12.6696428571429 13.5  14.2308407738095 13.228515625  15.68359375 12.685546875  C 17.1363467261905 12.142578125  18.2903645833333 11.41015625  19.1456473214286 10.48828125  C 20.0009300595238 9.56640625  20.4285714285714 8.5703125  20.4285714285714 7.5  C 20.4285714285714 6.4296875  20.0009300595238 5.43359375  19.1456473214286 4.51171875  C 18.2903645833333 3.58984375  17.1363467261905 2.857421875  15.68359375 2.314453125  Z M 20.5267857142857 3.732421875  C 21.5089285714286 4.884765625  22 6.140625  22 7.5  C 22 8.859375  21.5089285714286 10.115234375  20.5267857142857 11.267578125  C 19.5446428571429 12.419921875  18.2105654761905 13.330078125  16.5245535714286 13.998046875  C 14.8385416666667 14.666015625  12.9970238095238 15  11 15  C 10.4270833333333 15  9.83370535714286 14.96875  9.21986607142857 14.90625  C 7.59933035714286 16.2734375  5.71688988095238 17.21875  3.57254464285714 17.7421875  C 3.17150297619048 17.8515625  2.70498511904762 17.9375  2.17299107142857 18  L 2.11160714285714 18  C 1.98883928571429 18  1.87834821428571 17.958984375  1.78013392857143 17.876953125  C 1.68191964285714 17.794921875  1.61644345238095 17.6875  1.58370535714286 17.5546875  L 1.58370535714286 17.54296875  C 1.55915178571429 17.51171875  1.5571056547619 17.46484375  1.57756696428571 17.40234375  C 1.59802827380952 17.33984375  1.60621279761905 17.30078125  1.60212053571429 17.28515625  C 1.59802827380952 17.26953125  1.61644345238095 17.232421875  1.65736607142857 17.173828125  L 1.73102678571429 17.068359375  C 1.73102678571429 17.068359375  1.75967261904762 17.03515625  1.81696428571429 16.96875  C 1.87425595238095 16.90234375  1.90699404761905 16.8671875  1.91517857142857 16.86328125  C 1.97247023809524 16.80078125  2.09933035714286 16.666015625  2.29575892857143 16.458984375  C 2.4921875 16.251953125  2.63337053571429 16.103515625  2.71930803571429 16.013671875  C 2.80524553571429 15.923828125  2.93210565476191 15.76953125  3.09988839285714 15.55078125  C 3.26767113095238 15.33203125  3.40066964285714 15.1328125  3.49888392857143 14.953125  C 3.59709821428571 14.7734375  3.70758928571429 14.54296875  3.83035714285714 14.26171875  C 3.953125 13.98046875  4.05952380952381 13.68359375  4.14955357142857 13.37109375  C 2.86458333333333 12.67578125  1.85174851190476 11.81640625  1.11104910714286 10.79296875  C 0.370349702380952 9.76953125  0 8.671875  0 7.5  C 0 6.140625  0.491071428571429 4.884765625  1.47321428571429 3.732421875  C 2.45535714285714 2.580078125  3.78943452380952 1.669921875  5.47544642857143 1.001953125  C 7.16145833333333 0.333984375  9.00297619047619 0  11 0  C 12.9970238095238 0  14.8385416666667 0.333984375  16.5245535714286 1.001953125  C 18.2105654761905 1.669921875  19.5446428571429 2.580078125  20.5267857142857 3.732421875  Z " fill-rule="nonzero" fill="#000000" stroke="none" transform="matrix(1 0 0 1 472 756 )" />
  </g>
</svg>