<?xml version="1.0" encoding="utf-8"?>
<svg version="1.1" xmlns:xlink="http://www.w3.org/1999/xlink" width="24px" height="24px" xmlns="http://www.w3.org/2000/svg">
  <g transform="matrix(1 0 0 1 -319 -620 )">
    <path d="M 331 620  C 337.72 620  343 625.28  343 632  C 343 638.72  337.72 644  331 644  C 324.28 644  319 638.72  319 632  C 319 625.28  324.28 620  331 620  Z " fill-rule="nonzero" fill="#ffffff" stroke="none" />
    <path d="M 331 620.5  C 337.44 620.5  342.5 625.56  342.5 632  C 342.5 638.44  337.44 643.5  331 643.5  C 324.56 643.5  319.5 638.44  319.5 632  C 319.5 625.56  324.56 620.5  331 620.5  Z " stroke-width="1" stroke="#797979" fill="none" />
  </g>
</svg>