<?xml version="1.0" encoding="utf-8"?>
<svg version="1.1" xmlns:xlink="http://www.w3.org/1999/xlink" width="18px" height="18px" xmlns="http://www.w3.org/2000/svg">
  <g transform="matrix(1 0 0 1 -582 -755 )">
    <path d="M 11.6953125 11.5078125  C 12.4140625 10.8359375  13.265625 10.5  14.25 10.5  C 15.2890625 10.5  16.173828125 10.865234375  16.904296875 11.595703125  C 17.634765625 12.326171875  18 13.2109375  18 14.25  C 18 15.2890625  17.634765625 16.173828125  16.904296875 16.904296875  C 16.173828125 17.634765625  15.2890625 18  14.25 18  C 13.2109375 18  12.326171875 17.634765625  11.595703125 16.904296875  C 10.865234375 16.173828125  10.5 15.2890625  10.5 14.25  C 10.5 14.15625  10.5078125 14.0234375  10.5234375 13.8515625  L 6.3046875 11.7421875  C 5.5859375 12.4140625  4.734375 12.75  3.75 12.75  C 2.7109375 12.75  1.826171875 12.384765625  1.095703125 11.654296875  C 0.365234375 10.923828125  0 10.0390625  0 9  C 0 7.9609375  0.365234375 7.076171875  1.095703125 6.345703125  C 1.826171875 5.615234375  2.7109375 5.25  3.75 5.25  C 4.734375 5.25  5.5859375 5.5859375  6.3046875 6.2578125  L 10.5234375 4.1484375  C 10.5078125 3.9765625  10.5 3.84375  10.5 3.75  C 10.5 2.7109375  10.865234375 1.826171875  11.595703125 1.095703125  C 12.326171875 0.365234374999999  13.2109375 0  14.25 0  C 15.2890625 0  16.173828125 0.365234374999999  16.904296875 1.095703125  C 17.634765625 1.826171875  18 2.7109375  18 3.75  C 18 4.7890625  17.634765625 5.673828125  16.904296875 6.404296875  C 16.173828125 7.134765625  15.2890625 7.5  14.25 7.5  C 13.265625 7.5  12.4140625 7.1640625  11.6953125 6.4921875  L 7.4765625 8.6015625  C 7.4921875 8.7734375  7.5 8.90625  7.5 9  C 7.5 9.09375  7.4921875 9.2265625  7.4765625 9.3984375  L 11.6953125 11.5078125  Z " fill-rule="nonzero" fill="#000000" stroke="none" transform="matrix(1 0 0 1 582 755 )" />
  </g>
</svg>