<?xml version="1.0" encoding="utf-8"?>
<svg version="1.1" xmlns:xlink="http://www.w3.org/1999/xlink" width="14px" height="14px" xmlns="http://www.w3.org/2000/svg">
  <g transform="matrix(1 0 0 1 -1432 -595 )">
    <path d="M 10.2994791666667 8.189453125  C 10.3723958333333 8.33224826388889  10.3845486111111 8.47960069444444  10.3359375 8.63151041666667  C 10.1111111111111 9.36675347222222  9.69184027777778 9.95920138888889  9.078125 10.4088541666667  C 8.46440972222222 10.8585069444444  7.77170138888889 11.0833333333333  7 11.0833333333333  C 6.22829861111111 11.0833333333333  5.53559027777778 10.8585069444444  4.921875 10.4088541666667  C 4.30815972222222 9.95920138888889  3.88888888888889 9.36675347222222  3.6640625 8.63151041666667  C 3.61545138888889 8.47960069444444  3.62760416666667 8.33224826388889  3.70052083333333 8.189453125  C 3.7734375 8.04665798611111  3.88888888888889 7.95095486111111  4.046875 7.90234375  C 4.19878472222222 7.85373263888889  4.34613715277778 7.86588541666667  4.48893229166667 7.93880208333333  C 4.63172743055556 8.01171875  4.72743055555556 8.12717013888889  4.77604166666667 8.28515625  C 4.92795138888889 8.77126736111111  5.208984375 9.16471354166667  5.619140625 9.46549479166667  C 6.029296875 9.76627604166667  6.48958333333333 9.91666666666667  7 9.91666666666667  C 7.51041666666667 9.91666666666667  7.970703125 9.76627604166667  8.380859375 9.46549479166667  C 8.791015625 9.16471354166667  9.07204861111111 8.77126736111111  9.22395833333333 8.28515625  C 9.27256944444444 8.12717013888889  9.36979166666667 8.01171875  9.515625 7.93880208333333  C 9.66145833333333 7.86588541666667  9.81032986111111 7.85373263888889  9.96223958333333 7.90234375  C 10.1141493055556 7.95095486111111  10.2265625 8.04665798611111  10.2994791666667 8.189453125  Z M 5.49153645833333 3.841796875  C 5.71940104166667 4.06966145833333  5.83333333333333 4.34461805555555  5.83333333333333 4.66666666666667  C 5.83333333333333 4.98871527777778  5.71940104166667 5.263671875  5.49153645833333 5.49153645833333  C 5.263671875 5.71940104166667  4.98871527777778 5.83333333333333  4.66666666666667 5.83333333333333  C 4.34461805555556 5.83333333333333  4.06966145833333 5.71940104166667  3.841796875 5.49153645833333  C 3.61393229166667 5.263671875  3.5 4.98871527777778  3.5 4.66666666666667  C 3.5 4.34461805555555  3.61393229166667 4.06966145833333  3.841796875 3.841796875  C 4.06966145833333 3.61393229166667  4.34461805555556 3.5  4.66666666666667 3.5  C 4.98871527777778 3.5  5.263671875 3.61393229166667  5.49153645833333 3.841796875  Z M 10.158203125 3.841796875  C 10.3860677083333 4.06966145833333  10.5 4.34461805555555  10.5 4.66666666666667  C 10.5 4.98871527777778  10.3860677083333 5.263671875  10.158203125 5.49153645833333  C 9.93033854166667 5.71940104166667  9.65538194444444 5.83333333333333  9.33333333333333 5.83333333333333  C 9.01128472222222 5.83333333333333  8.736328125 5.71940104166667  8.50846354166667 5.49153645833333  C 8.28059895833333 5.263671875  8.16666666666667 4.98871527777778  8.16666666666667 4.66666666666667  C 8.16666666666667 4.34461805555555  8.28059895833333 4.06966145833333  8.50846354166667 3.841796875  C 8.736328125 3.61393229166667  9.01128472222222 3.5  9.33333333333333 3.5  C 9.65538194444444 3.5  9.93033854166667 3.61393229166667  10.158203125 3.841796875  Z M 12.3684895833333 9.26497395833333  C 12.6783854166667 8.544921875  12.8333333333333 7.78993055555556  12.8333333333333 7  C 12.8333333333333 6.21006944444444  12.6783854166667 5.455078125  12.3684895833333 4.73502604166667  C 12.05859375 4.01497395833333  11.6438802083333 3.39518229166667  11.1243489583333 2.87565104166667  C 10.6048177083333 2.35611979166667  9.98502604166667 1.94140625  9.26497395833333 1.63151041666667  C 8.544921875 1.32161458333333  7.78993055555556 1.16666666666667  7 1.16666666666667  C 6.21006944444444 1.16666666666667  5.455078125 1.32161458333333  4.73502604166667 1.63151041666667  C 4.01497395833333 1.94140625  3.39518229166667 2.35611979166667  2.87565104166667 2.87565104166667  C 2.35611979166667 3.39518229166667  1.94140625 4.01497395833333  1.63151041666667 4.73502604166667  C 1.32161458333333 5.455078125  1.16666666666667 6.21006944444444  1.16666666666667 7  C 1.16666666666667 7.78993055555556  1.32161458333333 8.544921875  1.63151041666667 9.26497395833333  C 1.94140625 9.98502604166667  2.35611979166667 10.6048177083333  2.87565104166667 11.1243489583333  C 3.39518229166667 11.6438802083333  4.01497395833333 12.05859375  4.73502604166667 12.3684895833333  C 5.455078125 12.6783854166667  6.21006944444444 12.8333333333333  7 12.8333333333333  C 7.78993055555556 12.8333333333333  8.544921875 12.6783854166667  9.26497395833333 12.3684895833333  C 9.98502604166667 12.05859375  10.6048177083333 11.6438802083333  11.1243489583333 11.1243489583333  C 11.6438802083333 10.6048177083333  12.05859375 9.98502604166667  12.3684895833333 9.26497395833333  Z M 13.0611979166667 3.486328125  C 13.6870659722222 4.55881076388889  14 5.73003472222222  14 7  C 14 8.26996527777778  13.6870659722222 9.44118923611111  13.0611979166667 10.513671875  C 12.4353298611111 11.5861545138889  11.5861545138889 12.4353298611111  10.513671875 13.0611979166667  C 9.44118923611111 13.6870659722222  8.26996527777778 14  7 14  C 5.73003472222222 14  4.55881076388889 13.6870659722222  3.486328125 13.0611979166667  C 2.41384548611111 12.4353298611111  1.56467013888889 11.5861545138889  0.938802083333333 10.513671875  C 0.312934027777778 9.44118923611111  0 8.26996527777778  0 7  C 0 5.73003472222222  0.312934027777778 4.55881076388889  0.938802083333333 3.486328125  C 1.56467013888889 2.41384548611111  2.41384548611111 1.56467013888889  3.486328125 0.938802083333333  C 4.55881076388889 0.312934027777777  5.73003472222222 0  7 0  C 8.26996527777778 0  9.44118923611111 0.312934027777777  10.513671875 0.938802083333333  C 11.5861545138889 1.56467013888889  12.4353298611111 2.41384548611111  13.0611979166667 3.486328125  Z " fill-rule="nonzero" fill="#aaaaaa" stroke="none" transform="matrix(1 0 0 1 1432 595 )" />
  </g>
</svg>