<?xml version="1.0" encoding="utf-8"?>
<svg version="1.1" xmlns:xlink="http://www.w3.org/1999/xlink" width="10px" height="10px" xmlns="http://www.w3.org/2000/svg">
  <g transform="matrix(1 0 0 1 -630 -399 )">
    <path d="M 5.67057291666667 6.82942708333333  C 5.70963541666667 6.86848958333333  5.72916666666667 6.91840277777778  5.72916666666667 6.97916666666667  L 5.72916666666667 8.02083333333333  C 5.72916666666667 8.08159722222222  5.70963541666667 8.13151041666667  5.67057291666667 8.17057291666667  C 5.63151041666667 8.20963541666667  5.58159722222222 8.22916666666667  5.52083333333333 8.22916666666667  L 4.47916666666667 8.22916666666667  C 4.41840277777778 8.22916666666667  4.36848958333333 8.20963541666667  4.32942708333333 8.17057291666667  C 4.29036458333333 8.13151041666667  4.27083333333333 8.08159722222222  4.27083333333333 8.02083333333333  L 4.27083333333333 6.97916666666667  C 4.27083333333333 6.91840277777778  4.29036458333333 6.86848958333333  4.32942708333333 6.82942708333333  C 4.36848958333333 6.79036458333333  4.41840277777778 6.77083333333333  4.47916666666667 6.77083333333333  L 5.52083333333333 6.77083333333333  C 5.58159722222222 6.77083333333333  5.63151041666667 6.79036458333333  5.67057291666667 6.82942708333333  Z M 6.68294270833333 2.353515625  C 7.158203125 2.74197048611111  7.39583333333333 3.20746527777778  7.39583333333333 3.75  C 7.39583333333333 3.96701388888889  7.36328125 4.16232638888889  7.29817708333333 4.3359375  C 7.23307291666667 4.50954861111111  7.13433159722222 4.65928819444444  7.001953125 4.78515625  C 6.86957465277778 4.91102430555555  6.75672743055556 5.00651041666667  6.66341145833333 5.07161458333333  C 6.57009548611111 5.13671875  6.44097222222222 5.21484375  6.27604166666667 5.30598958333333  C 6.13715277777778 5.38411458333333  6.03624131944445 5.44487847222222  5.97330729166667 5.48828125  C 5.91037326388889 5.53168402777778  5.85394965277778 5.58376736111111  5.80403645833333 5.64453125  C 5.75412326388889 5.70529513888889  5.72916666666667 5.76822916666667  5.72916666666667 5.83333333333333  L 5.72916666666667 6.04166666666667  C 5.72916666666667 6.10243055555556  5.70963541666667 6.15234375  5.67057291666667 6.19140625  C 5.63151041666667 6.23046875  5.58159722222222 6.25  5.52083333333333 6.25  L 4.47916666666667 6.25  C 4.41840277777778 6.25  4.36848958333333 6.23046875  4.32942708333333 6.19140625  C 4.29036458333333 6.15234375  4.27083333333333 6.10243055555556  4.27083333333333 6.04166666666667  L 4.27083333333333 5.59895833333333  C 4.27083333333333 5.44704861111111  4.29361979166667 5.30707465277778  4.33919270833333 5.17903645833333  C 4.384765625 5.05099826388889  4.43684895833333 4.94791666666667  4.49544270833333 4.86979166666667  C 4.55403645833333 4.79166666666667  4.638671875 4.71462673611111  4.74934895833333 4.638671875  C 4.86002604166667 4.56271701388889  4.94900173611111 4.50737847222222  5.01627604166667 4.47265625  C 5.08355034722222 4.43793402777778  5.18012152777778 4.39236111111111  5.30598958333333 4.3359375  C 5.53602430555556 4.22743055555555  5.69878472222222 4.13411458333333  5.79427083333333 4.05598958333333  C 5.88975694444445 3.97786458333333  5.9375 3.87152777777778  5.9375 3.73697916666667  C 5.9375 3.5546875  5.84309895833333 3.39952256944444  5.654296875 3.271484375  C 5.46549479166667 3.14344618055555  5.25824652777778 3.07942708333333  5.03255208333333 3.07942708333333  C 4.78949652777778 3.07942708333333  4.58333333333333 3.13802083333333  4.4140625 3.25520833333333  C 4.28819444444444 3.34201388888889  4.11458333333333 3.52213541666667  3.89322916666667 3.79557291666667  C 3.85416666666667 3.84765625  3.79991319444444 3.87369791666667  3.73046875 3.87369791666667  C 3.68272569444444 3.87369791666667  3.64149305555556 3.86067708333333  3.60677083333333 3.83463541666667  L 2.90364583333333 3.30078125  C 2.86024305555556 3.27039930555555  2.83420138888889 3.22699652777778  2.82552083333333 3.17057291666667  C 2.81684027777778 3.11414930555555  2.82769097222222 3.06423611111111  2.85807291666667 3.02083333333333  C 3.38758680555556 2.1875  4.14496527777778 1.77083333333333  5.13020833333333 1.77083333333333  C 5.69010416666667 1.77083333333333  6.20768229166667 1.96506076388889  6.68294270833333 2.353515625  Z M 6.61783854166667 1.16536458333333  C 6.103515625 0.944010416666666  5.56423611111111 0.833333333333334  5 0.833333333333334  C 4.43576388888889 0.833333333333334  3.896484375 0.944010416666666  3.38216145833333 1.16536458333333  C 2.86783854166667 1.38671875  2.42513020833333 1.68294270833333  2.05403645833333 2.05403645833333  C 1.68294270833333 2.42513020833333  1.38671875 2.86783854166667  1.16536458333333 3.38216145833333  C 0.944010416666667 3.896484375  0.833333333333333 4.43576388888889  0.833333333333333 5  C 0.833333333333333 5.56423611111111  0.944010416666667 6.103515625  1.16536458333333 6.61783854166667  C 1.38671875 7.13216145833333  1.68294270833333 7.57486979166667  2.05403645833333 7.94596354166667  C 2.42513020833333 8.31705729166667  2.86783854166667 8.61328125  3.38216145833333 8.83463541666667  C 3.896484375 9.05598958333333  4.43576388888889 9.16666666666667  5 9.16666666666667  C 5.56423611111111 9.16666666666667  6.103515625 9.05598958333333  6.61783854166667 8.83463541666667  C 7.13216145833333 8.61328125  7.57486979166667 8.31705729166667  7.94596354166667 7.94596354166667  C 8.31705729166667 7.57486979166667  8.61328125 7.13216145833333  8.83463541666667 6.61783854166667  C 9.05598958333333 6.103515625  9.16666666666667 5.56423611111111  9.16666666666667 5  C 9.16666666666667 4.43576388888889  9.05598958333333 3.896484375  8.83463541666667 3.38216145833333  C 8.61328125 2.86783854166667  8.31705729166667 2.42513020833333  7.94596354166667 2.05403645833333  C 7.57486979166667 1.68294270833333  7.13216145833333 1.38671875  6.61783854166667 1.16536458333333  Z M 9.32942708333333 2.490234375  C 9.77647569444444 3.25629340277778  10 4.09288194444444  10 5  C 10 5.90711805555556  9.77647569444444 6.74370659722222  9.32942708333333 7.509765625  C 8.88237847222222 8.27582465277778  8.27582465277778 8.88237847222222  7.509765625 9.32942708333333  C 6.74370659722222 9.77647569444444  5.90711805555556 10  5 10  C 4.09288194444444 10  3.25629340277778 9.77647569444444  2.490234375 9.32942708333333  C 1.72417534722222 8.88237847222222  1.11762152777778 8.27582465277778  0.670572916666667 7.509765625  C 0.223524305555556 6.74370659722222  0 5.90711805555556  0 5  C 0 4.09288194444444  0.223524305555556 3.25629340277778  0.670572916666667 2.490234375  C 1.11762152777778 1.72417534722222  1.72417534722222 1.11762152777778  2.490234375 0.670572916666666  C 3.25629340277778 0.223524305555555  4.09288194444444 0  5 0  C 5.90711805555556 0  6.74370659722222 0.223524305555555  7.509765625 0.670572916666666  C 8.27582465277778 1.11762152777778  8.88237847222222 1.72417534722222  9.32942708333333 2.490234375  Z " fill-rule="nonzero" fill="#7f7f7f" stroke="none" transform="matrix(1 0 0 1 630 399 )" />
  </g>
</svg>