<?xml version="1.0" encoding="utf-8"?>
<svg version="1.1" xmlns:xlink="http://www.w3.org/1999/xlink" width="32px" height="32px" xmlns="http://www.w3.org/2000/svg">
  <g transform="matrix(1 0 0 1 -191 -154 )">
    <path d="M 24.7916666666667 13.3333333333333  C 24.7916666666667 13.6944444444444  24.6597222222222 14.0069444444444  24.3958333333333 14.2708333333333  L 15.6041666666667 23.0625  C 15.3402777777778 23.3263888888889  15.0277777777778 23.4583333333333  14.6666666666667 23.4583333333333  C 14.3055555555556 23.4583333333333  13.9930555555556 23.3263888888889  13.7291666666667 23.0625  L 7.60416666666667 16.9375  C 7.34027777777778 16.6736111111111  7.20833333333333 16.3611111111111  7.20833333333333 16  C 7.20833333333333 15.6388888888889  7.34027777777778 15.3263888888889  7.60416666666667 15.0625  L 9.72916666666667 12.9375  C 9.99305555555556 12.6736111111111  10.3055555555556 12.5416666666667  10.6666666666667 12.5416666666667  C 11.0277777777778 12.5416666666667  11.3402777777778 12.6736111111111  11.6041666666667 12.9375  L 14.6666666666667 16  L 20.3958333333333 10.2708333333333  C 20.6597222222222 10.0069444444444  20.9722222222222 9.875  21.3333333333333 9.875  C 21.6944444444444 9.875  22.0069444444444 10.0069444444444  22.2708333333333 10.2708333333333  L 24.3958333333333 12.3958333333333  C 24.6597222222222 12.6597222222222  24.7916666666667 12.9722222222222  24.7916666666667 13.3333333333333  Z M 25.8125 21.6875  C 26.8263888888889 19.9513888888889  27.3333333333333 18.0555555555556  27.3333333333333 16  C 27.3333333333333 13.9444444444444  26.8263888888889 12.0486111111111  25.8125 10.3125  C 24.7986111111111 8.57638888888889  23.4236111111111 7.20138888888889  21.6875 6.1875  C 19.9513888888889 5.17361111111111  18.0555555555556 4.66666666666667  16 4.66666666666667  C 13.9444444444444 4.66666666666667  12.0486111111111 5.17361111111111  10.3125 6.1875  C 8.57638888888889 7.20138888888889  7.20138888888889 8.57638888888889  6.1875 10.3125  C 5.17361111111111 12.0486111111111  4.66666666666667 13.9444444444444  4.66666666666667 16  C 4.66666666666667 18.0555555555556  5.17361111111111 19.9513888888889  6.1875 21.6875  C 7.20138888888889 23.4236111111111  8.57638888888889 24.7986111111111  10.3125 25.8125  C 12.0486111111111 26.8263888888889  13.9444444444444 27.3333333333333  16 27.3333333333333  C 18.0555555555556 27.3333333333333  19.9513888888889 26.8263888888889  21.6875 25.8125  C 23.4236111111111 24.7986111111111  24.7986111111111 23.4236111111111  25.8125 21.6875  Z M 29.8541666666667 7.96875  C 31.2847222222222 10.4201388888889  32 13.0972222222222  32 16  C 32 18.9027777777778  31.2847222222222 21.5798611111111  29.8541666666667 24.03125  C 28.4236111111111 26.4826388888889  26.4826388888889 28.4236111111111  24.03125 29.8541666666667  C 21.5798611111111 31.2847222222222  18.9027777777778 32  16 32  C 13.0972222222222 32  10.4201388888889 31.2847222222222  7.96875 29.8541666666667  C 5.51736111111111 28.4236111111111  3.57638888888889 26.4826388888889  2.14583333333333 24.03125  C 0.715277777777778 21.5798611111111  0 18.9027777777778  0 16  C 0 13.0972222222222  0.715277777777778 10.4201388888889  2.14583333333333 7.96875  C 3.57638888888889 5.51736111111111  5.51736111111111 3.57638888888889  7.96875 2.14583333333333  C 10.4201388888889 0.715277777777775  13.0972222222222 0  16 0  C 18.9027777777778 0  21.5798611111111 0.715277777777775  24.03125 2.14583333333333  C 26.4826388888889 3.57638888888889  28.4236111111111 5.51736111111111  29.8541666666667 7.96875  Z " fill-rule="nonzero" fill="#d7d7d7" stroke="none" transform="matrix(1 0 0 1 191 154 )" />
  </g>
</svg>