<?xml version="1.0" encoding="utf-8"?>
<svg version="1.1" xmlns:xlink="http://www.w3.org/1999/xlink" width="17px" height="24px" xmlns="http://www.w3.org/2000/svg">
  <g transform="matrix(1 0 0 1 -132 -239 )">
    <path d="M 10.3539435248296 23.8380681818182  C 10.2491074326517 23.9460227272727  10.1249594287569 24  9.98149951314508 24  L 7.13437195715677 24  C 6.99091204154495 24  6.86676403765011 23.9488636363636  6.76192794547225 23.8465909090909  C 6.65709185329439 23.7443181818182  6.60467380720545 23.6136363636364  6.60467380720545 23.4545454545455  L 6.60467380720545 17.8295454545455  L 1.83739045764362 17.8295454545455  C 1.69393054203181 17.8295454545455  1.56978253813697 17.7784090909091  1.4649464459591 17.6761363636364  C 1.36011035378124 17.5738636363636  1.30769230769231 17.4431818181818  1.30769230769231 17.2840909090909  L 1.30769230769231 15.5284090909091  C 1.30769230769231 15.3806818181818  1.36011035378124 15.2528409090909  1.4649464459591 15.1448863636364  C 1.56978253813697 15.0369318181818  1.69393054203181 14.9829545454545  1.83739045764362 14.9829545454545  L 6.60467380720545 14.9829545454545  L 6.60467380720545 13.5340909090909  L 1.83739045764362 13.5340909090909  C 1.69393054203181 13.5340909090909  1.56978253813697 13.4829545454545  1.4649464459591 13.3806818181818  C 1.36011035378124 13.2784090909091  1.30769230769231 13.1477272727273  1.30769230769231 12.9886363636364  L 1.30769230769231 11.2159090909091  C 1.30769230769231 11.0681818181818  1.36011035378124 10.9403409090909  1.4649464459591 10.8323863636364  C 1.56978253813697 10.7244318181818  1.69393054203181 10.6704545454545  1.83739045764362 10.6704545454545  L 5.37974683544304 10.6704545454545  L 0.0662122687439143 0.818181818181817  C -0.0220707562479714 0.636363636363636  -0.0220707562479714 0.454545454545451  0.0662122687439143 0.272727272727272  C 0.176566049983772 0.0909090909090908  0.331061343719572 0  0.529698149951314 0  L 3.74099318403116 0  C 3.95066536838689 0  4.11067835118468 0.102272727272728  4.22103213242454 0.306818181818183  L 7.77994157740993 7.55113636363636  C 7.98961376176566 7.98295454545454  8.29860434923726 8.69318181818182  8.70691333982473 9.68181818181818  C 8.81726712106459 9.40909090909091  8.98555663745537 9.02272727272727  9.21178188899708 8.52272727272727  C 9.43800714053879 8.02272727272727  9.58974358974359 7.67613636363636  9.66699123661149 7.48295454545455  L 12.8286270691334 0.323863636363638  C 12.9169100941253 0.107954545454543  13.0769230769231 0  13.3086660175268 0  L 16.4703018500487 0  C 16.6579032781564 0  16.8068808828302 0.0909090909090908  16.9172346640701 0.272727272727272  C 17.016553067186 0.431818181818181  17.022070756248 0.607954545454544  16.9337877312561 0.801136363636362  L 11.7526777020448 10.6704545454545  L 15.3115871470302 10.6704545454545  C 15.455047062642 10.6704545454545  15.5791950665368 10.7244318181818  15.6840311587147 10.8323863636364  C 15.7888672508926 10.9403409090909  15.8412852969815 11.0681818181818  15.8412852969815 11.2159090909091  L 15.8412852969815 12.9886363636364  C 15.8412852969815 13.1477272727273  15.7888672508926 13.2784090909091  15.6840311587147 13.3806818181818  C 15.5791950665368 13.4829545454545  15.455047062642 13.5340909090909  15.3115871470302 13.5340909090909  L 10.5111976630964 13.5340909090909  L 10.5111976630964 14.9829545454545  L 15.3115871470302 14.9829545454545  C 15.455047062642 14.9829545454545  15.5791950665368 15.0369318181818  15.6840311587147 15.1448863636364  C 15.7888672508926 15.2528409090909  15.8412852969815 15.3806818181818  15.8412852969815 15.5284090909091  L 15.8412852969815 17.2840909090909  C 15.8412852969815 17.4431818181818  15.7888672508926 17.5738636363636  15.6840311587147 17.6761363636364  C 15.5791950665368 17.7784090909091  15.455047062642 17.8295454545455  15.3115871470302 17.8295454545455  L 10.5111976630964 17.8295454545455  L 10.5111976630964 23.4545454545455  C 10.5111976630964 23.6022727272727  10.4587796170075 23.7301136363636  10.3539435248296 23.8380681818182  Z " fill-rule="nonzero" fill="#555555" stroke="none" transform="matrix(1 0 0 1 132 239 )" />
  </g>
</svg>