<?xml version="1.0" encoding="utf-8"?>
<svg version="1.1" xmlns:xlink="http://www.w3.org/1999/xlink" width="12px" height="12px" viewBox="587 1144.5  12 12" xmlns="http://www.w3.org/2000/svg">
  <path d="M 593 1144.5  C 596.36 1144.5  599 1147.14  599 1150.5  C 599 1153.86  596.36 1156.5  593 1156.5  C 589.64 1156.5  587 1153.86  587 1150.5  C 587 1147.14  589.64 1144.5  593 1144.5  Z " fill-rule="nonzero" fill="#f0f0f0" stroke="none" />
  <path d="M 593 1145  C 596.08 1145  598.5 1147.42  598.5 1150.5  C 598.5 1153.58  596.08 1156  593 1156  C 589.92 1156  587.5 1153.58  587.5 1150.5  C 587.5 1147.42  589.92 1145  593 1145  Z " stroke-width="1" stroke="#797979" fill="none" />
  <path d="M 593 1153.5  C 591.32 1153.5  590 1152.18  590 1150.5  C 590 1148.82  591.32 1147.5  593 1147.5  C 594.68 1147.5  596 1148.82  596 1150.5  C 596 1152.18  594.68 1153.5  593 1153.5  " fill-rule="nonzero" fill="#797979" stroke="none" />
</svg>