<?xml version="1.0" encoding="utf-8"?>
<svg version="1.1" xmlns:xlink="http://www.w3.org/1999/xlink" width="12px" height="12px" viewBox="587 1058.5  12 12" xmlns="http://www.w3.org/2000/svg">
  <path d="M 593 1058.5  C 596.36 1058.5  599 1061.14  599 1064.5  C 599 1067.86  596.36 1070.5  593 1070.5  C 589.64 1070.5  587 1067.86  587 1064.5  C 587 1061.14  589.64 1058.5  593 1058.5  Z " fill-rule="nonzero" fill="#ffffff" stroke="none" />
  <path d="M 593 1059  C 596.08 1059  598.5 1061.42  598.5 1064.5  C 598.5 1067.58  596.08 1070  593 1070  C 589.92 1070  587.5 1067.58  587.5 1064.5  C 587.5 1061.42  589.92 1059  593 1059  Z " stroke-width="1" stroke="#797979" fill="none" />
  <path d="M 593 1067.5  C 591.32 1067.5  590 1066.18  590 1064.5  C 590 1062.82  591.32 1061.5  593 1061.5  C 594.68 1061.5  596 1062.82  596 1064.5  C 596 1066.18  594.68 1067.5  593 1067.5  " fill-rule="nonzero" fill="#797979" stroke="none" />
</svg>