<?xml version="1.0" encoding="utf-8"?>
<svg version="1.1" xmlns:xlink="http://www.w3.org/1999/xlink" width="12px" height="12px" viewBox="502 1144.5  12 12" xmlns="http://www.w3.org/2000/svg">
  <path d="M 508 1144.5  C 511.36 1144.5  514 1147.14  514 1150.5  C 514 1153.86  511.36 1156.5  508 1156.5  C 504.64 1156.5  502 1153.86  502 1150.5  C 502 1147.14  504.64 1144.5  508 1144.5  Z " fill-rule="nonzero" fill="#ffffff" stroke="none" />
  <path d="M 508 1145  C 511.08 1145  513.5 1147.42  513.5 1150.5  C 513.5 1153.58  511.08 1156  508 1156  C 504.92 1156  502.5 1153.58  502.5 1150.5  C 502.5 1147.42  504.92 1145  508 1145  Z " stroke-width="1" stroke="#797979" fill="none" />
  <path d="M 508 1153.5  C 506.32 1153.5  505 1152.18  505 1150.5  C 505 1148.82  506.32 1147.5  508 1147.5  C 509.68 1147.5  511 1148.82  511 1150.5  C 511 1152.18  509.68 1153.5  508 1153.5  " fill-rule="nonzero" fill="#797979" stroke="none" />
</svg>