<?xml version="1.0" encoding="utf-8"?>
<svg version="1.1" xmlns:xlink="http://www.w3.org/1999/xlink" width="12px" height="12px" viewBox="587 974.5  12 12" xmlns="http://www.w3.org/2000/svg">
  <path d="M 593 974.5  C 596.36 974.5  599 977.14  599 980.5  C 599 983.86  596.36 986.5  593 986.5  C 589.64 986.5  587 983.86  587 980.5  C 587 977.14  589.64 974.5  593 974.5  Z " fill-rule="nonzero" fill="#f0f0f0" stroke="none" />
  <path d="M 593 975  C 596.08 975  598.5 977.42  598.5 980.5  C 598.5 983.58  596.08 986  593 986  C 589.92 986  587.5 983.58  587.5 980.5  C 587.5 977.42  589.92 975  593 975  Z " stroke-width="1" stroke="#797979" fill="none" />
  <path d="M 593 983.5  C 591.32 983.5  590 982.18  590 980.5  C 590 978.82  591.32 977.5  593 977.5  C 594.68 977.5  596 978.82  596 980.5  C 596 982.18  594.68 983.5  593 983.5  " fill-rule="nonzero" fill="#797979" stroke="none" />
</svg>