<?xml version="1.0" encoding="utf-8"?>
<svg version="1.1" xmlns:xlink="http://www.w3.org/1999/xlink" width="12px" height="12px" viewBox="613 532.5  12 12" xmlns="http://www.w3.org/2000/svg">
  <path d="M 619 532.5  C 622.36 532.5  625 535.14  625 538.5  C 625 541.86  622.36 544.5  619 544.5  C 615.64 544.5  613 541.86  613 538.5  C 613 535.14  615.64 532.5  619 532.5  Z " fill-rule="nonzero" fill="#ffffff" stroke="none" />
  <path d="M 619 533  C 622.08 533  624.5 535.42  624.5 538.5  C 624.5 541.58  622.08 544  619 544  C 615.92 544  613.5 541.58  613.5 538.5  C 613.5 535.42  615.92 533  619 533  Z " stroke-width="1" stroke="#797979" fill="none" />
  <path d="M 619 541.5  C 617.32 541.5  616 540.18  616 538.5  C 616 536.82  617.32 535.5  619 535.5  C 620.68 535.5  622 536.82  622 538.5  C 622 540.18  620.68 541.5  619 541.5  " fill-rule="nonzero" fill="#797979" stroke="none" />
</svg>