<?xml version="1.0" encoding="utf-8"?>
<svg version="1.1" xmlns:xlink="http://www.w3.org/1999/xlink" width="12px" height="12px" viewBox="587 1289.5  12 12" xmlns="http://www.w3.org/2000/svg">
  <path d="M 593 1289.5  C 596.36 1289.5  599 1292.14  599 1295.5  C 599 1298.86  596.36 1301.5  593 1301.5  C 589.64 1301.5  587 1298.86  587 1295.5  C 587 1292.14  589.64 1289.5  593 1289.5  Z " fill-rule="nonzero" fill="#ffffff" stroke="none" />
  <path d="M 593 1290  C 596.08 1290  598.5 1292.42  598.5 1295.5  C 598.5 1298.58  596.08 1301  593 1301  C 589.92 1301  587.5 1298.58  587.5 1295.5  C 587.5 1292.42  589.92 1290  593 1290  Z " stroke-width="1" stroke="#797979" fill="none" />
  <path d="M 593 1298.5  C 591.32 1298.5  590 1297.18  590 1295.5  C 590 1293.82  591.32 1292.5  593 1292.5  C 594.68 1292.5  596 1293.82  596 1295.5  C 596 1297.18  594.68 1298.5  593 1298.5  " fill-rule="nonzero" fill="#797979" stroke="none" />
</svg>