<?xml version="1.0" encoding="utf-8"?>
<svg version="1.1" xmlns:xlink="http://www.w3.org/1999/xlink" width="12px" height="12px" viewBox="502 1365.5  12 12" xmlns="http://www.w3.org/2000/svg">
  <path d="M 508 1365.5  C 511.36 1365.5  514 1368.14  514 1371.5  C 514 1374.86  511.36 1377.5  508 1377.5  C 504.64 1377.5  502 1374.86  502 1371.5  C 502 1368.14  504.64 1365.5  508 1365.5  Z " fill-rule="nonzero" fill="#f0f0f0" stroke="none" />
  <path d="M 508 1366  C 511.08 1366  513.5 1368.42  513.5 1371.5  C 513.5 1374.58  511.08 1377  508 1377  C 504.92 1377  502.5 1374.58  502.5 1371.5  C 502.5 1368.42  504.92 1366  508 1366  Z " stroke-width="1" stroke="#797979" fill="none" />
  <path d="M 508 1374.5  C 506.32 1374.5  505 1373.18  505 1371.5  C 505 1369.82  506.32 1368.5  508 1368.5  C 509.68 1368.5  511 1369.82  511 1371.5  C 511 1373.18  509.68 1374.5  508 1374.5  " fill-rule="nonzero" fill="#797979" stroke="none" />
</svg>