<?xml version="1.0" encoding="utf-8"?>
<svg version="1.1" xmlns:xlink="http://www.w3.org/1999/xlink" width="12px" height="12px" viewBox="504 467.5  12 12" xmlns="http://www.w3.org/2000/svg">
  <path d="M 510 467.5  C 513.36 467.5  516 470.14  516 473.5  C 516 476.86  513.36 479.5  510 479.5  C 506.64 479.5  504 476.86  504 473.5  C 504 470.14  506.64 467.5  510 467.5  Z " fill-rule="nonzero" fill="#f0f0f0" stroke="none" />
  <path d="M 510 468  C 513.08 468  515.5 470.42  515.5 473.5  C 515.5 476.58  513.08 479  510 479  C 506.92 479  504.5 476.58  504.5 473.5  C 504.5 470.42  506.92 468  510 468  Z " stroke-width="1" stroke="#797979" fill="none" />
  <path d="M 510 476.5  C 508.32 476.5  507 475.18  507 473.5  C 507 471.82  508.32 470.5  510 470.5  C 511.68 470.5  513 471.82  513 473.5  C 513 475.18  511.68 476.5  510 476.5  " fill-rule="nonzero" fill="#797979" stroke="none" />
</svg>