<?xml version="1.0" encoding="utf-8"?>
<svg version="1.1" xmlns:xlink="http://www.w3.org/1999/xlink" width="12px" height="12px" viewBox="624 467.5  12 12" xmlns="http://www.w3.org/2000/svg">
  <path d="M 630 467.5  C 633.36 467.5  636 470.14  636 473.5  C 636 476.86  633.36 479.5  630 479.5  C 626.64 479.5  624 476.86  624 473.5  C 624 470.14  626.64 467.5  630 467.5  Z " fill-rule="nonzero" fill="#ffffff" stroke="none" />
  <path d="M 630 468  C 633.08 468  635.5 470.42  635.5 473.5  C 635.5 476.58  633.08 479  630 479  C 626.92 479  624.5 476.58  624.5 473.5  C 624.5 470.42  626.92 468  630 468  Z " stroke-width="1" stroke="#797979" fill="none" />
  <path d="M 630 476.5  C 628.32 476.5  627 475.18  627 473.5  C 627 471.82  628.32 470.5  630 470.5  C 631.68 470.5  633 471.82  633 473.5  C 633 475.18  631.68 476.5  630 476.5  " fill-rule="nonzero" fill="#797979" stroke="none" />
</svg>