<svg t="1587009194948" class="icon" viewBox="0 0 1024 1024" version="1.1" xmlns="http://www.w3.org/2000/svg" p-id="10615" width="200" height="200"><path d="M896 1024l-768 0C57.3952 1024 0 966.6048 0 896l0-768C0 57.4464 57.3952 0 128 0l768 0C966.6048 0 1024 57.4464 1024 128l0 768C1024 966.6048 966.6048 1024 896 1024zM128 51.2C85.6576 51.2 51.2 85.6576 51.2 128l0 768C51.2 938.3424 85.6576 972.8 128 972.8l768 0c42.3424 0 76.8-34.4576 76.8-76.8l0-768C972.8 85.6576 938.3424 51.2 896 51.2L128 51.2z" p-id="10616" fill="#2c2c2c"></path><path d="M244.263281 186.704241l614.409938 614.409938-36.20352 36.20352-614.409938-614.409938 36.20352-36.20352Z" p-id="10617" fill="#2c2c2c"></path><path d="M822.433495 186.704241l36.20352 36.20352-614.409938 614.409938-36.20352-36.20352 614.409938-614.409938Z" p-id="10618" fill="#2c2c2c"></path></svg>