<?xml version="1.0" encoding="utf-8"?>
<svg version="1.1" xmlns:xlink="http://www.w3.org/1999/xlink" width="212px" height="153px" xmlns="http://www.w3.org/2000/svg">
  <g transform="matrix(1 0 0 1 -1645 -395 )">
    <path d="M 1645 395  L 1857 395  L 1857 548  L 1645 548  L 1645 395  " fill-rule="nonzero" fill="#cccccc" stroke="none" />
    <path d="M 1656 406  L 1846 406  L 1846 537  L 1656 537  L 1656 406  " fill-rule="nonzero" fill="#ffffff" stroke="none" />
    <path d="M 1766.715 440.9  C 1760.289 440.9  1755.24 435.851  1755.24 429.425  C 1755.24 422.999  1760.289 417.95  1766.715 417.95  C 1773.141 417.95  1778.19 422.999  1778.19 429.425  C 1778.19 435.851  1773.141 440.9  1766.715 440.9  " fill-rule="nonzero" fill="#cccccc" stroke="none" />
    <path d="M 1660 533  L 1660 465.35  L 1705.5 434.6  L 1769.2 479.738679245283  L 1805.6 453.05  L 1842 479.738679245283  L 1842 533  L 1660 533  " fill-rule="nonzero" fill="#169bd5" stroke="none" />
  </g>
</svg>