<?xml version="1.0" encoding="utf-8"?>
<svg version="1.1" xmlns:xlink="http://www.w3.org/1999/xlink" width="11px" height="6px" xmlns="http://www.w3.org/2000/svg">
  <g transform="matrix(1 0 0 1 -54 -91 )">
    <path d="M 8.16713169642857 4.70052083333333  C 8.98763020833333 4.27864583333333  9.67001488095238 3.71180555555555  10.2142857142857 3  C 9.59226190476191 2.18055555555556  8.81268601190476 1.56770833333333  7.87555803571429 1.16145833333333  C 8.12518601190476 1.52256944444444  8.25 1.91319444444444  8.25 2.33333333333333  C 8.25 2.97569444444444  7.98093377976191 3.52517361111111  7.44280133928571 3.98177083333333  C 6.90466889880952 4.43836805555555  6.25706845238095 4.66666666666667  5.5 4.66666666666667  C 4.74293154761905 4.66666666666667  4.09533110119048 4.43836805555555  3.55719866071429 3.98177083333333  C 3.0190662202381 3.52517361111111  2.75 2.97569444444444  2.75 2.33333333333333  C 2.75 1.91319444444444  2.87481398809524 1.52256944444444  3.12444196428571 1.16145833333333  C 2.18731398809524 1.56770833333333  1.4077380952381 2.18055555555556  0.785714285714286 3  C 1.32998511904762 3.71180555555555  2.01236979166667 4.27864583333333  2.83286830357143 4.70052083333333  C 3.65336681547619 5.12239583333333  4.54241071428571 5.33333333333333  5.5 5.33333333333333  C 6.45758928571429 5.33333333333333  7.34663318452381 5.12239583333333  8.16713169642857 4.70052083333333  Z M 5.70870535714286 1.17708333333333  C 5.76599702380952 1.12847222222222  5.79464285714286 1.06944444444444  5.79464285714286 1  C 5.79464285714286 0.930555555555555  5.76599702380952 0.871527777777777  5.70870535714286 0.822916666666667  C 5.65141369047619 0.774305555555555  5.58184523809524 0.749999999999999  5.5 0.75  C 4.98846726190476 0.749999999999999  4.54957217261905 0.905381944444444  4.18331473214286 1.21614583333333  C 3.81705729166667 1.52690972222222  3.63392857142857 1.89930555555556  3.63392857142857 2.33333333333333  C 3.63392857142857 2.40277777777778  3.66257440476191 2.46180555555556  3.71986607142857 2.51041666666667  C 3.77715773809524 2.55902777777778  3.84672619047619 2.58333333333333  3.92857142857143 2.58333333333333  C 4.01041666666667 2.58333333333333  4.07998511904762 2.55902777777778  4.13727678571429 2.51041666666667  C 4.19456845238095 2.46180555555556  4.22321428571429 2.40277777777778  4.22321428571429 2.33333333333333  C 4.22321428571429 2.03472222222222  4.34802827380952 1.77951388888889  4.59765625 1.56770833333333  C 4.84728422619048 1.35590277777778  5.14806547619048 1.25  5.5 1.25  C 5.58184523809524 1.25  5.65141369047619 1.22569444444444  5.70870535714286 1.17708333333333  Z M 10.8772321428571 2.640625  C 10.9590773809524 2.76215277777778  11 2.88194444444444  11 3  C 11 3.11805555555555  10.9590773809524 3.23784722222222  10.8772321428571 3.359375  C 10.3043154761905 4.15798611111111  9.53394717261905 4.79774305555556  8.56612723214286 5.27864583333333  C 7.59830729166667 5.75954861111111  6.57626488095238 6  5.5 6  C 4.42373511904762 6  3.40169270833333 5.75868055555556  2.43387276785714 5.27604166666667  C 1.46605282738095 4.79340277777778  0.695684523809524 4.15451388888889  0.122767857142857 3.359375  C 0.040922619047619 3.23784722222222  0 3.11805555555555  0 3  C 0 2.88194444444444  0.040922619047619 2.76215277777778  0.122767857142857 2.640625  C 0.695684523809524 1.84548611111111  1.46605282738095 1.20659722222222  2.43387276785714 0.723958333333333  C 3.40169270833333 0.241319444444444  4.42373511904762 0  5.5 0  C 6.57626488095238 0  7.59830729166667 0.241319444444444  8.56612723214286 0.723958333333333  C 9.53394717261905 1.20659722222222  10.3043154761905 1.84548611111111  10.8772321428571 2.640625  Z " fill-rule="nonzero" fill="#aaaaaa" stroke="none" transform="matrix(1 0 0 1 54 91 )" />
  </g>
</svg>