<?xml version="1.0" encoding="utf-8"?>
<svg version="1.1" xmlns:xlink="http://www.w3.org/1999/xlink" width="9px" height="9px" xmlns="http://www.w3.org/2000/svg">
  <g transform="matrix(1 0 0 1 -249 -89 )">
    <path d="M 5.197265625 7.447265625  C 5.232421875 7.412109375  5.25 7.3671875  5.25 7.3125  L 5.25 6.1875  C 5.25 6.1328125  5.232421875 6.087890625  5.197265625 6.052734375  C 5.162109375 6.017578125  5.1171875 6  5.0625 6  L 3.9375 6  C 3.8828125 6  3.837890625 6.017578125  3.802734375 6.052734375  C 3.767578125 6.087890625  3.75 6.1328125  3.75 6.1875  L 3.75 7.3125  C 3.75 7.3671875  3.767578125 7.412109375  3.802734375 7.447265625  C 3.837890625 7.482421875  3.8828125 7.5  3.9375 7.5  L 5.0625 7.5  C 5.1171875 7.5  5.162109375 7.482421875  5.197265625 7.447265625  Z M 6.6767578125 3.849609375  C 6.7255859375 3.705078125  6.75 3.546875  6.75 3.375  C 6.75 3.03125  6.6416015625 2.712890625  6.4248046875 2.419921875  C 6.2080078125 2.126953125  5.9375 1.900390625  5.61328125 1.740234375  C 5.2890625 1.580078125  4.95703125 1.5  4.6171875 1.5  C 3.66796875 1.5  2.943359375 1.916015625  2.443359375 2.748046875  C 2.384765625 2.841796875  2.400390625 2.923828125  2.490234375 2.994140625  L 3.263671875 3.580078125  C 3.291015625 3.603515625  3.328125 3.615234375  3.375 3.615234375  C 3.4375 3.615234375  3.486328125 3.591796875  3.521484375 3.544921875  C 3.728515625 3.279296875  3.896484375 3.099609375  4.025390625 3.005859375  C 4.158203125 2.912109375  4.326171875 2.865234375  4.529296875 2.865234375  C 4.716796875 2.865234375  4.8837890625 2.916015625  5.0302734375 3.017578125  C 5.1767578125 3.119140625  5.25 3.234375  5.25 3.36328125  C 5.25 3.51171875  5.2109375 3.630859375  5.1328125 3.720703125  C 5.0546875 3.810546875  4.921875 3.8984375  4.734375 3.984375  C 4.48828125 4.09375  4.2626953125 4.2626953125  4.0576171875 4.4912109375  C 3.8525390625 4.7197265625  3.75 4.96484375  3.75 5.2265625  L 3.75 5.4375  C 3.75 5.4921875  3.767578125 5.537109375  3.802734375 5.572265625  C 3.837890625 5.607421875  3.8828125 5.625  3.9375 5.625  L 5.0625 5.625  C 5.1171875 5.625  5.162109375 5.607421875  5.197265625 5.572265625  C 5.232421875 5.537109375  5.25 5.4921875  5.25 5.4375  C 5.25 5.36328125  5.2919921875 5.2666015625  5.3759765625 5.1474609375  C 5.4599609375 5.0283203125  5.56640625 4.931640625  5.6953125 4.857421875  C 5.8203125 4.787109375  5.916015625 4.7314453125  5.982421875 4.6904296875  C 6.048828125 4.6494140625  6.138671875 4.5810546875  6.251953125 4.4853515625  C 6.365234375 4.3896484375  6.4521484375 4.2958984375  6.5126953125 4.2041015625  C 6.5732421875 4.1123046875  6.6279296875 3.994140625  6.6767578125 3.849609375  Z M 8.396484375 2.2412109375  C 8.798828125 2.9306640625  9 3.68359375  9 4.5  C 9 5.31640625  8.798828125 6.0693359375  8.396484375 6.7587890625  C 7.994140625 7.4482421875  7.4482421875 7.994140625  6.7587890625 8.396484375  C 6.0693359375 8.798828125  5.31640625 9  4.5 9  C 3.68359375 9  2.9306640625 8.798828125  2.2412109375 8.396484375  C 1.5517578125 7.994140625  1.005859375 7.4482421875  0.603515625 6.7587890625  C 0.201171875 6.0693359375  0 5.31640625  0 4.5  C 0 3.68359375  0.201171875 2.9306640625  0.603515625 2.2412109375  C 1.005859375 1.5517578125  1.5517578125 1.005859375  2.2412109375 0.603515625  C 2.9306640625 0.201171874999999  3.68359375 0  4.5 0  C 5.31640625 0  6.0693359375 0.201171874999999  6.7587890625 0.603515625  C 7.4482421875 1.005859375  7.994140625 1.5517578125  8.396484375 2.2412109375  Z " fill-rule="nonzero" fill="#aaaaaa" stroke="none" transform="matrix(1 0 0 1 249 89 )" />
  </g>
</svg>