<?xml version="1.0" encoding="utf-8"?>
<svg version="1.1" xmlns:xlink="http://www.w3.org/1999/xlink" width="9px" height="9px" xmlns="http://www.w3.org/2000/svg">
  <g transform="matrix(1 0 0 1 -40 -136 )">
    <path d="M 3.9375 7.53515625  C 4.0390625 7.53515625  4.126953125 7.498046875  4.201171875 7.423828125  L 6.861328125 4.763671875  C 6.935546875 4.689453125  6.97265625 4.6015625  6.97265625 4.5  C 6.97265625 4.3984375  6.935546875 4.310546875  6.861328125 4.236328125  L 4.201171875 1.576171875  C 4.126953125 1.501953125  4.0390625 1.46484375  3.9375 1.46484375  C 3.8359375 1.46484375  3.748046875 1.501953125  3.673828125 1.576171875  L 3.076171875 2.173828125  C 3.001953125 2.248046875  2.96484375 2.3359375  2.96484375 2.4375  C 2.96484375 2.5390625  3.001953125 2.626953125  3.076171875 2.701171875  L 4.875 4.5  L 3.076171875 6.298828125  C 3.001953125 6.373046875  2.96484375 6.4609375  2.96484375 6.5625  C 2.96484375 6.6640625  3.001953125 6.751953125  3.076171875 6.826171875  L 3.673828125 7.423828125  C 3.748046875 7.498046875  3.8359375 7.53515625  3.9375 7.53515625  Z M 8.396484375 2.2412109375  C 8.798828125 2.9306640625  9 3.68359375  9 4.5  C 9 5.31640625  8.798828125 6.0693359375  8.396484375 6.7587890625  C 7.994140625 7.4482421875  7.4482421875 7.994140625  6.7587890625 8.396484375  C 6.0693359375 8.798828125  5.31640625 9  4.5 9  C 3.68359375 9  2.9306640625 8.798828125  2.2412109375 8.396484375  C 1.5517578125 7.994140625  1.005859375 7.4482421875  0.603515625 6.7587890625  C 0.201171875 6.0693359375  0 5.31640625  0 4.5  C 0 3.68359375  0.201171875 2.9306640625  0.603515625 2.2412109375  C 1.005859375 1.5517578125  1.5517578125 1.005859375  2.2412109375 0.603515625  C 2.9306640625 0.201171874999999  3.68359375 0  4.5 0  C 5.31640625 0  6.0693359375 0.201171874999999  6.7587890625 0.603515625  C 7.4482421875 1.005859375  7.994140625 1.5517578125  8.396484375 2.2412109375  Z " fill-rule="nonzero" fill="#aaaaaa" stroke="none" transform="matrix(1 0 0 1 40 136 )" />
  </g>
</svg>