<?xml version="1.0" encoding="utf-8"?>
<svg version="1.1" xmlns:xlink="http://www.w3.org/1999/xlink" width="19px" height="14px" xmlns="http://www.w3.org/2000/svg">
  <g transform="matrix(1 0 0 1 -380 -43 )">
    <path d="M 6.38811383928571 5.00846354166667  C 6.65318080357143 5.236328125  6.78571428571429 5.51128472222222  6.78571428571429 5.83333333333333  C 6.78571428571429 6.15538194444444  6.65318080357143 6.43033854166667  6.38811383928571 6.658203125  C 6.123046875 6.88606770833333  5.80319940476191 7  5.42857142857143 7  C 5.05394345238095 7  4.73409598214286 6.88606770833333  4.46902901785714 6.658203125  C 4.20396205357143 6.43033854166667  4.07142857142857 6.15538194444444  4.07142857142857 5.83333333333333  C 4.07142857142857 5.51128472222222  4.20396205357143 5.236328125  4.46902901785714 5.00846354166667  C 4.73409598214286 4.78059895833333  5.05394345238095 4.66666666666667  5.42857142857143 4.66666666666667  C 5.80319940476191 4.66666666666667  6.123046875 4.78059895833333  6.38811383928571 5.00846354166667  Z M 10.4595424107143 5.00846354166667  C 10.724609375 5.236328125  10.8571428571429 5.51128472222222  10.8571428571429 5.83333333333333  C 10.8571428571429 6.15538194444444  10.724609375 6.43033854166667  10.4595424107143 6.658203125  C 10.1944754464286 6.88606770833333  9.87462797619048 7  9.5 7  C 9.12537202380953 7  8.80552455357143 6.88606770833333  8.54045758928571 6.658203125  C 8.275390625 6.43033854166667  8.14285714285714 6.15538194444444  8.14285714285714 5.83333333333333  C 8.14285714285714 5.51128472222222  8.275390625 5.236328125  8.54045758928571 5.00846354166667  C 8.80552455357143 4.78059895833333  9.12537202380953 4.66666666666667  9.5 4.66666666666667  C 9.87462797619048 4.66666666666667  10.1944754464286 4.78059895833333  10.4595424107143 5.00846354166667  Z M 14.5309709821429 5.00846354166667  C 14.7960379464286 5.236328125  14.9285714285714 5.51128472222222  14.9285714285714 5.83333333333333  C 14.9285714285714 6.15538194444444  14.7960379464286 6.43033854166667  14.5309709821429 6.658203125  C 14.2659040178571 6.88606770833333  13.946056547619 7  13.5714285714286 7  C 13.1968005952381 7  12.876953125 6.88606770833333  12.6118861607143 6.658203125  C 12.3468191964286 6.43033854166667  12.2142857142857 6.15538194444444  12.2142857142857 5.83333333333333  C 12.2142857142857 5.51128472222222  12.3468191964286 5.236328125  12.6118861607143 5.00846354166667  C 12.876953125 4.78059895833333  13.1968005952381 4.66666666666667  13.5714285714286 4.66666666666667  C 13.946056547619 4.66666666666667  14.2659040178571 4.78059895833333  14.5309709821429 5.00846354166667  Z M 13.544921875 1.80013020833333  C 12.290271577381 1.37782118055555  10.9419642857143 1.16666666666667  9.5 1.16666666666667  C 8.05803571428571 1.16666666666667  6.70972842261905 1.37782118055555  5.455078125 1.80013020833333  C 4.20042782738095 2.22243923611111  3.20377604166667 2.79210069444444  2.46512276785714 3.50911458333333  C 1.72646949404762 4.22612847222222  1.35714285714286 5.00086805555555  1.35714285714286 5.83333333333333  C 1.35714285714286 6.51388888888889  1.6098400297619 7.16254340277778  2.115234375 7.779296875  C 2.6206287202381 8.39605034722222  3.33277529761905 8.92925347222222  4.25167410714286 9.37890625  L 5.17410714285714 9.83463541666667  L 4.88783482142857 10.7096354166667  C 4.71819196428571 11.2625868055556  4.47079613095238 11.78515625  4.14564732142857 12.27734375  C 5.22005208333333 11.89453125  6.19196428571429 11.375  7.06138392857143 10.71875  L 7.51729910714286 10.3723958333333  L 8.12165178571429 10.4270833333333  C 8.609375 10.4756944444444  9.06882440476191 10.5  9.5 10.5  C 10.9419642857143 10.5  12.290271577381 10.2888454861111  13.544921875 9.86653645833333  C 14.799572172619 9.44422743055555  15.7962239583333 8.87456597222222  16.5348772321429 8.15755208333333  C 17.2735305059524 7.44053819444444  17.6428571428571 6.66579861111111  17.6428571428571 5.83333333333333  C 17.6428571428571 5.00086805555555  17.2735305059524 4.22612847222222  16.5348772321429 3.50911458333333  C 15.7962239583333 2.79210069444444  14.799572172619 2.22243923611111  13.544921875 1.80013020833333  Z M 18.2472098214286 3.568359375  C 18.7490699404762 4.28841145833333  19 5.04340277777778  19 5.83333333333333  C 19 6.890625  18.5758928571429 7.86740451388889  17.7276785714286 8.763671875  C 16.8794642857143 9.65993923611111  15.727306547619 10.3678385416667  14.2712053571429 10.8873697916667  C 12.8151041666667 11.4069010416667  11.2247023809524 11.6666666666667  9.5 11.6666666666667  C 9.00520833333333 11.6666666666667  8.49274553571429 11.6423611111111  7.96261160714286 11.59375  C 6.56305803571429 12.6571180555556  4.93731398809524 13.3923611111111  3.08537946428571 13.7994791666667  C 2.73902529761905 13.8845486111111  2.33612351190476 13.9513888888889  1.87667410714286 14  L 1.82366071428571 14  C 1.71763392857143 14  1.62220982142857 13.9680989583333  1.53738839285714 13.904296875  C 1.45256696428571 13.8404947916667  1.3960193452381 13.7569444444444  1.36774553571429 13.6536458333333  L 1.36774553571429 13.64453125  C 1.34654017857143 13.6202256944444  1.34477306547619 13.5837673611111  1.36244419642857 13.53515625  C 1.38011532738095 13.4865451388889  1.3871837797619 13.4561631944444  1.38364955357143 13.4440104166667  C 1.38011532738095 13.4318576388889  1.3960193452381 13.4029947916667  1.43136160714286 13.357421875  L 1.49497767857143 13.275390625  C 1.49497767857143 13.275390625  1.51971726190476 13.2495659722222  1.56919642857143 13.1979166666667  C 1.6186755952381 13.1462673611111  1.6469494047619 13.1189236111111  1.65401785714286 13.1158854166667  C 1.70349702380952 13.0672743055556  1.81305803571429 12.9624565972222  1.98270089285714 12.8014322916667  C 2.15234375 12.6404079861111  2.27427455357143 12.5249565972222  2.34849330357143 12.455078125  C 2.42271205357143 12.3851996527778  2.53227306547619 12.2651909722222  2.67717633928571 12.0950520833333  C 2.82207961309524 11.9249131944444  2.93694196428571 11.7699652777778  3.02176339285714 11.6302083333333  C 3.10658482142857 11.4904513888889  3.20200892857143 11.3111979166667  3.30803571428571 11.0924479166667  C 3.4140625 10.8736979166667  3.50595238095238 10.6427951388889  3.58370535714286 10.3997395833333  C 2.47395833333333 9.85894097222222  1.59923735119048 9.19053819444444  0.959542410714286 8.39453125  C 0.319847470238095 7.59852430555555  0 6.74479166666667  0 5.83333333333333  C 0 5.04340277777778  0.250930059523809 4.28841145833333  0.752790178571428 3.568359375  C 1.25465029761905 2.84830729166667  1.9296875 2.22699652777778  2.77790178571429 1.70442708333333  C 3.62611607142857 1.18185763888889  4.63690476190476 0.76714409722222  5.81026785714286 0.460286458333333  C 6.98363095238095 0.153428819444444  8.21354166666667 0  9.5 0  C 10.7864583333333 0  12.016369047619 0.153428819444444  13.1897321428571 0.460286458333333  C 14.3630952380952 0.76714409722222  15.3738839285714 1.18185763888889  16.2220982142857 1.70442708333333  C 17.0703125 2.22699652777778  17.745349702381 2.84830729166667  18.2472098214286 3.568359375  Z " fill-rule="nonzero" fill="#d7d7d7" stroke="none" transform="matrix(1 0 0 1 380 43 )" />
  </g>
</svg>