<?xml version="1.0" encoding="utf-8"?>
<svg version="1.1" xmlns:xlink="http://www.w3.org/1999/xlink" width="11px" height="5px" xmlns="http://www.w3.org/2000/svg">
  <g transform="matrix(1 0 0 1 -362 -209 )">
    <path d="M 10.9363425925926 2.33420026007802  C 10.9787808641975 2.37754659731253  11 2.42739488513221  11 2.48374512353706  C 11 2.54442999566537  10.9787808641975 2.59644560034677  10.9363425925926 2.63979193758127  L 8.49189814814815 4.94148244473342  C 8.42399691358025 5.00216731686172  8.3497299382716 5.01517121803208  8.26909722222222 4.98049414824447  C 8.18846450617284 4.94148244473342  8.14814814814815 4.87863025574339  8.14814814814815 4.79193758127438  L 8.14814814814815 3.33550065019506  L 0.203703703703704 3.33550065019506  C 0.14429012345679 3.33550065019506  0.0954861111111111 3.31599479843953  0.0572916666666667 3.27698309492848  C 0.0190972222222222 3.23797139141743  0 3.18812310359775  0 3.12743823146944  L 0 1.87906371911573  C 0 1.81837884698743  0.0190972222222222 1.76853055916775  0.0572916666666667 1.7295188556567  C 0.0954861111111111 1.69050715214564  0.14429012345679 1.67100130039012  0.203703703703704 1.67100130039012  L 8.14814814814815 1.67100130039012  L 8.14814814814815 0.214564369310793  C 8.14814814814815 0.123537061118336  8.18846450617284 0.0606848721283049  8.26909722222222 0.0260078023407023  C 8.3497299382716 -0.00866926744690133  8.42399691358025 0.00216731686172478  8.49189814814815 0.0585175552665801  L 10.9363425925926 2.33420026007802  Z " fill-rule="nonzero" fill="#555555" stroke="none" transform="matrix(1 0 0 1 362 209 )" />
  </g>
</svg>