<?xml version="1.0" encoding="utf-8"?>
<svg version="1.1" xmlns:xlink="http://www.w3.org/1999/xlink" width="14px" height="16px" xmlns="http://www.w3.org/2000/svg">
  <g transform="matrix(1 0 0 1 -196 -1007 )">
    <path d="M 9.66145833333333 0.607142857142858  L 13.3802083333333 4.25  C 13.4652777777778 4.33333333333333  13.5503472222222 4.44047619047619  13.6354166666667 4.57142857142857  L 9.33333333333333 4.57142857142857  L 9.33333333333333 0.357142857142858  C 9.46701388888889 0.44047619047619  9.57638888888889 0.523809523809522  9.66145833333333 0.607142857142858  Z M 8.421875 5.46428571428571  C 8.59201388888889 5.63095238095238  8.79861111111111 5.71428571428571  9.04166666666667 5.71428571428571  L 14 5.71428571428571  L 14 15.1428571428571  C 14 15.3809523809524  13.9149305555556 15.5833333333333  13.7447916666667 15.75  C 13.5746527777778 15.9166666666667  13.3680555555556 16  13.125 16  L 0.875 16  C 0.631944444444445 16  0.425347222222222 15.9166666666667  0.255208333333333 15.75  C 0.0850694444444444 15.5833333333333  0 15.3809523809524  0 15.1428571428571  L 0 0.857142857142858  C 0 0.619047619047619  0.0850694444444444 0.416666666666666  0.255208333333333 0.25  C 0.425347222222222 0.0833333333333339  0.631944444444445 0  0.875 0  L 8.16666666666667 0  L 8.16666666666667 4.85714285714286  C 8.16666666666667 5.09523809523809  8.25173611111111 5.29761904761905  8.421875 5.46428571428571  Z M 10.41796875 12.4910714285714  C 10.47265625 12.4375  10.5 12.3690476190476  10.5 12.2857142857143  L 10.5 11.7142857142857  C 10.5 11.6309523809524  10.47265625 11.5625  10.41796875 11.5089285714286  C 10.36328125 11.4553571428571  10.2934027777778 11.4285714285714  10.2083333333333 11.4285714285714  L 3.79166666666667 11.4285714285714  C 3.70659722222222 11.4285714285714  3.63671875 11.4553571428571  3.58203125 11.5089285714286  C 3.52734375 11.5625  3.5 11.6309523809524  3.5 11.7142857142857  L 3.5 12.2857142857143  C 3.5 12.3690476190476  3.52734375 12.4375  3.58203125 12.4910714285714  C 3.63671875 12.5446428571429  3.70659722222222 12.5714285714286  3.79166666666667 12.5714285714286  L 10.2083333333333 12.5714285714286  C 10.2934027777778 12.5714285714286  10.36328125 12.5446428571429  10.41796875 12.4910714285714  Z M 10.41796875 10.2053571428571  C 10.47265625 10.1517857142857  10.5 10.0833333333333  10.5 10  L 10.5 9.42857142857143  C 10.5 9.34523809523809  10.47265625 9.27678571428572  10.41796875 9.22321428571428  C 10.36328125 9.16964285714286  10.2934027777778 9.14285714285714  10.2083333333333 9.14285714285714  L 3.79166666666667 9.14285714285714  C 3.70659722222222 9.14285714285714  3.63671875 9.16964285714286  3.58203125 9.22321428571428  C 3.52734375 9.27678571428572  3.5 9.34523809523809  3.5 9.42857142857143  L 3.5 10  C 3.5 10.0833333333333  3.52734375 10.1517857142857  3.58203125 10.2053571428571  C 3.63671875 10.2589285714286  3.70659722222222 10.2857142857143  3.79166666666667 10.2857142857143  L 10.2083333333333 10.2857142857143  C 10.2934027777778 10.2857142857143  10.36328125 10.2589285714286  10.41796875 10.2053571428571  Z M 10.41796875 7.91964285714286  C 10.47265625 7.86607142857143  10.5 7.79761904761905  10.5 7.71428571428571  L 10.5 7.14285714285714  C 10.5 7.05952380952381  10.47265625 6.99107142857143  10.41796875 6.9375  C 10.36328125 6.88392857142857  10.2934027777778 6.85714285714286  10.2083333333333 6.85714285714286  L 3.79166666666667 6.85714285714286  C 3.70659722222222 6.85714285714286  3.63671875 6.88392857142857  3.58203125 6.9375  C 3.52734375 6.99107142857143  3.5 7.05952380952381  3.5 7.14285714285714  L 3.5 7.71428571428571  C 3.5 7.79761904761905  3.52734375 7.86607142857143  3.58203125 7.91964285714286  C 3.63671875 7.97321428571429  3.70659722222222 8  3.79166666666667 8  L 10.2083333333333 8  C 10.2934027777778 8  10.36328125 7.97321428571429  10.41796875 7.91964285714286  Z " fill-rule="nonzero" fill="#aaaaaa" stroke="none" transform="matrix(1 0 0 1 196 1007 )" />
  </g>
</svg>