<?xml version="1.0" encoding="utf-8"?>
<svg version="1.1" xmlns:xlink="http://www.w3.org/1999/xlink" width="5px" height="10px" xmlns="http://www.w3.org/2000/svg">
  <g transform="matrix(1 0 0 1 -100 -198 )">
    <path d="M 4.8515625 8.31676136363636  C 4.95052083333333 8.40672348484848  5 8.51325757575758  5 8.63636363636364  L 5 9.54545454545455  C 5 9.66856060606061  4.95052083333333 9.7750946969697  4.8515625 9.86505681818182  C 4.75260416666667 9.95501893939394  4.63541666666667 10  4.5 10  L 0.5 10  C 0.364583333333333 10  0.247395833333333 9.95501893939394  0.1484375 9.86505681818182  C 0.0494791666666667 9.7750946969697  0 9.66856060606061  0 9.54545454545455  L 0 8.63636363636364  C 0 8.51325757575758  0.0494791666666667 8.40672348484848  0.1484375 8.31676136363636  C 0.247395833333333 8.22679924242424  0.364583333333333 8.18181818181818  0.5 8.18181818181818  L 1 8.18181818181818  L 1 5.45454545454545  L 0.5 5.45454545454545  C 0.364583333333333 5.45454545454545  0.247395833333333 5.40956439393939  0.1484375 5.31960227272727  C 0.0494791666666667 5.22964015151515  0 5.12310606060606  0 5  L 0 4.09090909090909  C 0 3.96780303030303  0.0494791666666667 3.86126893939394  0.1484375 3.77130681818182  C 0.247395833333333 3.6813446969697  0.364583333333333 3.63636363636364  0.5 3.63636363636364  L 3.5 3.63636363636364  C 3.63541666666667 3.63636363636364  3.75260416666667 3.6813446969697  3.8515625 3.77130681818182  C 3.95052083333333 3.86126893939394  4 3.96780303030303  4 4.09090909090909  L 4 8.18181818181818  L 4.5 8.18181818181818  C 4.63541666666667 8.18181818181818  4.75260416666667 8.22679924242424  4.8515625 8.31676136363636  Z M 3.8515625 0.134943181818182  C 3.95052083333333 0.224905303030302  4 0.331439393939393  4 0.454545454545454  L 4 1.81818181818182  C 4 1.94128787878788  3.95052083333333 2.04782196969697  3.8515625 2.13778409090909  C 3.75260416666667 2.22774621212121  3.63541666666667 2.27272727272727  3.5 2.27272727272727  L 1.5 2.27272727272727  C 1.36458333333333 2.27272727272727  1.24739583333333 2.22774621212121  1.1484375 2.13778409090909  C 1.04947916666667 2.04782196969697  1 1.94128787878788  1 1.81818181818182  L 1 0.454545454545454  C 1 0.331439393939393  1.04947916666667 0.224905303030302  1.1484375 0.134943181818182  C 1.24739583333333 0.0449810606060597  1.36458333333333 0  1.5 0  L 3.5 0  C 3.63541666666667 0  3.75260416666667 0.0449810606060597  3.8515625 0.134943181818182  Z " fill-rule="nonzero" fill="#aaaaaa" stroke="none" transform="matrix(1 0 0 1 100 198 )" />
  </g>
</svg>