<?xml version="1.0" encoding="utf-8"?>
<svg version="1.1" xmlns:xlink="http://www.w3.org/1999/xlink" width="51px" height="81px" xmlns="http://www.w3.org/2000/svg">
  <g transform="matrix(1 0 0 1 -386 -31 )">
    <path d="M 411 31.5  C 416.32 31.5  420.5 35.68  420.5 41  C 420.5 46.32  416.32 50.5  411 50.5  C 405.68 50.5  401.5 46.32  401.5 41  C 401.5 35.68  405.68 31.5  411 31.5  Z " fill-rule="nonzero" fill="#ffffff" stroke="none" />
    <path d="M 411 31.5  C 416.32 31.5  420.5 35.68  420.5 41  C 420.5 46.32  416.32 50.5  411 50.5  C 405.68 50.5  401.5 46.32  401.5 41  C 401.5 35.68  405.68 31.5  411 31.5  Z " stroke-width="1" stroke="#797979" fill="none" />
    <path d="M 386 61  L 436 61  M 411 51  L 411 86  M 391 111  L 411 86  M 411 86  L 431 111  " stroke-width="1" stroke="#797979" fill="none" />
  </g>
</svg>