<?xml version="1.0" encoding="utf-8"?>
<svg version="1.1" xmlns:xlink="http://www.w3.org/1999/xlink" width="93px" height="42px" xmlns="http://www.w3.org/2000/svg">
  <defs>
    <mask fill="white" id="clip17">
      <path d="M 80.3391089108911 0.177966101694919  L 11.279702970297 0.177966101694919  C 11.279702970297 0.177966101694919  0.712393756476626 9.33306300729356  0.690594059405942 21  C 0.668632893615173 32.7533531193821  11.279702970297 42  11.279702970297 42  L 80.3391089108911 42  C 80.3391089108911 42  92.1028338388319 32.7520720057963  92.0792079207921 21  C 92.0557505949232 9.33178959611344  80.3391089108911 0.177966101694919  80.3391089108911 0.177966101694919  Z " fill-rule="evenodd" />
    </mask>
  </defs>
  <g transform="matrix(1 0 0 1 -250 -630 )">
    <path d="M 80.3391089108911 0.177966101694919  L 11.279702970297 0.177966101694919  C 11.279702970297 0.177966101694919  0.712393756476626 9.33306300729356  0.690594059405942 21  C 0.668632893615173 32.7533531193821  11.279702970297 42  11.279702970297 42  L 80.3391089108911 42  C 80.3391089108911 42  92.1028338388319 32.7520720057963  92.0792079207921 21  C 92.0557505949232 9.33178959611344  80.3391089108911 0.177966101694919  80.3391089108911 0.177966101694919  Z " fill-rule="nonzero" fill="#ffffff" stroke="none" transform="matrix(1 0 0 1 250 630 )" />
    <path d="M 80.3391089108911 0.177966101694919  L 11.279702970297 0.177966101694919  C 11.279702970297 0.177966101694919  0.712393756476626 9.33306300729356  0.690594059405942 21  C 0.668632893615173 32.7533531193821  11.279702970297 42  11.279702970297 42  L 80.3391089108911 42  C 80.3391089108911 42  92.1028338388319 32.7520720057963  92.0792079207921 21  C 92.0557505949232 9.33178959611344  80.3391089108911 0.177966101694919  80.3391089108911 0.177966101694919  Z " stroke-width="2" stroke="#797979" fill="none" transform="matrix(1 0 0 1 250 630 )" mask="url(#clip17)" />
  </g>
</svg>