<?xml version="1.0" encoding="utf-8"?>
<svg version="1.1" xmlns:xlink="http://www.w3.org/1999/xlink" width="27px" height="21px" xmlns="http://www.w3.org/2000/svg">
  <g transform="matrix(1 0 0 1 -1041 -138 )">
    <path d="M 1.92857142857143 10.5  C 3.60602678571429 13.1875  5.75055803571429 15.140625  8.36216517857143 16.359375  L 9.53738839285714 14.15625  C 8.66350446428571 13.5  7.98046875 12.671875  7.48828125 11.671875  C 6.99609375 10.671875  6.75 9.61458333333333  6.75 8.5  C 6.75 7.23958333333333  7.05636160714286 6.06770833333333  7.66908482142857 4.984375  C 5.36886160714286 6.203125  3.45535714285714 8.04166666666667  1.92857142857143 10.5  Z M 14.0122767857143 5.03125  C 14.1529017857143 4.88541666666666  14.2232142857143 4.70833333333333  14.2232142857143 4.5  C 14.2232142857143 4.29166666666667  14.1529017857143 4.11458333333333  14.0122767857143 3.96875  C 13.8716517857143 3.82291666666666  13.7008928571429 3.75  13.5 3.75  C 12.2444196428571 3.75  11.1671316964286 4.21614583333333  10.2681361607143 5.1484375  C 9.369140625 6.08072916666667  8.91964285714286 7.19791666666667  8.91964285714286 8.5  C 8.91964285714286 8.70833333333333  8.98995535714286 8.88541666666667  9.13058035714286 9.03125  C 9.27120535714286 9.17708333333333  9.44196428571429 9.25  9.64285714285714 9.25  C 9.84375 9.25  10.0145089285714 9.17708333333333  10.1551339285714 9.03125  C 10.2957589285714 8.88541666666667  10.3660714285714 8.70833333333333  10.3660714285714 8.5  C 10.3660714285714 7.60416666666667  10.6724330357143 6.83854166666667  11.28515625 6.203125  C 11.8978794642857 5.56770833333333  12.6361607142857 5.25  13.5 5.25  C 13.7008928571429 5.25  13.8716517857143 5.17708333333333  14.0122767857143 5.03125  Z M 19.4514508928571 1.09375  C 19.6121651785714 1.19791666666666  19.6925223214286 1.33854166666667  19.6925223214286 1.515625  C 19.6925223214286 1.58854166666666  19.6875 1.63541666666666  19.6774553571429 1.65625  C 18.6127232142857 3.625  17.0256696428571 6.578125  14.9162946428571 10.515625  C 12.8069196428571 14.453125  11.2248883928571 17.4010416666667  10.1702008928571 19.359375  L 9.43191964285714 20.75  C 9.33147321428572 20.9166666666667  9.19084821428571 21  9.01004464285714 21  C 8.88950892857143 21  8.21651785714286 20.6354166666667  6.99107142857143 19.90625  C 6.83035714285714 19.8020833333333  6.75 19.65625  6.75 19.46875  C 6.75 19.34375  6.97098214285714 18.890625  7.41294642857143 18.109375  C 5.9765625 17.4322916666667  4.65318080357143 16.53125  3.44280133928571 15.40625  C 2.232421875 14.28125  1.18526785714286 13.0052083333333  0.301339285714286 11.578125  C 0.100446428571429 11.2552083333333  0 10.8958333333333  0 10.5  C 0 10.1041666666667  0.100446428571429 9.74479166666667  0.301339285714286 9.421875  C 1.83816964285714 6.97395833333333  3.74665178571429 5.04166666666667  6.02678571428571 3.625  C 8.30691964285714 2.20833333333333  10.7979910714286 1.5  13.5 1.5  C 14.3939732142857 1.5  15.2979910714286 1.58854166666666  16.2120535714286 1.765625  L 17.0256696428571 0.249999999999999  C 17.1261160714286 0.083333333333333  17.2667410714286 0  17.4475446428571 0  C 17.4977678571429 0  17.5881696428571 0.0312499999999999  17.71875 0.0937499999999997  C 17.8493303571429 0.156249999999999  18.0050223214286 0.236979166666664  18.1858258928571 0.335937500000001  C 18.3666294642857 0.434895833333332  18.5323660714286 0.53125  18.6830357142857 0.625  C 18.8337053571429 0.71875  18.9919084821429 0.815104166666663  19.1576450892857 0.9140625  C 19.3233816964286 1.01302083333333  19.4213169642857 1.07291666666667  19.4514508928571 1.09375  Z M 20.1294642857143 7.1875  C 20.2098214285714 7.65625  20.25 8.09375  20.25 8.5  C 20.25 9.94791666666667  19.8532366071429 11.2682291666667  19.0597098214286 12.4609375  C 18.2661830357143 13.6536458333333  17.2165178571429 14.5104166666667  15.9107142857143 15.03125  L 20.1294642857143 7.1875  Z M 26.6986607142857 9.421875  C 26.8995535714286 9.77604166666667  27 10.1354166666667  27 10.5  C 27 10.8645833333333  26.8995535714286 11.2239583333333  26.6986607142857 11.578125  C 26.3069196428571 12.2447916666667  25.7594866071429 13  25.0563616071429 13.84375  C 23.5496651785714 15.6354166666667  21.8044084821429 17.0260416666667  19.8205915178571 18.015625  C 17.8367745535714 19.0052083333333  15.7299107142857 19.5  13.5 19.5  L 14.6149553571429 17.4375  C 16.7444196428571 17.25  18.7156808035714 16.5364583333333  20.5287388392857 15.296875  C 22.341796875 14.0572916666667  23.8560267857143 12.4583333333333  25.0714285714286 10.5  C 23.9162946428571 8.63541666666667  22.5 7.10416666666667  20.8225446428571 5.90625  L 21.7717633928571 4.15625  C 22.7260044642857 4.82291666666666  23.642578125 5.61979166666666  24.521484375 6.546875  C 25.400390625 7.47395833333333  26.1261160714286 8.43229166666667  26.6986607142857 9.421875  Z " fill-rule="nonzero" fill="#e1c46f" stroke="none" transform="matrix(1 0 0 1 1041 138 )" />
  </g>
</svg>