<?xml version="1.0" encoding="utf-8"?>
<svg version="1.1" xmlns:xlink="http://www.w3.org/1999/xlink" width="94px" height="68px" xmlns="http://www.w3.org/2000/svg">
  <g transform="matrix(1 0 0 1 -1503 -136 )">
    <path d="M 1503 136  L 1597 136  L 1597 204  L 1503 204  L 1503 136  " fill-rule="nonzero" fill="#cccccc" stroke="none" />
    <path d="M 1508 141  L 1592 141  L 1592 199  L 1508 199  L 1508 141  " fill-rule="nonzero" fill="#ffffff" stroke="none" />
    <path d="M 1556.98 156.4  C 1554.124 156.4  1551.88 154.156  1551.88 151.3  C 1551.88 148.444  1554.124 146.2  1556.98 146.2  C 1559.836 146.2  1562.08 148.444  1562.08 151.3  C 1562.08 154.156  1559.836 156.4  1556.98 156.4  " fill-rule="nonzero" fill="#cccccc" stroke="none" />
    <path d="M 1510 198  L 1510 167.75  L 1530.25 154  L 1558.6 174.127659574468  L 1574.8 162.25  L 1591 174.127659574468  L 1591 198  L 1510 198  " fill-rule="nonzero" fill="#169bd5" stroke="none" />
  </g>
</svg>