<?xml version="1.0" encoding="utf-8"?>
<svg version="1.1" xmlns:xlink="http://www.w3.org/1999/xlink" width="5px" height="11px" xmlns="http://www.w3.org/2000/svg">
  <g transform="matrix(1 0 0 1 -1021 -485 )">
    <path d="M 4.94155844155844 2.50810185185185  C 4.9978354978355 2.57600308641975  5.00865800865801 2.6502700617284  4.97402597402597 2.73090277777778  C 4.93506493506494 2.81153549382716  4.87229437229437 2.85185185185185  4.78571428571429 2.85185185185185  L 3.33116883116883 2.85185185185185  L 3.33116883116883 10.7962962962963  C 3.33116883116883 10.8557098765432  3.31168831168831 10.9045138888889  3.27272727272727 10.9427083333333  C 3.23376623376623 10.9809027777778  3.18398268398268 11  3.12337662337662 11  L 1.87662337662338 11  C 1.81601731601732 11  1.76623376623377 10.9809027777778  1.72727272727273 10.9427083333333  C 1.68831168831169 10.9045138888889  1.66883116883117 10.8557098765432  1.66883116883117 10.7962962962963  L 1.66883116883117 2.85185185185185  L 0.214285714285714 2.85185185185185  C 0.123376623376623 2.85185185185185  0.0606060606060606 2.81153549382716  0.025974025974026 2.73090277777778  C -0.00865800865800866 2.6502700617284  0.00216450216450216 2.57600308641975  0.0584415584415584 2.50810185185185  L 2.33116883116883 0.063657407407408  C 2.37445887445887 0.0212191358024689  2.42424242424242 0  2.48051948051948 0  C 2.54112554112554 0  2.59307359307359 0.0212191358024689  2.63636363636364 0.063657407407408  L 4.94155844155844 2.50810185185185  Z " fill-rule="nonzero" fill="#70b603" stroke="none" transform="matrix(1 0 0 1 1021 485 )" />
  </g>
</svg>