<?xml version="1.0" encoding="utf-8"?>
<svg version="1.1" xmlns:xlink="http://www.w3.org/1999/xlink" width="5px" height="11px" xmlns="http://www.w3.org/2000/svg">
  <g transform="matrix(1 0 0 1 -678 -590 )">
    <path d="M 4.78571428571429 8.14814814814815  C 4.87662337662338 8.14814814814815  4.93939393939394 8.18846450617284  4.97402597402597 8.26909722222222  C 5.00865800865801 8.34972993827161  4.9978354978355 8.42399691358025  4.94155844155844 8.49189814814815  L 2.66883116883117 10.9363425925926  C 2.62554112554113 10.9787808641975  2.57575757575758 11  2.51948051948052 11  C 2.45887445887446 11  2.40692640692641 10.9787808641975  2.36363636363636 10.9363425925926  L 0.0584415584415584 8.49189814814815  C 0.00216450216450216 8.42399691358025  -0.00865800865800866 8.34972993827161  0.025974025974026 8.26909722222222  C 0.0649350649350649 8.18846450617284  0.127705627705628 8.14814814814815  0.214285714285714 8.14814814814815  L 1.66883116883117 8.14814814814815  L 1.66883116883117 0.203703703703703  C 1.66883116883117 0.144290123456789  1.68831168831169 0.0954861111111114  1.72727272727273 0.0572916666666671  C 1.76623376623377 0.0190972222222228  1.81601731601732 0  1.87662337662338 0  L 3.12337662337662 0  C 3.18398268398268 0  3.23376623376623 0.0190972222222228  3.27272727272727 0.0572916666666671  C 3.31168831168831 0.0954861111111114  3.33116883116883 0.144290123456789  3.33116883116883 0.203703703703703  L 3.33116883116883 8.14814814814815  L 4.78571428571429 8.14814814814815  Z " fill-rule="nonzero" fill="#d9001b" stroke="none" transform="matrix(1 0 0 1 678 590 )" />
  </g>
</svg>