<?xml version="1.0" encoding="utf-8"?>
<svg version="1.1" xmlns:xlink="http://www.w3.org/1999/xlink" width="9px" height="9px" xmlns="http://www.w3.org/2000/svg">
  <g transform="matrix(1 0 0 1 -1032 -486 )">
    <path d="M 5.947265625 7.447265625  C 5.982421875 7.412109375  6 7.3671875  6 7.3125  L 6 6.375  C 6 6.3203125  5.982421875 6.275390625  5.947265625 6.240234375  C 5.912109375 6.205078125  5.8671875 6.1875  5.8125 6.1875  L 5.25 6.1875  L 5.25 3.1875  C 5.25 3.1328125  5.232421875 3.087890625  5.197265625 3.052734375  C 5.162109375 3.017578125  5.1171875 3  5.0625 3  L 3.1875 3  C 3.1328125 3  3.087890625 3.017578125  3.052734375 3.052734375  C 3.017578125 3.087890625  3 3.1328125  3 3.1875  L 3 4.125  C 3 4.1796875  3.017578125 4.224609375  3.052734375 4.259765625  C 3.087890625 4.294921875  3.1328125 4.3125  3.1875 4.3125  L 3.75 4.3125  L 3.75 6.1875  L 3.1875 6.1875  C 3.1328125 6.1875  3.087890625 6.205078125  3.052734375 6.240234375  C 3.017578125 6.275390625  3 6.3203125  3 6.375  L 3 7.3125  C 3 7.3671875  3.017578125 7.412109375  3.052734375 7.447265625  C 3.087890625 7.482421875  3.1328125 7.5  3.1875 7.5  L 5.8125 7.5  C 5.8671875 7.5  5.912109375 7.482421875  5.947265625 7.447265625  Z M 5.197265625 2.197265625  C 5.232421875 2.162109375  5.25 2.1171875  5.25 2.0625  L 5.25 1.125  C 5.25 1.0703125  5.232421875 1.025390625  5.197265625 0.990234375  C 5.162109375 0.955078125  5.1171875 0.9375  5.0625 0.9375  L 3.9375 0.9375  C 3.8828125 0.9375  3.837890625 0.955078125  3.802734375 0.990234375  C 3.767578125 1.025390625  3.75 1.0703125  3.75 1.125  L 3.75 2.0625  C 3.75 2.1171875  3.767578125 2.162109375  3.802734375 2.197265625  C 3.837890625 2.232421875  3.8828125 2.25  3.9375 2.25  L 5.0625 2.25  C 5.1171875 2.25  5.162109375 2.232421875  5.197265625 2.197265625  Z M 8.396484375 2.2412109375  C 8.798828125 2.9306640625  9 3.68359375  9 4.5  C 9 5.31640625  8.798828125 6.0693359375  8.396484375 6.7587890625  C 7.994140625 7.4482421875  7.4482421875 7.994140625  6.7587890625 8.396484375  C 6.0693359375 8.798828125  5.31640625 9  4.5 9  C 3.68359375 9  2.9306640625 8.798828125  2.2412109375 8.396484375  C 1.5517578125 7.994140625  1.005859375 7.4482421875  0.603515625 6.7587890625  C 0.201171875 6.0693359375  0 5.31640625  0 4.5  C 0 3.68359375  0.201171875 2.9306640625  0.603515625 2.2412109375  C 1.005859375 1.5517578125  1.5517578125 1.005859375  2.2412109375 0.603515625  C 2.9306640625 0.201171874999999  3.68359375 0  4.5 0  C 5.31640625 0  6.0693359375 0.201171874999999  6.7587890625 0.603515625  C 7.4482421875 1.005859375  7.994140625 1.5517578125  8.396484375 2.2412109375  Z " fill-rule="nonzero" fill="#000000" stroke="none" transform="matrix(1 0 0 1 1032 486 )" />
  </g>
</svg>