<?xml version="1.0" encoding="utf-8"?>
<svg version="1.1" xmlns:xlink="http://www.w3.org/1999/xlink" width="189px" height="110px" xmlns="http://www.w3.org/2000/svg">
  <g transform="matrix(1 0 0 1 -110 -136 )">
    <path d="M 110 136  L 299 136  L 299 246  L 110 246  L 110 136  " fill-rule="nonzero" fill="#cccccc" stroke="none" />
    <path d="M 118 144  L 291 144  L 291 238  L 118 238  L 118 144  " fill-rule="nonzero" fill="#ffffff" stroke="none" />
    <path d="M 216.53 169  C 211.91 169  208.28 165.37  208.28 160.75  C 208.28 156.13  211.91 152.5  216.53 152.5  C 221.15 152.5  224.78 156.13  224.78 160.75  C 224.78 165.37  221.15 169  216.53 169  " fill-rule="nonzero" fill="#cccccc" stroke="none" />
    <path d="M 121 235  L 121 186.6  L 162.75 164.6  L 221.2 204.269841269841  L 254.6 177.8  L 288 204.269841269841  L 288 235  L 121 235  " fill-rule="nonzero" fill="#169bd5" stroke="none" />
  </g>
</svg>