<?xml version="1.0" encoding="utf-8"?>
<svg version="1.1" xmlns:xlink="http://www.w3.org/1999/xlink" width="338px" height="455px" xmlns="http://www.w3.org/2000/svg">
  <g transform="matrix(1 0 0 1 -40 -204 )">
    <path d="M 40 204  L 378 204  L 378 659  L 40 659  L 40 204  " fill-rule="nonzero" fill="#cccccc" stroke="none" />
    <path d="M 64 228  L 354 228  L 354 635  L 64 635  L 64 228  " fill-rule="nonzero" fill="#ffffff" stroke="none" />
    <path d="M 241.11 322.95  C 226.914 322.95  215.76 311.796  215.76 297.6  C 215.76 283.404  226.914 272.25  241.11 272.25  C 255.306 272.25  266.46 283.404  266.46 297.6  C 266.46 311.796  255.306 322.95  241.11 322.95  " fill-rule="nonzero" fill="#cccccc" stroke="none" />
    <path d="M 73 627  L 73 412.5  L 141.25 315  L 236.8 393  L 291.4 373.5  L 346 393  L 346 627  L 73 627  " fill-rule="nonzero" fill="#169bd5" stroke="none" />
  </g>
</svg>