<?xml version="1.0" encoding="utf-8"?>
<svg version="1.1" xmlns:xlink="http://www.w3.org/1999/xlink" width="17px" height="22px" xmlns="http://www.w3.org/2000/svg">
  <g transform="matrix(1 0 0 1 -992 -548 )">
    <path d="M 16.6845703125 13.296875  C 16.8948567708333 13.4947916666667  17 13.7291666666667  17 14  C 17 14.2708333333333  16.8948567708333 14.5052083333333  16.6845703125 14.703125  L 9.2470703125 21.703125  C 9.03678385416667 21.9010416666667  8.78776041666667 22  8.5 22  C 8.21223958333333 22  7.96321614583333 21.9010416666667  7.7529296875 21.703125  L 0.3154296875 14.703125  C 0.105143229166667 14.5052083333333  0 14.2708333333333  0 14  C 0 13.7291666666667  0.105143229166667 13.4947916666667  0.3154296875 13.296875  C 0.525716145833333 13.0989583333333  0.774739583333333 13  1.0625 13  L 15.9375 13  C 16.2252604166667 13  16.4742838541667 13.0989583333333  16.6845703125 13.296875  Z M 16.6845703125 7.296875  C 16.8948567708333 7.49479166666666  17 7.72916666666666  17 8  C 17 8.27083333333333  16.8948567708333 8.50520833333333  16.6845703125 8.703125  C 16.4742838541667 8.90104166666667  16.2252604166667 9  15.9375 9  L 1.0625 9  C 0.774739583333333 9  0.525716145833333 8.90104166666667  0.3154296875 8.703125  C 0.105143229166667 8.50520833333333  0 8.27083333333333  0 8  C 0 7.72916666666666  0.105143229166667 7.49479166666666  0.3154296875 7.296875  L 7.7529296875 0.296875000000001  C 7.96321614583333 0.0989583333333313  8.21223958333333 0  8.5 0  C 8.78776041666667 0  9.03678385416667 0.0989583333333313  9.2470703125 0.296875000000001  L 16.6845703125 7.296875  Z " fill-rule="nonzero" fill="#000000" stroke="none" transform="matrix(1 0 0 1 992 548 )" />
  </g>
</svg>