<?xml version="1.0" encoding="utf-8"?>
<svg version="1.1" xmlns:xlink="http://www.w3.org/1999/xlink" width="28px" height="20px" xmlns="http://www.w3.org/2000/svg">
  <g transform="matrix(1 0 0 1 -22 -217 )">
    <path d="M 22 217  L 50 217  L 50 237  L 22 237  L 22 217  " fill-rule="nonzero" fill="#cccccc" stroke="none" />
    <path d="M 23 218  L 49 218  L 49 236  L 23 236  L 23 218  " fill-rule="nonzero" fill="#ffffff" stroke="none" />
    <path d="M 38.06 223  C 37.22 223  36.56 222.34  36.56 221.5  C 36.56 220.66  37.22 220  38.06 220  C 38.9 220  39.56 220.66  39.56 221.5  C 39.56 222.34  38.9 223  38.06 223  " fill-rule="nonzero" fill="#cccccc" stroke="none" />
    <path d="M 24 236  L 24 226.65  L 30.25 222.4  L 39 228.714285714286  L 44 224.95  L 49 228.714285714286  L 49 236  L 24 236  " fill-rule="nonzero" fill="#169bd5" stroke="none" />
  </g>
</svg>