<?xml version="1.0" encoding="utf-8"?>
<svg version="1.1" xmlns:xlink="http://www.w3.org/1999/xlink" width="12px" height="12px" viewBox="502 1046.5  12 12" xmlns="http://www.w3.org/2000/svg">
  <path d="M 508 1046.5  C 511.36 1046.5  514 1049.14  514 1052.5  C 514 1055.86  511.36 1058.5  508 1058.5  C 504.64 1058.5  502 1055.86  502 1052.5  C 502 1049.14  504.64 1046.5  508 1046.5  Z " fill-rule="nonzero" fill="#ffffff" stroke="none" />
  <path d="M 508 1047  C 511.08 1047  513.5 1049.42  513.5 1052.5  C 513.5 1055.58  511.08 1058  508 1058  C 504.92 1058  502.5 1055.58  502.5 1052.5  C 502.5 1049.42  504.92 1047  508 1047  Z " stroke-width="1" stroke="#797979" fill="none" />
  <path d="M 508 1055.5  C 506.32 1055.5  505 1054.18  505 1052.5  C 505 1050.82  506.32 1049.5  508 1049.5  C 509.68 1049.5  511 1050.82  511 1052.5  C 511 1054.18  509.68 1055.5  508 1055.5  " fill-rule="nonzero" fill="#797979" stroke="none" />
</svg>