<?xml version="1.0" encoding="utf-8"?>
<svg version="1.1" xmlns:xlink="http://www.w3.org/1999/xlink" width="12px" height="12px" viewBox="502 960.5  12 12" xmlns="http://www.w3.org/2000/svg">
  <path d="M 508 960.5  C 511.36 960.5  514 963.14  514 966.5  C 514 969.86  511.36 972.5  508 972.5  C 504.64 972.5  502 969.86  502 966.5  C 502 963.14  504.64 960.5  508 960.5  Z " fill-rule="nonzero" fill="#f0f0f0" stroke="none" />
  <path d="M 508 961  C 511.08 961  513.5 963.42  513.5 966.5  C 513.5 969.58  511.08 972  508 972  C 504.92 972  502.5 969.58  502.5 966.5  C 502.5 963.42  504.92 961  508 961  Z " stroke-width="1" stroke="#797979" fill="none" />
  <path d="M 508 969.5  C 506.32 969.5  505 968.18  505 966.5  C 505 964.82  506.32 963.5  508 963.5  C 509.68 963.5  511 964.82  511 966.5  C 511 968.18  509.68 969.5  508 969.5  " fill-rule="nonzero" fill="#797979" stroke="none" />
</svg>