<?xml version="1.0" encoding="utf-8"?>
<svg version="1.1" xmlns:xlink="http://www.w3.org/1999/xlink" width="12px" height="12px" viewBox="502 874.5  12 12" xmlns="http://www.w3.org/2000/svg">
  <path d="M 508 874.5  C 511.36 874.5  514 877.14  514 880.5  C 514 883.86  511.36 886.5  508 886.5  C 504.64 886.5  502 883.86  502 880.5  C 502 877.14  504.64 874.5  508 874.5  Z " fill-rule="nonzero" fill="#f0f0f0" stroke="none" />
  <path d="M 508 875  C 511.08 875  513.5 877.42  513.5 880.5  C 513.5 883.58  511.08 886  508 886  C 504.92 886  502.5 883.58  502.5 880.5  C 502.5 877.42  504.92 875  508 875  Z " stroke-width="1" stroke="#797979" fill="none" />
  <path d="M 508 883.5  C 506.32 883.5  505 882.18  505 880.5  C 505 878.82  506.32 877.5  508 877.5  C 509.68 877.5  511 878.82  511 880.5  C 511 882.18  509.68 883.5  508 883.5  " fill-rule="nonzero" fill="#797979" stroke="none" />
</svg>