<?xml version="1.0" encoding="utf-8"?>
<svg version="1.1" xmlns:xlink="http://www.w3.org/1999/xlink" width="12px" height="12px" viewBox="502 1189.5  12 12" xmlns="http://www.w3.org/2000/svg">
  <path d="M 508 1189.5  C 511.36 1189.5  514 1192.14  514 1195.5  C 514 1198.86  511.36 1201.5  508 1201.5  C 504.64 1201.5  502 1198.86  502 1195.5  C 502 1192.14  504.64 1189.5  508 1189.5  Z " fill-rule="nonzero" fill="#ffffff" stroke="none" />
  <path d="M 508 1190  C 511.08 1190  513.5 1192.42  513.5 1195.5  C 513.5 1198.58  511.08 1201  508 1201  C 504.92 1201  502.5 1198.58  502.5 1195.5  C 502.5 1192.42  504.92 1190  508 1190  Z " stroke-width="1" stroke="#797979" fill="none" />
  <path d="M 508 1198.5  C 506.32 1198.5  505 1197.18  505 1195.5  C 505 1193.82  506.32 1192.5  508 1192.5  C 509.68 1192.5  511 1193.82  511 1195.5  C 511 1197.18  509.68 1198.5  508 1198.5  " fill-rule="nonzero" fill="#797979" stroke="none" />
</svg>