<?xml version="1.0" encoding="utf-8"?>
<svg version="1.1" xmlns:xlink="http://www.w3.org/1999/xlink" width="12px" height="12px" viewBox="587 1266.5  12 12" xmlns="http://www.w3.org/2000/svg">
  <path d="M 593 1266.5  C 596.36 1266.5  599 1269.14  599 1272.5  C 599 1275.86  596.36 1278.5  593 1278.5  C 589.64 1278.5  587 1275.86  587 1272.5  C 587 1269.14  589.64 1266.5  593 1266.5  Z " fill-rule="nonzero" fill="#f0f0f0" stroke="none" />
  <path d="M 593 1267  C 596.08 1267  598.5 1269.42  598.5 1272.5  C 598.5 1275.58  596.08 1278  593 1278  C 589.92 1278  587.5 1275.58  587.5 1272.5  C 587.5 1269.42  589.92 1267  593 1267  Z " stroke-width="1" stroke="#797979" fill="none" />
  <path d="M 593 1275.5  C 591.32 1275.5  590 1274.18  590 1272.5  C 590 1270.82  591.32 1269.5  593 1269.5  C 594.68 1269.5  596 1270.82  596 1272.5  C 596 1274.18  594.68 1275.5  593 1275.5  " fill-rule="nonzero" fill="#797979" stroke="none" />
</svg>