<?xml version="1.0" encoding="utf-8"?>
<svg version="1.1" xmlns:xlink="http://www.w3.org/1999/xlink" width="12px" height="12px" viewBox="587 1046.5  12 12" xmlns="http://www.w3.org/2000/svg">
  <path d="M 593 1046.5  C 596.36 1046.5  599 1049.14  599 1052.5  C 599 1055.86  596.36 1058.5  593 1058.5  C 589.64 1058.5  587 1055.86  587 1052.5  C 587 1049.14  589.64 1046.5  593 1046.5  Z " fill-rule="nonzero" fill="#ffffff" stroke="none" />
  <path d="M 593 1047  C 596.08 1047  598.5 1049.42  598.5 1052.5  C 598.5 1055.58  596.08 1058  593 1058  C 589.92 1058  587.5 1055.58  587.5 1052.5  C 587.5 1049.42  589.92 1047  593 1047  Z " stroke-width="1" stroke="#797979" fill="none" />
  <path d="M 593 1055.5  C 591.32 1055.5  590 1054.18  590 1052.5  C 590 1050.82  591.32 1049.5  593 1049.5  C 594.68 1049.5  596 1050.82  596 1052.5  C 596 1054.18  594.68 1055.5  593 1055.5  " fill-rule="nonzero" fill="#797979" stroke="none" />
</svg>