<?xml version="1.0" encoding="utf-8"?>
<svg version="1.1" xmlns:xlink="http://www.w3.org/1999/xlink" width="12px" height="12px" viewBox="502 1145.5  12 12" xmlns="http://www.w3.org/2000/svg">
  <path d="M 508 1145.5  C 511.36 1145.5  514 1148.14  514 1151.5  C 514 1154.86  511.36 1157.5  508 1157.5  C 504.64 1157.5  502 1154.86  502 1151.5  C 502 1148.14  504.64 1145.5  508 1145.5  Z " fill-rule="nonzero" fill="#ffffff" stroke="none" />
  <path d="M 508 1146  C 511.08 1146  513.5 1148.42  513.5 1151.5  C 513.5 1154.58  511.08 1157  508 1157  C 504.92 1157  502.5 1154.58  502.5 1151.5  C 502.5 1148.42  504.92 1146  508 1146  Z " stroke-width="1" stroke="#797979" fill="none" />
  <path d="M 508 1154.5  C 506.32 1154.5  505 1153.18  505 1151.5  C 505 1149.82  506.32 1148.5  508 1148.5  C 509.68 1148.5  511 1149.82  511 1151.5  C 511 1153.18  509.68 1154.5  508 1154.5  " fill-rule="nonzero" fill="#797979" stroke="none" />
</svg>