<?xml version="1.0" encoding="utf-8"?>
<svg version="1.1" xmlns:xlink="http://www.w3.org/1999/xlink" width="12px" height="12px" viewBox="587 1145.5  12 12" xmlns="http://www.w3.org/2000/svg">
  <path d="M 593 1145.5  C 596.36 1145.5  599 1148.14  599 1151.5  C 599 1154.86  596.36 1157.5  593 1157.5  C 589.64 1157.5  587 1154.86  587 1151.5  C 587 1148.14  589.64 1145.5  593 1145.5  Z " fill-rule="nonzero" fill="#f0f0f0" stroke="none" />
  <path d="M 593 1146  C 596.08 1146  598.5 1148.42  598.5 1151.5  C 598.5 1154.58  596.08 1157  593 1157  C 589.92 1157  587.5 1154.58  587.5 1151.5  C 587.5 1148.42  589.92 1146  593 1146  Z " stroke-width="1" stroke="#797979" fill="none" />
  <path d="M 593 1154.5  C 591.32 1154.5  590 1153.18  590 1151.5  C 590 1149.82  591.32 1148.5  593 1148.5  C 594.68 1148.5  596 1149.82  596 1151.5  C 596 1153.18  594.68 1154.5  593 1154.5  " fill-rule="nonzero" fill="#797979" stroke="none" />
</svg>