<?xml version="1.0" encoding="utf-8"?>
<svg version="1.1" xmlns:xlink="http://www.w3.org/1999/xlink" width="12px" height="12px" viewBox="587 960.5  12 12" xmlns="http://www.w3.org/2000/svg">
  <path d="M 593 960.5  C 596.36 960.5  599 963.14  599 966.5  C 599 969.86  596.36 972.5  593 972.5  C 589.64 972.5  587 969.86  587 966.5  C 587 963.14  589.64 960.5  593 960.5  Z " fill-rule="nonzero" fill="#f0f0f0" stroke="none" />
  <path d="M 593 961  C 596.08 961  598.5 963.42  598.5 966.5  C 598.5 969.58  596.08 972  593 972  C 589.92 972  587.5 969.58  587.5 966.5  C 587.5 963.42  589.92 961  593 961  Z " stroke-width="1" stroke="#797979" fill="none" />
  <path d="M 593 969.5  C 591.32 969.5  590 968.18  590 966.5  C 590 964.82  591.32 963.5  593 963.5  C 594.68 963.5  596 964.82  596 966.5  C 596 968.18  594.68 969.5  593 969.5  " fill-rule="nonzero" fill="#797979" stroke="none" />
</svg>