<?xml version="1.0" encoding="utf-8"?>
<svg version="1.1" xmlns:xlink="http://www.w3.org/1999/xlink" width="12px" height="12px" viewBox="502 1266.5  12 12" xmlns="http://www.w3.org/2000/svg">
  <path d="M 508 1266.5  C 511.36 1266.5  514 1269.14  514 1272.5  C 514 1275.86  511.36 1278.5  508 1278.5  C 504.64 1278.5  502 1275.86  502 1272.5  C 502 1269.14  504.64 1266.5  508 1266.5  Z " fill-rule="nonzero" fill="#f0f0f0" stroke="none" />
  <path d="M 508 1267  C 511.08 1267  513.5 1269.42  513.5 1272.5  C 513.5 1275.58  511.08 1278  508 1278  C 504.92 1278  502.5 1275.58  502.5 1272.5  C 502.5 1269.42  504.92 1267  508 1267  Z " stroke-width="1" stroke="#797979" fill="none" />
  <path d="M 508 1275.5  C 506.32 1275.5  505 1274.18  505 1272.5  C 505 1270.82  506.32 1269.5  508 1269.5  C 509.68 1269.5  511 1270.82  511 1272.5  C 511 1274.18  509.68 1275.5  508 1275.5  " fill-rule="nonzero" fill="#797979" stroke="none" />
</svg>