<?xml version="1.0" encoding="utf-8"?>
<svg version="1.1" xmlns:xlink="http://www.w3.org/1999/xlink" width="12px" height="12px" viewBox="676 1802  12 12" xmlns="http://www.w3.org/2000/svg">
  <path d="M 682 1802  C 685.36 1802  688 1804.64  688 1808  C 688 1811.36  685.36 1814  682 1814  C 678.64 1814  676 1811.36  676 1808  C 676 1804.64  678.64 1802  682 1802  Z " fill-rule="nonzero" fill="#ffffff" stroke="none" />
  <path d="M 682 1802.5  C 685.08 1802.5  687.5 1804.92  687.5 1808  C 687.5 1811.08  685.08 1813.5  682 1813.5  C 678.92 1813.5  676.5 1811.08  676.5 1808  C 676.5 1804.92  678.92 1802.5  682 1802.5  Z " stroke-width="1" stroke="#797979" fill="none" />
  <path d="M 682 1811  C 680.32 1811  679 1809.68  679 1808  C 679 1806.32  680.32 1805  682 1805  C 683.68 1805  685 1806.32  685 1808  C 685 1809.68  683.68 1811  682 1811  " fill-rule="nonzero" fill="#797979" stroke="none" />
</svg>