<?xml version="1.0" encoding="utf-8"?>
<svg version="1.1" xmlns:xlink="http://www.w3.org/1999/xlink" width="22px" height="22px" xmlns="http://www.w3.org/2000/svg">
  <g transform="matrix(1 0 0 1 -297 -842 )">
    <path d="M 5.19643916913947 12.6646884272997  L 12.6646884272997 5.19643916913947  L 16.7905044510386 9.32225519287834  L 9.32225519287834 16.7905044510386  L 5.19643916913947 12.6646884272997  Z M 9.32225519287834 18.213649851632  C 9.55727002967359 18.213649851632  9.75311572700297 18.1353115727003  9.90979228486647 17.9786350148368  L 17.9786350148368 9.90979228486647  C 18.1440158259149 9.74441147378833  18.226706231454 9.54856577645895  18.226706231454 9.32225519287834  C 18.226706231454 9.09594460929773  18.1440158259149 8.90009891196835  17.9786350148368 8.73471810089021  L 13.2522255192878 4.00830860534125  C 13.0955489614243 3.85163204747775  12.899703264095 3.77329376854599  12.6646884272997 3.77329376854599  C 12.4296735905045 3.77329376854599  12.2338278931751 3.85163204747775  12.0771513353116 4.00830860534125  L 4.00830860534125 12.0771513353116  C 3.84292779426311 12.2425321463897  3.76023738872404 12.4383778437191  3.76023738872404 12.6646884272997  C 3.76023738872404 12.8909990108803  3.84292779426311 13.0868447082097  4.00830860534125 13.2522255192878  L 8.73471810089021 17.9786350148368  C 8.89139465875371 18.1353115727003  9.08724035608309 18.213649851632  9.32225519287834 18.213649851632  Z M 22 8.48011869436202  C 22 8.9457962413452  21.8389713155292 9.33966369930762  21.5169139465875 9.66172106824926  L 9.67477744807122 21.5169139465875  C 9.35272007912958 21.8389713155292  8.95885262116716 22  8.49317507418398 22  C 8.02749752720079 22  7.63363006923838 21.8389713155292  7.31157270029674 21.5169139465875  L 5.66646884272997 19.8718100890208  C 6.15390702274975 19.384371909001  6.39762611275964 18.7924826904055  6.39762611275964 18.0961424332344  C 6.39762611275964 17.3998021760633  6.15390702274975 16.8079129574679  5.66646884272997 16.3204747774481  C 5.17903066271019 15.8330365974283  4.58714144411474 15.5893175074184  3.89080118694362 15.5893175074184  C 3.1944609297725 15.5893175074184  2.60257171117705 15.8330365974283  2.11513353115727 16.3204747774481  L 0.483086053412463 14.6753709198813  C 0.161028684470821 14.3533135509397  0 13.9594460929772  0 13.4937685459941  C 0 13.0280909990109  0.161028684470821 12.6342235410485  0.483086053412463 12.3121661721068  L 12.3252225519288 0.483086053412463  C 12.6472799208704 0.16102868447082  13.0411473788328 0  13.506824925816 0  C 13.9725024727992 0  14.3663699307616 0.16102868447082  14.6884272997033 0.483086053412463  L 16.3204747774481 2.11513353115727  C 15.8330365974283 2.60257171117705  15.5893175074184 3.1944609297725  15.5893175074184 3.89080118694362  C 15.5893175074184 4.58714144411474  15.8330365974283 5.17903066271019  16.3204747774481 5.66646884272997  C 16.8079129574679 6.15390702274975  17.3998021760633 6.39762611275965  18.0961424332344 6.39762611275965  C 18.7924826904055 6.39762611275965  19.384371909001 6.15390702274975  19.8718100890208 5.66646884272997  L 21.5169139465875 7.29851632047478  C 21.8389713155292 7.62057368941642  22 8.01444114737883  22 8.48011869436202  Z " fill-rule="nonzero" fill="#aaaaaa" stroke="none" transform="matrix(1 0 0 1 297 842 )" />
  </g>
</svg>