<?xml version="1.0" encoding="utf-8"?>
<svg version="1.1" xmlns:xlink="http://www.w3.org/1999/xlink" width="87px" height="26px" xmlns="http://www.w3.org/2000/svg">
  <g transform="matrix(1 0 0 1 -840 -407 )">
    <path d="M 850.270343936865 407.5  C 850.270343936865 407.5  848.076138928338 407.827869713918  848.076138928338 407.827869713918  C 848.076138928338 407.827869713918  840.547878253771 420  840.547878253771 420  C 840.547878253771 420  848.076138928338 432.172130286082  848.076138928338 432.172130286082  C 848.076138928338 432.172130286082  850.270343936865 432.5  850.270343936865 432.5  C 850.270343936865 432.5  926.5 432.5  926.5 432.5  C 926.5 432.5  926.5 407.5  926.5 407.5  C 926.5 407.5  850.270343936865 407.5  850.270343936865 407.5  Z " fill-rule="nonzero" fill="#ffffff" stroke="none" />
    <path d="M 850.270343936865 407.5  C 850.270343936865 407.5  848.076138928338 407.827869713918  848.076138928338 407.827869713918  C 848.076138928338 407.827869713918  840.547878253771 420  840.547878253771 420  C 840.547878253771 420  848.076138928338 432.172130286082  848.076138928338 432.172130286082  C 848.076138928338 432.172130286082  850.270343936865 432.5  850.270343936865 432.5  C 850.270343936865 432.5  926.5 432.5  926.5 432.5  C 926.5 432.5  926.5 407.5  926.5 407.5  C 926.5 407.5  850.270343936865 407.5  850.270343936865 407.5  Z " stroke-width="1" stroke="#797979" fill="none" />
  </g>
</svg>