<?xml version="1.0" encoding="utf-8"?>
<svg version="1.1" xmlns:xlink="http://www.w3.org/1999/xlink" width="12px" height="12px" viewBox="587 1304.5  12 12" xmlns="http://www.w3.org/2000/svg">
  <path d="M 593 1304.5  C 596.36 1304.5  599 1307.14  599 1310.5  C 599 1313.86  596.36 1316.5  593 1316.5  C 589.64 1316.5  587 1313.86  587 1310.5  C 587 1307.14  589.64 1304.5  593 1304.5  Z " fill-rule="nonzero" fill="#f0f0f0" stroke="none" />
  <path d="M 593 1305  C 596.08 1305  598.5 1307.42  598.5 1310.5  C 598.5 1313.58  596.08 1316  593 1316  C 589.92 1316  587.5 1313.58  587.5 1310.5  C 587.5 1307.42  589.92 1305  593 1305  Z " stroke-width="1" stroke="#797979" fill="none" />
  <path d="M 593 1313.5  C 591.32 1313.5  590 1312.18  590 1310.5  C 590 1308.82  591.32 1307.5  593 1307.5  C 594.68 1307.5  596 1308.82  596 1310.5  C 596 1312.18  594.68 1313.5  593 1313.5  " fill-rule="nonzero" fill="#797979" stroke="none" />
</svg>