<?xml version="1.0" encoding="utf-8"?>
<svg version="1.1" xmlns:xlink="http://www.w3.org/1999/xlink" width="12px" height="12px" viewBox="587 1218.5  12 12" xmlns="http://www.w3.org/2000/svg">
  <path d="M 593 1218.5  C 596.36 1218.5  599 1221.14  599 1224.5  C 599 1227.86  596.36 1230.5  593 1230.5  C 589.64 1230.5  587 1227.86  587 1224.5  C 587 1221.14  589.64 1218.5  593 1218.5  Z " fill-rule="nonzero" fill="#ffffff" stroke="none" />
  <path d="M 593 1219  C 596.08 1219  598.5 1221.42  598.5 1224.5  C 598.5 1227.58  596.08 1230  593 1230  C 589.92 1230  587.5 1227.58  587.5 1224.5  C 587.5 1221.42  589.92 1219  593 1219  Z " stroke-width="1" stroke="#797979" fill="none" />
  <path d="M 593 1227.5  C 591.32 1227.5  590 1226.18  590 1224.5  C 590 1222.82  591.32 1221.5  593 1221.5  C 594.68 1221.5  596 1222.82  596 1224.5  C 596 1226.18  594.68 1227.5  593 1227.5  " fill-rule="nonzero" fill="#797979" stroke="none" />
</svg>