<?xml version="1.0" encoding="utf-8"?>
<svg version="1.1" xmlns:xlink="http://www.w3.org/1999/xlink" width="12px" height="12px" viewBox="587 1136.5  12 12" xmlns="http://www.w3.org/2000/svg">
  <path d="M 593 1136.5  C 596.36 1136.5  599 1139.14  599 1142.5  C 599 1145.86  596.36 1148.5  593 1148.5  C 589.64 1148.5  587 1145.86  587 1142.5  C 587 1139.14  589.64 1136.5  593 1136.5  Z " fill-rule="nonzero" fill="#f0f0f0" stroke="none" />
  <path d="M 593 1137  C 596.08 1137  598.5 1139.42  598.5 1142.5  C 598.5 1145.58  596.08 1148  593 1148  C 589.92 1148  587.5 1145.58  587.5 1142.5  C 587.5 1139.42  589.92 1137  593 1137  Z " stroke-width="1" stroke="#797979" fill="none" />
  <path d="M 593 1145.5  C 591.32 1145.5  590 1144.18  590 1142.5  C 590 1140.82  591.32 1139.5  593 1139.5  C 594.68 1139.5  596 1140.82  596 1142.5  C 596 1144.18  594.68 1145.5  593 1145.5  " fill-rule="nonzero" fill="#797979" stroke="none" />
</svg>