<?xml version="1.0" encoding="utf-8"?>
<svg version="1.1" xmlns:xlink="http://www.w3.org/1999/xlink" width="12px" height="12px" viewBox="502 1489.5  12 12" xmlns="http://www.w3.org/2000/svg">
  <path d="M 508 1489.5  C 511.36 1489.5  514 1492.14  514 1495.5  C 514 1498.86  511.36 1501.5  508 1501.5  C 504.64 1501.5  502 1498.86  502 1495.5  C 502 1492.14  504.64 1489.5  508 1489.5  Z " fill-rule="nonzero" fill="#f0f0f0" stroke="none" />
  <path d="M 508 1490  C 511.08 1490  513.5 1492.42  513.5 1495.5  C 513.5 1498.58  511.08 1501  508 1501  C 504.92 1501  502.5 1498.58  502.5 1495.5  C 502.5 1492.42  504.92 1490  508 1490  Z " stroke-width="1" stroke="#797979" fill="none" />
  <path d="M 508 1498.5  C 506.32 1498.5  505 1497.18  505 1495.5  C 505 1493.82  506.32 1492.5  508 1492.5  C 509.68 1492.5  511 1493.82  511 1495.5  C 511 1497.18  509.68 1498.5  508 1498.5  " fill-rule="nonzero" fill="#797979" stroke="none" />
</svg>