<?xml version="1.0" encoding="utf-8"?>
<svg version="1.1" xmlns:xlink="http://www.w3.org/1999/xlink" width="12px" height="12px" viewBox="502 1304.5  12 12" xmlns="http://www.w3.org/2000/svg">
  <path d="M 508 1304.5  C 511.36 1304.5  514 1307.14  514 1310.5  C 514 1313.86  511.36 1316.5  508 1316.5  C 504.64 1316.5  502 1313.86  502 1310.5  C 502 1307.14  504.64 1304.5  508 1304.5  Z " fill-rule="nonzero" fill="#ffffff" stroke="none" />
  <path d="M 508 1305  C 511.08 1305  513.5 1307.42  513.5 1310.5  C 513.5 1313.58  511.08 1316  508 1316  C 504.92 1316  502.5 1313.58  502.5 1310.5  C 502.5 1307.42  504.92 1305  508 1305  Z " stroke-width="1" stroke="#797979" fill="none" />
  <path d="M 508 1313.5  C 506.32 1313.5  505 1312.18  505 1310.5  C 505 1308.82  506.32 1307.5  508 1307.5  C 509.68 1307.5  511 1308.82  511 1310.5  C 511 1312.18  509.68 1313.5  508 1313.5  " fill-rule="nonzero" fill="#797979" stroke="none" />
</svg>