<?xml version="1.0" encoding="utf-8"?>
<svg version="1.1" xmlns:xlink="http://www.w3.org/1999/xlink" width="12px" height="12px" viewBox="502 1610.5  12 12" xmlns="http://www.w3.org/2000/svg">
  <path d="M 508 1610.5  C 511.36 1610.5  514 1613.14  514 1616.5  C 514 1619.86  511.36 1622.5  508 1622.5  C 504.64 1622.5  502 1619.86  502 1616.5  C 502 1613.14  504.64 1610.5  508 1610.5  Z " fill-rule="nonzero" fill="#ffffff" stroke="none" />
  <path d="M 508 1611  C 511.08 1611  513.5 1613.42  513.5 1616.5  C 513.5 1619.58  511.08 1622  508 1622  C 504.92 1622  502.5 1619.58  502.5 1616.5  C 502.5 1613.42  504.92 1611  508 1611  Z " stroke-width="1" stroke="#797979" fill="none" />
  <path d="M 508 1619.5  C 506.32 1619.5  505 1618.18  505 1616.5  C 505 1614.82  506.32 1613.5  508 1613.5  C 509.68 1613.5  511 1614.82  511 1616.5  C 511 1618.18  509.68 1619.5  508 1619.5  " fill-rule="nonzero" fill="#797979" stroke="none" />
</svg>