<?xml version="1.0" encoding="utf-8"?>
<svg version="1.1" xmlns:xlink="http://www.w3.org/1999/xlink" width="12px" height="12px" viewBox="502 1533.5  12 12" xmlns="http://www.w3.org/2000/svg">
  <path d="M 508 1533.5  C 511.36 1533.5  514 1536.14  514 1539.5  C 514 1542.86  511.36 1545.5  508 1545.5  C 504.64 1545.5  502 1542.86  502 1539.5  C 502 1536.14  504.64 1533.5  508 1533.5  Z " fill-rule="nonzero" fill="#ffffff" stroke="none" />
  <path d="M 508 1534  C 511.08 1534  513.5 1536.42  513.5 1539.5  C 513.5 1542.58  511.08 1545  508 1545  C 504.92 1545  502.5 1542.58  502.5 1539.5  C 502.5 1536.42  504.92 1534  508 1534  Z " stroke-width="1" stroke="#797979" fill="none" />
  <path d="M 508 1542.5  C 506.32 1542.5  505 1541.18  505 1539.5  C 505 1537.82  506.32 1536.5  508 1536.5  C 509.68 1536.5  511 1537.82  511 1539.5  C 511 1541.18  509.68 1542.5  508 1542.5  " fill-rule="nonzero" fill="#797979" stroke="none" />
</svg>