<?xml version="1.0" encoding="utf-8"?>
<svg version="1.1" xmlns:xlink="http://www.w3.org/1999/xlink" width="33px" height="33px" xmlns="http://www.w3.org/2000/svg">
  <g transform="matrix(1 0 0 1 -669 -487 )">
    <path d="M 669 487  L 702 487  L 702 520  L 669 520  L 669 487  " fill-rule="nonzero" fill="#cccccc" stroke="none" />
    <path d="M 671 489  L 700 489  L 700 518  L 671 518  L 671 489  " fill-rule="nonzero" fill="#ffffff" stroke="none" />
    <path d="M 688.635 496.9  C 687.249 496.9  686.16 495.811  686.16 494.425  C 686.16 493.039  687.249 491.95  688.635 491.95  C 690.021 491.95  691.11 493.039  691.11 494.425  C 691.11 495.811  690.021 496.9  688.635 496.9  " fill-rule="nonzero" fill="#cccccc" stroke="none" />
    <path d="M 672 517  L 672 502.15  L 678.75 495.4  L 688.2 500.8  L 693.6 499.45  L 699 500.8  L 699 517  L 672 517  " fill-rule="nonzero" fill="#169bd5" stroke="none" />
  </g>
</svg>