<?xml version="1.0" encoding="utf-8"?>
<svg version="1.1" xmlns:xlink="http://www.w3.org/1999/xlink" width="85px" height="85px" xmlns="http://www.w3.org/2000/svg">
  <g transform="matrix(1 0 0 1 -1905 -1290 )">
    <path d="M 1947.5 1290  C 1971.3 1290  1990 1308.7  1990 1332.5  C 1990 1356.3  1971.3 1375  1947.5 1375  C 1923.7 1375  1905 1356.3  1905 1332.5  C 1905 1308.7  1923.7 1290  1947.5 1290  Z " fill-rule="nonzero" fill="#ffffff" stroke="none" />
    <path d="M 1947.5 1290.5  C 1971.02 1290.5  1989.5 1308.98  1989.5 1332.5  C 1989.5 1356.02  1971.02 1374.5  1947.5 1374.5  C 1923.98 1374.5  1905.5 1356.02  1905.5 1332.5  C 1905.5 1308.98  1923.98 1290.5  1947.5 1290.5  Z " stroke-width="1" stroke="#797979" fill="none" />
  </g>
</svg>