<?xml version="1.0" encoding="utf-8"?>
<svg version="1.1" xmlns:xlink="http://www.w3.org/1999/xlink" width="12px" height="12px" viewBox="1393 3027.5  12 12" xmlns="http://www.w3.org/2000/svg">
  <path d="M 1399 3027.5  C 1402.36 3027.5  1405 3030.14  1405 3033.5  C 1405 3036.86  1402.36 3039.5  1399 3039.5  C 1395.64 3039.5  1393 3036.86  1393 3033.5  C 1393 3030.14  1395.64 3027.5  1399 3027.5  Z " fill-rule="nonzero" fill="#ffffff" stroke="none" />
  <path d="M 1399 3028  C 1402.08 3028  1404.5 3030.42  1404.5 3033.5  C 1404.5 3036.58  1402.08 3039  1399 3039  C 1395.92 3039  1393.5 3036.58  1393.5 3033.5  C 1393.5 3030.42  1395.92 3028  1399 3028  Z " stroke-width="1" stroke="#797979" fill="none" />
  <path d="M 1399 3036.5  C 1397.32 3036.5  1396 3035.18  1396 3033.5  C 1396 3031.82  1397.32 3030.5  1399 3030.5  C 1400.68 3030.5  1402 3031.82  1402 3033.5  C 1402 3035.18  1400.68 3036.5  1399 3036.5  " fill-rule="nonzero" fill="#797979" stroke="none" />
</svg>