<?xml version="1.0" encoding="utf-8"?>
<svg version="1.1" xmlns:xlink="http://www.w3.org/1999/xlink" width="11px" height="11px" xmlns="http://www.w3.org/2000/svg">
  <g transform="matrix(1 0 0 1 -1291 -601 )">
    <path d="M 7.26888020833333 9.10221354166667  C 7.31184895833333 9.05924479166667  7.33333333333333 9.00434027777778  7.33333333333333 8.9375  L 7.33333333333333 7.79166666666667  C 7.33333333333333 7.72482638888889  7.31184895833333 7.669921875  7.26888020833333 7.626953125  C 7.22591145833333 7.583984375  7.17100694444444 7.5625  7.10416666666667 7.5625  L 6.41666666666667 7.5625  L 6.41666666666667 3.89583333333333  C 6.41666666666667 3.82899305555556  6.39518229166667 3.77408854166667  6.35221354166667 3.73111979166667  C 6.30924479166667 3.68815104166667  6.25434027777778 3.66666666666667  6.1875 3.66666666666667  L 3.89583333333333 3.66666666666667  C 3.82899305555556 3.66666666666667  3.77408854166667 3.68815104166667  3.73111979166667 3.73111979166667  C 3.68815104166667 3.77408854166667  3.66666666666667 3.82899305555556  3.66666666666667 3.89583333333333  L 3.66666666666667 5.04166666666667  C 3.66666666666667 5.10850694444444  3.68815104166667 5.16341145833333  3.73111979166667 5.20638020833333  C 3.77408854166667 5.24934895833333  3.82899305555556 5.27083333333333  3.89583333333333 5.27083333333333  L 4.58333333333333 5.27083333333333  L 4.58333333333333 7.5625  L 3.89583333333333 7.5625  C 3.82899305555556 7.5625  3.77408854166667 7.583984375  3.73111979166667 7.626953125  C 3.68815104166667 7.669921875  3.66666666666667 7.72482638888889  3.66666666666667 7.79166666666667  L 3.66666666666667 8.9375  C 3.66666666666667 9.00434027777778  3.68815104166667 9.05924479166667  3.73111979166667 9.10221354166667  C 3.77408854166667 9.14518229166667  3.82899305555556 9.16666666666667  3.89583333333333 9.16666666666667  L 7.10416666666667 9.16666666666667  C 7.17100694444444 9.16666666666667  7.22591145833333 9.14518229166667  7.26888020833333 9.10221354166667  Z M 6.35221354166667 2.685546875  C 6.39518229166667 2.642578125  6.41666666666667 2.58767361111111  6.41666666666667 2.52083333333333  L 6.41666666666667 1.375  C 6.41666666666667 1.30815972222222  6.39518229166667 1.25325520833333  6.35221354166667 1.21028645833333  C 6.30924479166667 1.16731770833333  6.25434027777778 1.14583333333333  6.1875 1.14583333333333  L 4.8125 1.14583333333333  C 4.74565972222222 1.14583333333333  4.69075520833333 1.16731770833333  4.64778645833333 1.21028645833333  C 4.60481770833333 1.25325520833333  4.58333333333333 1.30815972222222  4.58333333333333 1.375  L 4.58333333333333 2.52083333333333  C 4.58333333333333 2.58767361111111  4.60481770833333 2.642578125  4.64778645833333 2.685546875  C 4.69075520833333 2.728515625  4.74565972222222 2.75  4.8125 2.75  L 6.1875 2.75  C 6.25434027777778 2.75  6.30924479166667 2.728515625  6.35221354166667 2.685546875  Z M 10.2623697916667 2.7392578125  C 10.7541232638889 3.58192274305555  11 4.50217013888889  11 5.5  C 11 6.49782986111111  10.7541232638889 7.41807725694444  10.2623697916667 8.2607421875  C 9.77061631944445 9.10340711805556  9.10340711805556 9.77061631944444  8.2607421875 10.2623697916667  C 7.41807725694445 10.7541232638889  6.49782986111111 11  5.5 11  C 4.50217013888889 11  3.58192274305556 10.7541232638889  2.7392578125 10.2623697916667  C 1.89659288194444 9.77061631944444  1.22938368055556 9.10340711805556  0.737630208333333 8.2607421875  C 0.245876736111111 7.41807725694444  0 6.49782986111111  0 5.5  C 0 4.50217013888889  0.245876736111111 3.58192274305555  0.737630208333333 2.7392578125  C 1.22938368055556 1.89659288194444  1.89659288194444 1.22938368055555  2.7392578125 0.737630208333333  C 3.58192274305556 0.24587673611111  4.50217013888889 0  5.5 0  C 6.49782986111111 0  7.41807725694445 0.24587673611111  8.2607421875 0.737630208333333  C 9.10340711805556 1.22938368055555  9.77061631944445 1.89659288194444  10.2623697916667 2.7392578125  Z " fill-rule="nonzero" fill="#aaaaaa" stroke="none" transform="matrix(1 0 0 1 1291 601 )" />
  </g>
</svg>