<?xml version="1.0" encoding="utf-8"?>
<svg version="1.1" xmlns:xlink="http://www.w3.org/1999/xlink" width="50px" height="44px" xmlns="http://www.w3.org/2000/svg">
  <g transform="matrix(1 0 0 1 -565 -464 )">
    <path d="M 565 464  L 615 464  L 615 508  L 565 508  L 565 464  " fill-rule="nonzero" fill="#cccccc" stroke="none" />
    <path d="M 568 467  L 612 467  L 612 505  L 568 505  L 568 467  " fill-rule="nonzero" fill="#ffffff" stroke="none" />
    <path d="M 594.3 477.2  C 592.452 477.2  591 475.748  591 473.9  C 591 472.052  592.452 470.6  594.3 470.6  C 596.148 470.6  597.6 472.052  597.6 473.9  C 597.6 475.748  596.148 477.2  594.3 477.2  " fill-rule="nonzero" fill="#cccccc" stroke="none" />
    <path d="M 569 504  L 569 484.2  L 579.5 475.2  L 594.2 484.992  L 602.6 480.6  L 611 484.992  L 611 504  L 569 504  " fill-rule="nonzero" fill="#169bd5" stroke="none" />
  </g>
</svg>