<?xml version="1.0" encoding="utf-8"?>
<svg version="1.1" xmlns:xlink="http://www.w3.org/1999/xlink" width="28px" height="33px" xmlns="http://www.w3.org/2000/svg">
  <g transform="matrix(1 0 0 1 -204 -550 )">
    <path d="M 21.0729166666667 1.25223214285714  L 26.7604166666667 6.99776785714286  C 27.1006944444444 7.34151785714286  27.3923611111111 7.80803571428572  27.6354166666667 8.39732142857143  C 27.8784722222222 8.98660714285714  28 9.52678571428571  28 10.0178571428571  L 28 31.2321428571429  C 28 31.7232142857143  27.8298611111111 32.140625  27.4895833333333 32.484375  C 27.1493055555556 32.828125  26.7361111111111 33  26.25 33  L 1.75 33  C 1.26388888888889 33  0.850694444444445 32.828125  0.510416666666667 32.484375  C 0.170138888888889 32.140625  0 31.7232142857143  0 31.2321428571429  L 0 1.76785714285714  C 0 1.27678571428571  0.170138888888889 0.859374999999999  0.510416666666667 0.515625  C 0.850694444444445 0.171875000000001  1.26388888888889 0  1.75 0  L 18.0833333333333 0  C 18.5694444444444 0  19.1041666666667 0.122767857142859  19.6875 0.368303571428572  C 20.2708333333333 0.613839285714285  20.7326388888889 0.908482142857141  21.0729166666667 1.25223214285714  Z M 19.4140625 2.90959821428572  C 19.2682291666667 2.76227678571428  19.0190972222222 2.62723214285714  18.6666666666667 2.50446428571428  L 18.6666666666667 9.42857142857143  L 25.5208333333333 9.42857142857143  C 25.3993055555556 9.07254464285714  25.265625 8.82087053571428  25.1197916666667 8.67354910714286  L 19.4140625 2.90959821428572  Z M 2.33333333333333 30  L 25.6666666666667 30  L 25.6666666666667 11.7857142857143  L 18.0833333333333 11.7857142857143  C 17.5972222222222 11.7857142857143  17.1840277777778 11.6138392857143  16.84375 11.2700892857143  C 16.5034722222222 10.9263392857143  16.3333333333333 10.5089285714286  16.3333333333333 10.0178571428571  L 16.3333333333333 3  L 2.33333333333333 3  L 2.33333333333333 30  Z M 9.71614583333333 14.1428571428571  L 4.24739583333333 14.1428571428571  L 4.24739583333333 16.11328125  L 5.5234375 16.11328125  L 8.51302083333333 28.2857142857143  L 11.4114583333333 28.2857142857143  L 13.7447916666667 19.3543526785714  C 13.8298611111111 19.1088169642857  13.890625 18.8264508928571  13.9270833333333 18.5072544642857  C 13.9513888888889 18.3108258928571  13.9635416666667 18.1635044642857  13.9635416666667 18.0652901785714  L 14.0364583333333 18.0652901785714  L 14.0911458333333 18.5072544642857  C 14.1032986111111 18.5440848214286  14.1245659722222 18.6668526785714  14.1549479166667 18.8755580357143  C 14.1853298611111 19.0842633928571  14.21875 19.2438616071429  14.2552083333333 19.3543526785714  L 16.5885416666667 28.2857142857143  L 19.4869791666667 28.2857142857143  L 22.4765625 16.11328125  L 23.7526041666667 16.11328125  L 23.7526041666667 14.1428571428571  L 18.2838541666667 14.1428571428571  L 18.2838541666667 16.11328125  L 19.9244791666667 16.11328125  L 18.1197916666667 24.1791294642857  C 18.0590277777778 24.4246651785714  18.0164930555556 24.70703125  17.9921875 25.0262276785714  L 17.9557291666667 25.4129464285714  L 17.8828125 25.4129464285714  C 17.8828125 25.3761160714286  17.8797743055556 25.3362165178571  17.8736979166667 25.2932477678571  C 17.8676215277778 25.2502790178571  17.8585069444444 25.201171875  17.8463541666667 25.1459263392857  C 17.8342013888889 25.0906808035714  17.828125 25.05078125  17.828125 25.0262276785714  C 17.8159722222222 24.96484375  17.7916666666667 24.8359375  17.7552083333333 24.6395089285714  C 17.71875 24.4430803571429  17.6883680555556 24.2896205357143  17.6640625 24.1791294642857  L 15.0390625 14.1428571428571  L 12.9609375 14.1428571428571  L 10.3359375 24.1791294642857  C 10.3116319444444 24.2896205357143  10.2842881944444 24.4400111607143  10.25390625 24.6303013392857  C 10.2235243055556 24.8205915178571  10.2022569444444 24.9525669642857  10.1901041666667 25.0262276785714  L 10.1171875 25.4129464285714  L 10.0442708333333 25.4129464285714  L 10.0078125 25.0262276785714  C 9.98350694444444 24.70703125  9.94097222222222 24.4246651785714  9.88020833333333 24.1791294642857  L 8.07552083333333 16.11328125  L 9.71614583333333 16.11328125  L 9.71614583333333 14.1428571428571  Z " fill-rule="nonzero" fill="#aaaaaa" stroke="none" transform="matrix(1 0 0 1 204 550 )" />
  </g>
</svg>