<?xml version="1.0" encoding="utf-8"?>
<svg version="1.1" xmlns:xlink="http://www.w3.org/1999/xlink" width="33px" height="39px" xmlns="http://www.w3.org/2000/svg">
  <g transform="matrix(1 0 0 1 -203 -1325 )">
    <path d="M 24.8359375 1.47991071428572  L 31.5390625 8.27008928571428  C 31.9401041666667 8.67633928571428  32.2838541666667 9.22767857142857  32.5703125 9.92410714285714  C 32.8567708333333 10.6205357142857  33 11.2589285714286  33 11.8392857142857  L 33 36.9107142857143  C 33 37.4910714285714  32.7994791666667 37.984375  32.3984375 38.390625  C 31.9973958333333 38.796875  31.5104166666667 39  30.9375 39  L 2.0625 39  C 1.48958333333333 39  1.00260416666667 38.796875  0.6015625 38.390625  C 0.200520833333333 37.984375  0 37.4910714285714  0 36.9107142857143  L 0 2.08928571428572  C 0 1.50892857142857  0.200520833333333 1.015625  0.6015625 0.609375  C 1.00260416666667 0.203125000000001  1.48958333333333 0  2.0625 0  L 21.3125 0  C 21.8854166666667 0  22.515625 0.145089285714287  23.203125 0.435267857142858  C 23.890625 0.725446428571428  24.4348958333333 1.07366071428571  24.8359375 1.47991071428572  Z M 22.880859375 3.43861607142857  C 22.708984375 3.26450892857143  22.4153645833333 3.10491071428571  22 2.95982142857143  L 22 11.1428571428571  L 30.078125 11.1428571428571  C 29.9348958333333 10.7220982142857  29.77734375 10.4246651785714  29.60546875 10.2505580357143  L 22.880859375 3.43861607142857  Z M 3 36  L 30 36  L 30 13.9285714285714  L 21.3125 13.9285714285714  C 20.7395833333333 13.9285714285714  20.2526041666667 13.7254464285714  19.8515625 13.3191964285714  C 19.4505208333333 12.9129464285714  19.25 12.4196428571429  19.25 11.8392857142857  L 19.25 3  L 3 3  L 3 36  Z M 11.451171875 16.7142857142857  L 5.005859375 16.7142857142857  L 5.005859375 19.04296875  L 6.509765625 19.04296875  L 10.033203125 33.4285714285714  L 13.44921875 33.4285714285714  L 16.19921875 22.8733258928571  C 16.2994791666667 22.5831473214286  16.37109375 22.2494419642857  16.4140625 21.8722098214286  C 16.4427083333333 21.6400669642857  16.45703125 21.4659598214286  16.45703125 21.3498883928571  L 16.54296875 21.3498883928571  L 16.607421875 21.8722098214286  C 16.6217447916667 21.9157366071429  16.6468098958333 22.0608258928571  16.6826171875 22.3074776785714  C 16.7184244791667 22.5541294642857  16.7578125 22.7427455357143  16.80078125 22.8733258928571  L 19.55078125 33.4285714285714  L 22.966796875 33.4285714285714  L 26.490234375 19.04296875  L 27.994140625 19.04296875  L 27.994140625 16.7142857142857  L 21.548828125 16.7142857142857  L 21.548828125 19.04296875  L 23.482421875 19.04296875  L 21.35546875 28.5753348214286  C 21.2838541666667 28.8655133928571  21.2337239583333 29.19921875  21.205078125 29.5764508928571  L 21.162109375 30.0334821428571  L 21.076171875 30.0334821428571  C 21.076171875 29.9899553571429  21.0725911458333 29.9428013392857  21.0654296875 29.8920200892857  C 21.0582682291667 29.8412388392857  21.0475260416667 29.783203125  21.033203125 29.7179129464286  C 21.0188802083333 29.6526227678571  21.01171875 29.60546875  21.01171875 29.5764508928571  C 20.9973958333333 29.50390625  20.96875 29.3515625  20.92578125 29.1194196428571  C 20.8828125 28.8872767857143  20.8470052083333 28.7059151785714  20.818359375 28.5753348214286  L 17.724609375 16.7142857142857  L 15.275390625 16.7142857142857  L 12.181640625 28.5753348214286  C 12.1529947916667 28.7059151785714  12.1207682291667 28.8836495535714  12.0849609375 29.1085379464286  C 12.0491536458333 29.3334263392857  12.0240885416667 29.4893973214286  12.009765625 29.5764508928571  L 11.923828125 30.0334821428571  L 11.837890625 30.0334821428571  L 11.794921875 29.5764508928571  C 11.7662760416667 29.19921875  11.7161458333333 28.8655133928571  11.64453125 28.5753348214286  L 9.517578125 19.04296875  L 11.451171875 19.04296875  L 11.451171875 16.7142857142857  Z " fill-rule="nonzero" fill="#aaaaaa" stroke="none" transform="matrix(1 0 0 1 203 1325 )" />
  </g>
</svg>