<?xml version="1.0" encoding="utf-8"?>
<svg version="1.1" xmlns:xlink="http://www.w3.org/1999/xlink" width="23px" height="38px" xmlns="http://www.w3.org/2000/svg">
  <g transform="matrix(1 0 0 1 -206 -355 )">
    <path d="M 13.1920572916667 35.87734375  C 13.6612413194444 35.4122395833333  13.8958333333333 34.853125  13.8958333333333 34.2  C 13.8958333333333 33.546875  13.6612413194444 32.9877604166667  13.1920572916667 32.52265625  C 12.7228732638889 32.0575520833333  12.1588541666667 31.825  11.5 31.825  C 10.8411458333333 31.825  10.2771267361111 32.0575520833333  9.80794270833333 32.52265625  C 9.33875868055556 32.9877604166667  9.10416666666667 33.546875  9.10416666666667 34.2  C 9.10416666666667 34.853125  9.33875868055556 35.4122395833333  9.80794270833333 35.87734375  C 10.2771267361111 36.3424479166667  10.8411458333333 36.575  11.5 36.575  C 12.1588541666667 36.575  12.7228732638889 36.3424479166667  13.1920572916667 35.87734375  Z M 19.8404947916667 30.11796875  C 20.0301649305556 29.9299479166667  20.125 29.7072916666667  20 29.45  L 20 8.55  C 20.125 8.29270833333333  20.0301649305556 8.07005208333333  19.8404947916667 7.88203125  C 19.6508246527778 7.69401041666666  19.4262152777778 7.6  19.1666666666667 8  L 3.83333333333333 8  C 3.57378472222222 7.6  3.34917534722222 7.69401041666666  3.15950520833333 7.88203125  C 2.96983506944444 8.07005208333333  2.875 8.29270833333333  3 8.55  L 3 29.45  C 2.875 29.7072916666667  2.96983506944444 29.9299479166667  3.15950520833333 30.11796875  C 3.34917534722222 30.3059895833333  3.57378472222222 30.4  3.83333333333333 30  L 19.1666666666667 30  C 19.4262152777778 30.4  19.6508246527778 30.3059895833333  19.8404947916667 30.11796875  Z M 13.8958333333333 4.75  C 14.2152777777778 4.75  14.375 4.59166666666666  14.375 4.275  C 14.375 3.95833333333333  14.2152777777778 3.8  13.8958333333333 3.8  L 9.10416666666667 3.8  C 8.78472222222222 3.8  8.625 3.95833333333333  8.625 4.275  C 8.625 4.59166666666666  8.78472222222222 4.75  9.10416666666667 4.75  L 13.8958333333333 4.75  Z M 21.8619791666667 1.128125  C 22.6206597222222 1.88020833333333  23 2.77083333333333  23 3.8  L 23 34.2  C 23 35.2291666666667  22.6206597222222 36.1197916666667  21.8619791666667 36.871875  C 21.1032986111111 37.6239583333333  20.2048611111111 38  19.1666666666667 38  L 3.83333333333333 38  C 2.79513888888889 38  1.89670138888889 37.6239583333333  1.13802083333333 36.871875  C 0.379340277777778 36.1197916666667  0 35.2291666666667  0 34.2  L 0 3.8  C 0 2.77083333333333  0.379340277777778 1.88020833333333  1.13802083333333 1.128125  C 1.89670138888889 0.376041666666662  2.79513888888889 0  3.83333333333333 0  L 19.1666666666667 0  C 20.2048611111111 0  21.1032986111111 0.376041666666662  21.8619791666667 1.128125  Z " fill-rule="nonzero" fill="#000000" stroke="none" fill-opacity="0.2" transform="matrix(1 0 0 1 206 355 )" />
  </g>
</svg>