<?xml version="1.0" encoding="utf-8"?>
<svg version="1.1" xmlns:xlink="http://www.w3.org/1999/xlink" width="15px" height="33px" xmlns="http://www.w3.org/2000/svg">
  <g transform="matrix(1 0 0 1 -759 -384 )">
    <path d="M 14.8246753246753 7.52430555555556  C 14.9935064935065 7.72800925925926  15.025974025974 7.95081018518519  14.9220779220779 8.19270833333333  C 14.8051948051948 8.43460648148148  14.6168831168831 8.55555555555556  14.3571428571429 8.55555555555556  L 10 8.55555555555556  L 10 32.3888888888889  C 9.99350649350649 32.5671296296296  9.93506493506493 32.7135416666667  9.81818181818182 32.828125  C 9.7012987012987 32.9427083333333  9.55194805194805 33  9.37012987012987 33  L 5.62987012987013 33  C 5.44805194805195 33  5.2987012987013 32.9427083333333  5.18181818181818 32.828125  C 5.06493506493506 32.7135416666667  5.00649350649351 32.5671296296296  5 32.3888888888889  L 5 8.55555555555556  L 0.642857142857143 8.55555555555556  C 0.37012987012987 8.55555555555556  0.181818181818182 8.43460648148148  0.0779220779220779 8.19270833333333  C -0.025974025974026 7.95081018518519  0.00649350649350648 7.72800925925926  0.175324675324675 7.52430555555556  L 6.99350649350649 0.190972222222224  C 7.12337662337662 0.0636574074074068  7.27272727272727 0  7.44155844155844 0  C 7.62337662337662 0  7.77922077922078 0.0636574074074068  7.90909090909091 0.190972222222224  L 14.8246753246753 7.52430555555556  Z " fill-rule="nonzero" fill="#000000" stroke="none" transform="matrix(1 0 0 1 759 384 )" />
  </g>
</svg>