<?xml version="1.0" encoding="utf-8"?>
<svg version="1.1" xmlns:xlink="http://www.w3.org/1999/xlink" width="14px" height="33px" xmlns="http://www.w3.org/2000/svg">
  <g transform="matrix(1 0 0 1 -832 -385 )">
    <path d="M 13.4 24.4444444444444  C 13.6545454545455 24.4444444444444  13.830303030303 24.5653935185185  13.9272727272727 24.8072916666667  C 14.0242424242424 25.0491898148148  13.9939393939394 25.2719907407407  13.8363636363636 25.4756944444444  L 7.47272727272727 32.8090277777778  C 7.35151515151515 32.9363425925926  7.21212121212121 33  7.05454545454545 33  C 6.88484848484849 33  6.73939393939394 32.9363425925926  6.61818181818182 32.8090277777778  L 0.163636363636364 25.4756944444444  C 0.00606060606060605 25.2719907407407  -0.0242424242424243 25.0491898148148  0.0727272727272727 24.8072916666667  C 0.181818181818182 24.5653935185185  0.357575757575758 24.4444444444444  0.6 24.4444444444444  L 4.67272727272727 24.4444444444444  L 4.67272727272727 0.61111111111111  C 4.67272727272727 0.432870370370367  4.72727272727273 0.286458333333334  4.83636363636364 0.171875000000001  C 4.94545454545455 0.0572916666666683  5.08484848484849 0  5.25454545454545 0  L 8.74545454545455 0  C 8.91515151515152 0  9.05454545454545 0.0572916666666683  9.16363636363636 0.171875000000001  C 9.27272727272727 0.286458333333334  9.32727272727273 0.432870370370367  9.32727272727273 0.61111111111111  L 9.32727272727273 24.4444444444444  L 13.4 24.4444444444444  Z " fill-rule="nonzero" fill="#000000" stroke="none" transform="matrix(1 0 0 1 832 385 )" />
  </g>
</svg>