<?xml version="1.0" encoding="utf-8"?>
<svg version="1.1" xmlns:xlink="http://www.w3.org/1999/xlink" width="42px" height="42px" xmlns="http://www.w3.org/2000/svg">
  <g transform="matrix(1 0 0 1 -14 -1732 )">
    <path d="M 35 1732  C 46.76 1732  56 1741.24  56 1753  C 56 1764.76  46.76 1774  35 1774  C 23.24 1774  14 1764.76  14 1753  C 14 1741.24  23.24 1732  35 1732  Z " fill-rule="nonzero" fill="#ffffff" stroke="none" />
    <path d="M 35 1732.5  C 46.48 1732.5  55.5 1741.52  55.5 1753  C 55.5 1764.48  46.48 1773.5  35 1773.5  C 23.52 1773.5  14.5 1764.48  14.5 1753  C 14.5 1741.52  23.52 1732.5  35 1732.5  Z " stroke-width="1" stroke="#797979" fill="none" />
  </g>
</svg>