<?xml version="1.0" encoding="utf-8"?>
<svg version="1.1" xmlns:xlink="http://www.w3.org/1999/xlink" width="31px" height="19px" xmlns="http://www.w3.org/2000/svg">
  <g transform="matrix(1 0 0 1 -7 -1958 )">
    <path d="M 0.77197265625 13.188671875  C 0.25732421875 12.016015625  0 10.7864583333333  0 9.5  C 0 8.21354166666667  0.25732421875 6.983984375  0.77197265625 5.811328125  C 1.28662109375 4.638671875  1.975341796875 3.629296875  2.838134765625 2.783203125  C 3.700927734375 1.937109375  4.730224609375 1.26171875  5.926025390625 0.757031249999999  C 7.121826171875 0.25234375  8.37565104166667 0  9.6875 0  L 21.3125 0  C 22.6243489583333 0  23.878173828125 0.25234375  25.073974609375 0.757031249999999  C 26.269775390625 1.26171875  27.299072265625 1.937109375  28.161865234375 2.783203125  C 29.024658203125 3.629296875  29.71337890625 4.638671875  30.22802734375 5.811328125  C 30.74267578125 6.983984375  31 8.21354166666667  31 9.5  C 31 10.7864583333333  30.74267578125 12.016015625  30.22802734375 13.188671875  C 29.71337890625 14.361328125  29.024658203125 15.370703125  28.161865234375 16.216796875  C 27.299072265625 17.062890625  26.269775390625 17.73828125  25.073974609375 18.24296875  C 23.878173828125 18.74765625  22.6243489583333 19  21.3125 19  L 9.6875 19  C 8.37565104166667 19  7.121826171875 18.74765625  5.926025390625 18.24296875  C 4.730224609375 17.73828125  3.700927734375 17.062890625  2.838134765625 16.216796875  C 1.975341796875 15.370703125  1.28662109375 14.361328125  0.77197265625 13.188671875  Z M 18.307861328125 16.498828125  C 19.261474609375 16.899609375  20.2630208333333 17.1  21.3125 17.1  C 22.3619791666667 17.1  23.363525390625 16.899609375  24.317138671875 16.498828125  C 25.270751953125 16.098046875  26.095703125 15.55625  26.7919921875 14.8734375  C 27.48828125 14.190625  28.040771484375 13.381640625  28.449462890625 12.446484375  C 28.858154296875 11.511328125  29.0625 10.5291666666667  29.0625 9.5  C 29.0625 8.47083333333333  28.858154296875 7.488671875  28.449462890625 6.553515625  C 28.040771484375 5.618359375  27.48828125 4.809375  26.7919921875 4.1265625  C 26.095703125 3.44375  25.270751953125 2.901953125  24.317138671875 2.501171875  C 23.363525390625 2.100390625  22.3619791666667 1.9  21.3125 1.9  C 20.2630208333333 1.9  19.261474609375 2.100390625  18.307861328125 2.501171875  C 17.354248046875 2.901953125  16.529296875 3.44375  15.8330078125 4.1265625  C 15.13671875 4.809375  14.584228515625 5.618359375  14.175537109375 6.553515625  C 13.766845703125 7.488671875  13.5625 8.47083333333333  13.5625 9.5  C 13.5625 10.5291666666667  13.766845703125 11.511328125  14.175537109375 12.446484375  C 14.584228515625 13.381640625  15.13671875 14.190625  15.8330078125 14.8734375  C 16.529296875 15.55625  17.354248046875 16.098046875  18.307861328125 16.498828125  Z " fill-rule="nonzero" fill="#000000" stroke="none" transform="matrix(1 0 0 1 7 1958 )" />
  </g>
</svg>