<?xml version="1.0" encoding="utf-8"?>
<svg version="1.1" xmlns:xlink="http://www.w3.org/1999/xlink" width="300px" height="170px" xmlns="http://www.w3.org/2000/svg">
  <g transform="matrix(1 0 0 1 -1388 -362 )">
    <path d="M 1388 362  L 1688 362  L 1688 532  L 1388 532  L 1388 362  " fill-rule="nonzero" fill="#cccccc" stroke="none" />
    <path d="M 1400 374  L 1676 374  L 1676 520  L 1400 520  L 1400 374  " fill-rule="nonzero" fill="#ffffff" stroke="none" />
    <path d="M 1556.75 413  C 1549.61 413  1544 407.39  1544 400.25  C 1544 393.11  1549.61 387.5  1556.75 387.5  C 1563.89 387.5  1569.5 393.11  1569.5 400.25  C 1569.5 407.39  1563.89 413  1556.75 413  " fill-rule="nonzero" fill="#cccccc" stroke="none" />
    <path d="M 1405 516  L 1405 440.65  L 1471.75 406.4  L 1565.2 469.42  L 1618.6 426.95  L 1672 469.42  L 1672 516  L 1405 516  " fill-rule="nonzero" fill="#169bd5" stroke="none" />
  </g>
</svg>