<?xml version="1.0" encoding="utf-8"?>
<svg version="1.1" xmlns:xlink="http://www.w3.org/1999/xlink" width="22px" height="22px" xmlns="http://www.w3.org/2000/svg">
  <defs>
    <mask fill="white" id="clip30">
      <path d="M 0 11  C 0 9.85639925877211  0.166814114201202 8.75829327596273  0.477919468382879 7.72820492579234  C 1.84258163749087 3.20972723512875  5.98360074122786 0  11 0  C 17.16 0  22 4.83999999999998  22 11  C 22 17.16  17.16 22  11 22  C 4.84000000000003 22  0 17.16  0 11  Z " fill-rule="evenodd" />
    </mask>
  </defs>
  <g transform="matrix(1 0 0 1 -486 -300 )">
    <path d="M 0 11  C 0 9.85639925877211  0.166814114201202 8.75829327596273  0.477919468382879 7.72820492579234  C 1.84258163749087 3.20972723512875  5.98360074122786 0  11 0  C 17.16 0  22 4.83999999999998  22 11  C 22 17.16  17.16 22  11 22  C 4.84000000000003 22  0 17.16  0 11  Z " fill-rule="nonzero" fill="#ff373c" stroke="none" transform="matrix(1 0 0 1 486 300 )" />
    <path d="M 0 11  C 0 9.85639925877211  0.166814114201202 8.75829327596273  0.477919468382879 7.72820492579234  C 1.84258163749087 3.20972723512875  5.98360074122786 0  11 0  C 17.16 0  22 4.83999999999998  22 11  C 22 17.16  17.16 22  11 22  C 4.84000000000003 22  0 17.16  0 11  Z " stroke-width="2" stroke="#ff373c" fill="none" transform="matrix(1 0 0 1 486 300 )" mask="url(#clip30)" />
  </g>
</svg>