<?xml version="1.0" encoding="utf-8"?>
<svg version="1.1" xmlns:xlink="http://www.w3.org/1999/xlink" width="25px" height="14px" xmlns="http://www.w3.org/2000/svg">
  <g transform="matrix(1 0 0 1 -364 -37 )">
    <path d="M 2.77777777777778 3  L 20.8333333333333 3  L 20.8333333333333 11  L 2.77777777777778 11  L 2.77777777777778 3  Z M 22.2222222222222 12.25  L 22.2222222222222 9.1  L 23.6111111111111 9.1  L 23.6111111111111 4.9  L 22.2222222222222 4.9  L 22.2222222222222 1.75  C 22.2222222222222 1.64791666666666  22.1896701388889 1.5640625  22.1245659722222 1.4984375  C 22.0594618055556 1.4328125  21.9762731481482 1.4  21.875 1.4  L 1.73611111111111 1.4  C 1.63483796296296 1.4  1.55164930555556 1.4328125  1.48654513888889 1.4984375  C 1.42144097222222 1.5640625  1.38888888888889 1.64791666666666  1.38888888888889 1.75  L 1.38888888888889 12.25  C 1.38888888888889 12.3520833333333  1.42144097222222 12.4359375  1.48654513888889 12.5015625  C 1.55164930555556 12.5671875  1.63483796296296 12.6  1.73611111111111 12.6  L 21.875 12.6  C 21.9762731481482 12.6  22.0594618055556 12.5671875  22.1245659722222 12.5015625  C 22.1896701388889 12.4359375  22.2222222222222 12.3520833333333  22.2222222222222 12.25  Z M 24.5930989583333 3.91015625  C 24.8643663194444 4.18359375  25 4.51354166666667  25 4.9  L 25 9.1  C 25 9.48645833333333  24.8643663194444 9.81640625  24.5930989583333 10.08984375  C 24.3218315972222 10.36328125  23.9945023148148 10.5  23.6111111111111 10.5  L 23.6111111111111 12.25  C 23.6111111111111 12.73125  23.4411168981482 13.1432291666667  23.1011284722222 13.4859375  C 22.7611400462963 13.8286458333333  22.3524305555556 14  21.875 14  L 1.73611111111111 14  C 1.25868055555556 14  0.849971064814815 13.8286458333333  0.509982638888889 13.4859375  C 0.169994212962963 13.1432291666667  0 12.73125  0 12.25  L 0 1.75  C 0 1.26875  0.169994212962963 0.856770833333333  0.509982638888889 0.5140625  C 0.849971064814815 0.171354166666665  1.25868055555556 0  1.73611111111111 0  L 21.875 0  C 22.3524305555556 0  22.7611400462963 0.171354166666665  23.1011284722222 0.5140625  C 23.4411168981482 0.856770833333333  23.6111111111111 1.26875  23.6111111111111 1.75  L 23.6111111111111 3.5  C 23.9945023148148 3.5  24.3218315972222 3.63671875  24.5930989583333 3.91015625  Z " fill-rule="nonzero" fill="#aaaaaa" stroke="none" transform="matrix(1 0 0 1 364 37 )" />
  </g>
</svg>