<?xml version="1.0" encoding="utf-8"?>
<svg version="1.1" xmlns:xlink="http://www.w3.org/1999/xlink" width="16px" height="4px" xmlns="http://www.w3.org/2000/svg">
  <g transform="matrix(1 0 0 1 -989 -203 )">
    <path d="M 4.04545454545455 0.291666666666667  C 4.25757575757576 0.486111111111109  4.36363636363636 0.722222222222221  4.36363636363636 1  L 4.36363636363636 3  C 4.36363636363636 3.27777777777778  4.25757575757576 3.51388888888889  4.04545454545455 3.70833333333333  C 3.83333333333333 3.90277777777778  3.57575757575758 4  3.27272727272727 4  L 1.09090909090909 4  C 0.787878787878788 4  0.53030303030303 3.90277777777778  0.318181818181818 3.70833333333333  C 0.106060606060606 3.51388888888889  0 3.27777777777778  0 3  L 0 1  C 0 0.722222222222221  0.106060606060606 0.486111111111109  0.318181818181818 0.291666666666667  C 0.53030303030303 0.0972222222222214  0.787878787878788 0  1.09090909090909 0  L 3.27272727272727 0  C 3.57575757575758 0  3.83333333333333 0.0972222222222214  4.04545454545455 0.291666666666667  Z M 9.86363636363636 0.291666666666667  C 10.0757575757576 0.486111111111109  10.1818181818182 0.722222222222221  10.1818181818182 1  L 10.1818181818182 3  C 10.1818181818182 3.27777777777778  10.0757575757576 3.51388888888889  9.86363636363636 3.70833333333333  C 9.65151515151515 3.90277777777778  9.39393939393939 4  9.09090909090909 4  L 6.90909090909091 4  C 6.60606060606061 4  6.34848484848485 3.90277777777778  6.13636363636364 3.70833333333333  C 5.92424242424242 3.51388888888889  5.81818181818182 3.27777777777778  5.81818181818182 3  L 5.81818181818182 1  C 5.81818181818182 0.722222222222221  5.92424242424242 0.486111111111109  6.13636363636364 0.291666666666667  C 6.34848484848485 0.0972222222222214  6.60606060606061 0  6.90909090909091 0  L 9.09090909090909 0  C 9.39393939393939 0  9.65151515151515 0.0972222222222214  9.86363636363636 0.291666666666667  Z M 15.6818181818182 0.291666666666667  C 15.8939393939394 0.486111111111109  16 0.722222222222221  16 1  L 16 3  C 16 3.27777777777778  15.8939393939394 3.51388888888889  15.6818181818182 3.70833333333333  C 15.469696969697 3.90277777777778  15.2121212121212 4  14.9090909090909 4  L 12.7272727272727 4  C 12.4242424242424 4  12.1666666666667 3.90277777777778  11.9545454545455 3.70833333333333  C 11.7424242424242 3.51388888888889  11.6363636363636 3.27777777777778  11.6363636363636 3  L 11.6363636363636 1  C 11.6363636363636 0.722222222222221  11.7424242424242 0.486111111111109  11.9545454545455 0.291666666666667  C 12.1666666666667 0.0972222222222214  12.4242424242424 0  12.7272727272727 0  L 14.9090909090909 0  C 15.2121212121212 0  15.469696969697 0.0972222222222214  15.6818181818182 0.291666666666667  Z " fill-rule="nonzero" fill="#7f7f7f" stroke="none" transform="matrix(1 0 0 1 989 203 )" />
  </g>
</svg>