<?xml version="1.0" encoding="utf-8"?>
<svg version="1.1" xmlns:xlink="http://www.w3.org/1999/xlink" width="8px" height="8px" xmlns="http://www.w3.org/2000/svg">
  <g transform="matrix(1 0 0 1 -792 -244 )">
    <path d="M 7.82336956521739 3.20667522464698  C 7.9411231884058 3.33504492939666  8 3.48994437312794  8 3.67137355584082  L 8 4.32862644415918  C 8 4.51005562687206  7.9411231884058 4.66495507060334  7.82336956521739 4.79332477535302  C 7.70561594202899 4.9216944801027  7.55253623188406 4.98587933247754  7.36413043478261 4.98587933247754  L 3.53804347826087 4.98587933247754  L 5.1304347826087 6.49550706033376  C 5.26811594202899 6.61874197689345  5.33695652173913 6.77278562259307  5.33695652173913 6.95763799743261  C 5.33695652173913 7.14249037227214  5.26811594202899 7.29653401797176  5.1304347826087 7.41976893453145  L 4.72282608695652 7.81001283697047  C 4.58876811594203 7.93667094565683  4.42572463768116 8  4.23369565217391 8  C 4.04528985507246 8  3.8804347826087 7.93667094565683  3.73913043478261 7.81001283697047  L 0.201086956521739 4.46213093709884  C 0.0670289855072464 4.33547282841249  0 4.18142918271288  0 4  C 0 3.82199400941378  0.0670289855072464 3.66623876765083  0.201086956521739 3.53273427471117  L 3.73913043478261 0.195121951219512  C 3.8768115942029 0.0650406504065035  4.04166666666667 0  4.23369565217391 0  C 4.42210144927536 0  4.58514492753623 0.0650406504065035  4.72282608695652 0.195121951219512  L 5.1304347826087 0.575096277278562  C 5.26811594202899 0.70517757809157  5.33695652173913 0.860932819854513  5.33695652173913 1.04236200256739  C 5.33695652173913 1.22379118528027  5.26811594202899 1.37954642704322  5.1304347826087 1.50962772785623  L 3.53804347826087 3.01412066752247  L 7.36413043478261 3.01412066752247  C 7.55253623188406 3.01412066752247  7.70561594202899 3.0783055198973  7.82336956521739 3.20667522464698  Z " fill-rule="nonzero" fill="#000000" stroke="none" transform="matrix(1 0 0 1 792 244 )" />
  </g>
</svg>