<?xml version="1.0" encoding="utf-8"?>
<svg version="1.1" xmlns:xlink="http://www.w3.org/1999/xlink" width="8px" height="9px" xmlns="http://www.w3.org/2000/svg">
  <g transform="matrix(1 0 0 1 -957 -243 )">
    <path d="M 7.79891304347826 3.9801026957638  C 7.93297101449275 4.11489088575096  8 4.28818998716303  8 4.5  C 8 4.70795892169448  7.93297101449275 4.88318356867779  7.79891304347826 5.02567394094994  L 4.26086956521739 8.78626444159178  C 4.1195652173913 8.92875481386393  3.95471014492754 9  3.76630434782609 9  C 3.58152173913043 9  3.41847826086957 8.92875481386393  3.27717391304348 8.78626444159178  L 2.8695652173913 8.35301668806162  C 2.73188405797101 8.20667522464698  2.66304347826087 8.03145057766367  2.66304347826087 7.82734274711168  C 2.66304347826087 7.62323491655969  2.73188405797101 7.44801026957638  2.8695652173913 7.30166880616175  L 4.46195652173913 5.60911424903723  L 0.635869565217391 5.60911424903723  C 0.447463768115942 5.60911424903723  0.294384057971015 5.53690629011553  0.176630434782609 5.39249037227214  C 0.0588768115942029 5.24807445442876  0 5.07381258023107  0 4.86970474967908  L 0 4.13029525032092  C 0 3.92618741976893  0.0588768115942029 3.75192554557125  0.176630434782609 3.60750962772786  C 0.294384057971015 3.46309370988447  0.447463768115942 3.39088575096277  0.635869565217391 3.39088575096277  L 4.46195652173913 3.39088575096277  L 2.8695652173913 1.69255455712452  C 2.73188405797101 1.55391527599487  2.66304347826087 1.3806161745828  2.66304347826087 1.17265725288832  C 2.66304347826087 0.964698331193839  2.73188405797101 0.791399229781772  2.8695652173913 0.652759948652118  L 3.27717391304348 0.219512195121951  C 3.41485507246377 0.0731707317073165  3.57789855072464 0  3.76630434782609 0  C 3.95833333333333 0  4.1231884057971 0.0731707317073165  4.26086956521739 0.219512195121951  L 7.79891304347826 3.9801026957638  Z " fill-rule="nonzero" fill="#000000" stroke="none" transform="matrix(1 0 0 1 957 243 )" />
  </g>
</svg>