<?xml version="1.0" encoding="utf-8"?>
<svg version="1.1" xmlns:xlink="http://www.w3.org/1999/xlink" width="4px" height="7px" xmlns="http://www.w3.org/2000/svg">
  <g transform="matrix(1 0 0 1 -1849 -1931 )">
    <path d="M 3.93127147766323 3.33867735470942  C 3.97709049255441 3.38543754175017  4 3.43921175684703  4 3.5  C 4 3.56078824315297  3.97709049255441 3.61456245824983  3.93127147766323 3.66132264529058  L 0.728522336769759 6.92985971943888  C 0.68270332187858 6.97661990647963  0.630011454753723 7  0.570446735395189 7  C 0.510882016036655 7  0.458190148911798 6.97661990647963  0.412371134020619 6.92985971943888  L 0.0687285223367698 6.57915831663327  C 0.0229095074455899 6.53239812959252  0 6.47862391449566  0 6.41783567134268  C 0 6.35704742818971  0.0229095074455899 6.30327321309285  0.0687285223367698 6.2565130260521  L 2.76975945017182 3.5  L 0.0687285223367698 0.743486973947896  C 0.0229095074455899 0.696726786907147  0 0.642952571810287  0 0.582164328657315  C 0 0.521376085504341  0.0229095074455899 0.467601870407481  0.0687285223367698 0.420841683366733  L 0.412371134020619 0.0701402805611223  C 0.458190148911798 0.0233800935203738  0.510882016036655 0  0.570446735395189 0  C 0.630011454753723 0  0.68270332187858 0.0233800935203738  0.728522336769759 0.0701402805611223  L 3.93127147766323 3.33867735470942  Z " fill-rule="nonzero" fill="#d9001b" stroke="none" transform="matrix(1 0 0 1 1849 1931 )" />
  </g>
</svg>